STARTFONT 2.1
FONT -FontForge-Avenir Next Condensed Medium-Medium-R-Condensed---38-360-75-75-P-162-ISO10646-1
SIZE 36 75 75
FONTBOUNDINGBOX 38 47 -5 -10
COMMENT "Generated by fontforge, http://fontforge.sourceforge.net"
COMMENT "Copyright (c) 2004 - 2007 Linotype GmbH, www.linotype.com. All rights reserved."
STARTPROPERTIES 40
FOUNDRY "FontForge"
FAMILY_NAME "Avenir Next Condensed Medium"
WEIGHT_NAME "Medium"
SLANT "R"
SETWIDTH_NAME "Condensed"
ADD_STYLE_NAME ""
PIXEL_SIZE 38
POINT_SIZE 360
RESOLUTION_X 75
RESOLUTION_Y 75
SPACING "P"
AVERAGE_WIDTH 162
CHARSET_REGISTRY "ISO10646"
CHARSET_ENCODING "1"
FONTNAME_REGISTRY ""
CHARSET_COLLECTIONS "ISO8859-2 ISO8859-9 ISO8859-4 ISO10646-1"
FONT_NAME "AvenirNextCondensed-Medium"
FACE_NAME "Avenir Next Condensed Medium"
COPYRIGHT "Copyright (c) 2004 - 2007 Linotype GmbH, www.linotype.com. All rights reserved."
FONT_VERSION "13.0d1e10"
FONT_ASCENT 30
FONT_DESCENT 8
UNDERLINE_POSITION -4
UNDERLINE_THICKNESS 2
X_HEIGHT 18
CAP_HEIGHT 26
DEFAULT_CHAR 1
RAW_ASCENT 800
RAW_DESCENT 200
NORM_SPACE 7
RELATIVE_WEIGHT 50
RELATIVE_SETWIDTH 30
SUPERSCRIPT_X 0
SUPERSCRIPT_Y 18
SUPERSCRIPT_SIZE 24
SUBSCRIPT_X 0
SUBSCRIPT_Y 5
SUBSCRIPT_SIZE 24
AVG_LOWERCASE_WIDTH 153
AVG_UPPERCASE_WIDTH 184
ENDPROPERTIES
CHARS 532
STARTCHAR .null.dup1
ENCODING 0
SWIDTH 190 0
DWIDTH 7 0
BBX 1 1 0 0
BITMAP
00
ENDCHAR
STARTCHAR nonmarkingreturn
ENCODING 13
SWIDTH 0 0
DWIDTH 0 0
BBX 1 1 0 0
BITMAP
00
ENDCHAR
STARTCHAR space
ENCODING 32
SWIDTH 190 0
DWIDTH 7 0
BBX 1 1 0 0
BITMAP
00
ENDCHAR
STARTCHAR exclam
ENCODING 33
SWIDTH 302 0
DWIDTH 11 0
BBX 4 27 4 0
BITMAP
E0
E0
E0
E0
E0
E0
E0
E0
E0
E0
E0
E0
E0
E0
E0
E0
E0
E0
E0
00
00
00
60
F0
F0
F0
60
ENDCHAR
STARTCHAR quotedbl
ENCODING 34
SWIDTH 355 0
DWIDTH 14 0
BBX 8 10 3 17
BITMAP
E7
E7
E7
E7
E7
E7
E7
E7
E7
E7
ENDCHAR
STARTCHAR numbersign
ENCODING 35
SWIDTH 388 0
DWIDTH 15 0
BBX 13 27 1 0
BITMAP
0C60
0C60
0C60
0C60
0C60
0CE0
0CE0
1CC0
1CC0
7FF8
7FF8
18C0
18C0
18C0
18C0
19C0
FFF0
FFF0
3980
3980
3180
3180
3180
3180
3180
3180
3380
ENDCHAR
STARTCHAR dollar
ENCODING 36
SWIDTH 482 0
DWIDTH 18 0
BBX 14 33 2 -3
BITMAP
0300
0300
0300
0FE0
3FF8
7FFC
7B38
F310
E300
E300
E300
E300
F300
7B00
7F00
3F80
1FE0
03F0
03F8
0338
031C
031C
031C
031C
031C
433C
F378
FFF8
7FF0
1FC0
0300
0300
0300
ENDCHAR
STARTCHAR percent
ENCODING 37
SWIDTH 660 0
DWIDTH 25 0
BBX 23 29 1 -1
BITMAP
000100
1E01C0
3F0180
738180
618380
E1C300
E1C300
E1C600
E1C600
E1CE00
E1CC00
638C00
739C00
3F1800
1E3800
0030F0
0031F8
00739C
00670E
00E70E
00C70E
00C70E
01C70E
01870E
01870E
03839C
0301F8
0700F0
020000
ENDCHAR
STARTCHAR ampersand
ENCODING 38
SWIDTH 535 0
DWIDTH 20 0
BBX 18 27 2 0
BITMAP
07C000
0FE000
1FF000
3C7800
383800
383800
383800
383800
383000
187000
1CE000
0FC000
0F0000
3F0380
798700
71C700
E0EE00
E06E00
E07E00
E03C00
E01C00
E03C00
F03E00
78FF00
7FE780
3FC780
0F83C0
ENDCHAR
STARTCHAR quotesingle
ENCODING 39
SWIDTH 223 0
DWIDTH 8 0
BBX 3 10 3 17
BITMAP
E0
E0
E0
E0
E0
E0
E0
E0
E0
E0
ENDCHAR
STARTCHAR parenleft
ENCODING 40
SWIDTH 256 0
DWIDTH 10 0
BBX 7 34 1 -6
BITMAP
0C
0E
1C
1C
38
38
38
70
70
70
70
E0
E0
E0
E0
E0
E0
E0
E0
E0
E0
E0
E0
70
70
70
70
38
38
38
1C
1C
0E
0E
ENDCHAR
STARTCHAR parenright
ENCODING 41
SWIDTH 256 0
DWIDTH 10 0
BBX 7 34 2 -6
BITMAP
60
E0
70
70
30
38
38
1C
1C
1C
1C
1C
0E
0E
0E
0E
0E
0E
0E
0E
0E
0E
0E
1C
1C
1C
1C
38
38
38
70
70
E0
E0
ENDCHAR
STARTCHAR asterisk
ENCODING 42
SWIDTH 435 0
DWIDTH 17 0
BBX 15 14 1 13
BITMAP
0380
0380
0380
0380
638C
7FFC
BFFE
0FE0
07C0
0EE0
1EF0
1C70
3838
0820
ENDCHAR
STARTCHAR plus
ENCODING 43
SWIDTH 666 0
DWIDTH 25 0
BBX 19 19 3 2
BITMAP
00E000
00E000
00E000
00E000
00E000
00E000
00E000
00E000
FFFFE0
FFFFE0
FFFFE0
00E000
00E000
00E000
00E000
00E000
00E000
00E000
00E000
ENDCHAR
STARTCHAR comma
ENCODING 44
SWIDTH 228 0
DWIDTH 8 0
BBX 5 10 1 -5
BITMAP
38
38
30
70
70
70
60
60
E0
E0
ENDCHAR
STARTCHAR hyphen
ENCODING 45
SWIDTH 230 0
DWIDTH 8 0
BBX 6 3 1 9
BITMAP
FC
FC
FC
ENDCHAR
STARTCHAR period
ENCODING 46
SWIDTH 228 0
DWIDTH 9 0
BBX 4 5 2 0
BITMAP
60
F0
F0
F0
60
ENDCHAR
STARTCHAR slash
ENCODING 47
SWIDTH 250 0
DWIDTH 10 0
BBX 9 30 0 -1
BITMAP
0180
0380
0380
0300
0300
0300
0700
0600
0600
0600
0E00
0C00
0C00
0C00
1C00
1C00
1800
1800
1800
3800
3000
3000
3000
7000
6000
6000
6000
E000
E000
C000
ENDCHAR
STARTCHAR zero
ENCODING 48
SWIDTH 482 0
DWIDTH 18 0
BBX 14 27 2 0
BITMAP
0780
1FE0
3FF0
38F0
7878
7038
7038
F038
E01C
E01C
E01C
E01C
E01C
E01C
E01C
E01C
E01C
E01C
E01C
E038
7038
7038
7878
38F0
3FF0
1FE0
0780
ENDCHAR
STARTCHAR one
ENCODING 49
SWIDTH 482 0
DWIDTH 18 0
BBX 9 27 3 0
BITMAP
0780
0F80
1F80
7F80
FB80
F380
6380
8380
0380
0380
0380
0380
0380
0380
0380
0380
0380
0380
0380
0380
0380
0380
0380
0380
0380
0380
0380
ENDCHAR
STARTCHAR two
ENCODING 50
SWIDTH 482 0
DWIDTH 18 0
BBX 13 27 2 0
BITMAP
0F80
3FE0
7FF0
78F0
F078
E038
E038
0038
0038
0038
0070
0070
00F0
01E0
01C0
03C0
0780
0F00
0F00
1E00
3C00
7800
7800
F000
FFF8
FFF8
FFF8
ENDCHAR
STARTCHAR three
ENCODING 51
SWIDTH 482 0
DWIDTH 18 0
BBX 15 27 1 0
BITMAP
07C0
1FF0
3FF8
3C78
783C
101C
001C
001C
001C
0038
0078
03F0
03C0
03F0
0078
001C
001E
000E
000E
000E
000E
F01E
701C
7C3C
3FF8
1FF0
07E0
ENDCHAR
STARTCHAR four
ENCODING 52
SWIDTH 482 0
DWIDTH 18 0
BBX 16 27 1 0
BITMAP
00F8
00F8
00F8
01F8
01B8
03B8
03B8
0738
0738
0E38
0E38
1C38
1C38
3838
3838
7038
7038
F038
FFFF
FFFF
FFFF
0038
0038
0038
0038
0038
0038
ENDCHAR
STARTCHAR five
ENCODING 53
SWIDTH 482 0
DWIDTH 18 0
BBX 14 27 2 0
BITMAP
3FF8
3FF8
3FF8
3800
3800
3800
3800
3800
3800
3800
3FC0
3FF0
3FF8
2078
0038
003C
001C
001C
001C
001C
001C
603C
F038
7878
7FF0
3FE0
0FC0
ENDCHAR
STARTCHAR six
ENCODING 54
SWIDTH 482 0
DWIDTH 18 0
BBX 14 27 2 0
BITMAP
01C0
03C0
0380
0780
0700
0F00
0E00
1E00
1C00
3C00
3BC0
3FF0
7FF0
7878
F038
F03C
E01C
E01C
E01C
E01C
E01C
F03C
7038
7878
3FF0
1FE0
0FC0
ENDCHAR
STARTCHAR seven
ENCODING 55
SWIDTH 482 0
DWIDTH 19 0
BBX 14 27 2 0
BITMAP
FFFC
FFFC
FFFC
003C
0038
0078
0078
0070
00F0
00F0
00E0
01E0
01E0
01C0
03C0
0380
0780
0780
0700
0F00
0F00
0E00
1E00
1E00
1C00
3C00
3C00
ENDCHAR
STARTCHAR eight
ENCODING 56
SWIDTH 482 0
DWIDTH 18 0
BBX 14 27 2 0
BITMAP
07C0
1FF0
3FF8
3C78
783C
701C
701C
701C
701C
7838
3C78
1FF0
0FC0
3FF0
7878
7038
E01C
E01C
E01C
E01C
E01C
E01C
7038
7878
3FF0
1FE0
0FC0
ENDCHAR
STARTCHAR nine
ENCODING 57
SWIDTH 482 0
DWIDTH 18 0
BBX 14 27 2 0
BITMAP
0FC0
1FE0
3FF0
7878
7038
F03C
E01C
E01C
E01C
E01C
E01C
E03C
703C
7878
7FF8
3FF0
0F70
00F0
00E0
01E0
01C0
03C0
0380
0780
0700
0F00
0E00
ENDCHAR
STARTCHAR colon
ENCODING 58
SWIDTH 268 0
DWIDTH 10 0
BBX 3 19 4 0
BITMAP
40
E0
E0
E0
40
00
00
00
00
00
00
00
00
00
40
E0
E0
E0
40
ENDCHAR
STARTCHAR semicolon
ENCODING 59
SWIDTH 254 0
DWIDTH 10 0
BBX 5 24 2 -5
BITMAP
10
38
38
38
10
00
00
00
00
00
00
00
00
00
38
38
70
70
70
60
E0
E0
E0
C0
ENDCHAR
STARTCHAR less
ENCODING 60
SWIDTH 666 0
DWIDTH 25 0
BBX 19 20 3 2
BITMAP
000020
0000E0
0003E0
001FC0
007F00
01FC00
07F000
1FC000
7F0000
FC0000
FC0000
7F0000
1FC000
07F000
01FC00
007F00
001FC0
0003E0
0000E0
000020
ENDCHAR
STARTCHAR equal
ENCODING 61
SWIDTH 666 0
DWIDTH 26 0
BBX 20 9 3 7
BITMAP
FFFFF0
FFFFF0
FFFFF0
000000
000000
000000
FFFFF0
FFFFF0
FFFFF0
ENDCHAR
STARTCHAR greater
ENCODING 62
SWIDTH 666 0
DWIDTH 25 0
BBX 19 20 3 2
BITMAP
800000
E00000
F80000
7F0000
1FC000
07F000
01FC00
007F00
001FC0
0007E0
0007E0
001FC0
007F00
01FC00
07F000
1FC000
7F0000
F80000
E00000
800000
ENDCHAR
STARTCHAR question
ENCODING 63
SWIDTH 381 0
DWIDTH 15 0
BBX 13 27 1 0
BITMAP
07C0
1FE0
3FF0
7870
7078
7038
E038
0038
0038
0070
00F0
01E0
03C0
0780
0700
0F00
0E00
0E00
0E00
0000
0000
0000
0600
0F00
0F00
0F00
0600
ENDCHAR
STARTCHAR at
ENCODING 64
SWIDTH 640 0
DWIDTH 24 0
BBX 22 27 1 0
BITMAP
00FE00
03FF80
0783E0
1E00F0
1C0070
380078
783838
70FDF8
70EF9C
F1C79C
E1C79C
E3879C
E3879C
E3871C
E3871C
E3871C
E38F18
E38F38
71DF30
71F7E0
38E3C0
380000
1C0030
0E0070
0781E0
03FFC0
00FF00
ENDCHAR
STARTCHAR A
ENCODING 65
SWIDTH 487 0
DWIDTH 19 0
BBX 18 27 0 0
BITMAP
01F000
01F000
03F000
03F000
03B800
03B800
073800
073800
071C00
071C00
0F1C00
0E1C00
0E1E00
0E0E00
1E0E00
1C0E00
1C0F00
1C0700
3FFF00
3FFF00
3FFF80
380780
780780
780380
7003C0
7003C0
F003C0
ENDCHAR
STARTCHAR B
ENCODING 66
SWIDTH 500 0
DWIDTH 19 0
BBX 15 27 3 0
BITMAP
FFC0
FFF0
FFF8
E078
E03C
E01C
E01C
E01C
E01C
E03C
E078
FFF0
FFE0
FFF0
E078
E01C
E01C
E00E
E00E
E00E
E00E
E01E
E01E
E07C
FFF8
FFF0
FFC0
ENDCHAR
STARTCHAR C
ENCODING 67
SWIDTH 486 0
DWIDTH 18 0
BBX 16 27 2 0
BITMAP
03F0
0FFC
1FFE
3E1F
3C04
7800
7000
7000
F000
E000
E000
E000
E000
E000
E000
E000
E000
E000
F000
7000
7000
7808
3C04
3E1E
1FFE
0FFC
03F0
ENDCHAR
STARTCHAR D
ENCODING 68
SWIDTH 553 0
DWIDTH 21 0
BBX 16 27 3 0
BITMAP
FF80
FFE0
FFF8
E0F8
E03C
E01E
E00E
E00E
E00F
E007
E007
E007
E007
E007
E007
E007
E007
E007
E00F
E00E
E00E
E01E
E03C
E0F8
FFF8
FFE0
FF80
ENDCHAR
STARTCHAR E
ENCODING 69
SWIDTH 426 0
DWIDTH 16 0
BBX 11 27 3 0
BITMAP
FFE0
FFE0
FFE0
E000
E000
E000
E000
E000
E000
E000
E000
E000
FFC0
FFC0
FFC0
E000
E000
E000
E000
E000
E000
E000
E000
E000
FFE0
FFE0
FFE0
ENDCHAR
STARTCHAR F
ENCODING 70
SWIDTH 405 0
DWIDTH 15 0
BBX 11 27 3 0
BITMAP
FFE0
FFE0
FFE0
E000
E000
E000
E000
E000
E000
E000
E000
E000
FFC0
FFC0
FFC0
E000
E000
E000
E000
E000
E000
E000
E000
E000
E000
E000
E000
ENDCHAR
STARTCHAR G
ENCODING 71
SWIDTH 541 0
DWIDTH 20 0
BBX 16 27 2 0
BITMAP
03F0
0FFC
1FFE
3E1F
3C04
7800
7000
7000
F000
E000
E000
E000
E07F
E07F
E07F
E007
E007
E007
7007
7007
7007
7807
3C07
1E0F
1FFF
07FE
01F8
ENDCHAR
STARTCHAR H
ENCODING 72
SWIDTH 583 0
DWIDTH 22 0
BBX 16 27 3 0
BITMAP
E007
E007
E007
E007
E007
E007
E007
E007
E007
E007
E007
E007
FFFF
FFFF
FFFF
E007
E007
E007
E007
E007
E007
E007
E007
E007
E007
E007
E007
ENDCHAR
STARTCHAR I
ENCODING 73
SWIDTH 246 0
DWIDTH 9 0
BBX 3 27 3 0
BITMAP
E0
E0
E0
E0
E0
E0
E0
E0
E0
E0
E0
E0
E0
E0
E0
E0
E0
E0
E0
E0
E0
E0
E0
E0
E0
E0
E0
ENDCHAR
STARTCHAR J
ENCODING 74
SWIDTH 395 0
DWIDTH 15 0
BBX 12 27 0 0
BITMAP
0070
0070
0070
0070
0070
0070
0070
0070
0070
0070
0070
0070
0070
0070
0070
0070
0070
0070
0070
0070
0070
2070
E0F0
F0E0
7FE0
3FC0
1F80
ENDCHAR
STARTCHAR K
ENCODING 75
SWIDTH 499 0
DWIDTH 19 0
BBX 15 27 3 0
BITMAP
E03E
E03C
E078
E070
E0F0
E1E0
E1C0
E3C0
E780
E700
EF00
FE00
FC00
FE00
EE00
EF00
E780
E380
E3C0
E1E0
E1E0
E0F0
E078
E078
E03C
E03C
E01E
ENDCHAR
STARTCHAR L
ENCODING 76
SWIDTH 373 0
DWIDTH 14 0
BBX 11 27 3 0
BITMAP
E000
E000
E000
E000
E000
E000
E000
E000
E000
E000
E000
E000
E000
E000
E000
E000
E000
E000
E000
E000
E000
E000
E000
E000
FFE0
FFE0
FFE0
ENDCHAR
STARTCHAR M
ENCODING 77
SWIDTH 729 0
DWIDTH 27 0
BBX 21 27 3 0
BITMAP
F800F8
F800F8
F801F8
FC01F8
FC01F8
FC01F8
FC03F8
EE03B8
EE03B8
EE03B8
E60738
E70738
E70738
E70738
E30E38
E38E38
E38E38
E38E38
E19C38
E1DC38
E1DC38
E1DC38
E0F838
E0F838
E0F838
E07038
E07038
ENDCHAR
STARTCHAR N
ENCODING 78
SWIDTH 573 0
DWIDTH 22 0
BBX 16 27 3 0
BITMAP
F007
F807
F807
FC07
FC07
FC07
FE07
EE07
EF07
EF07
E787
E787
E387
E3C7
E1C7
E1E7
E1E7
E0E7
E0F7
E077
E07F
E03F
E03F
E03F
E01F
E01F
E00F
ENDCHAR
STARTCHAR O
ENCODING 79
SWIDTH 579 0
DWIDTH 22 0
BBX 18 27 2 0
BITMAP
03F000
0FFC00
1FFE00
3E1E00
3C0F00
780780
700380
700380
F00380
E001C0
E001C0
E001C0
E001C0
E001C0
E001C0
E001C0
E001C0
E001C0
7003C0
700380
700380
780780
3C0F00
1E1E00
1FFE00
0FFC00
03F000
ENDCHAR
STARTCHAR P
ENCODING 80
SWIDTH 475 0
DWIDTH 18 0
BBX 14 27 3 0
BITMAP
FFC0
FFE0
FFF0
E078
E038
E01C
E01C
E01C
E01C
E01C
E01C
E038
E078
FFF0
FFE0
FF80
E000
E000
E000
E000
E000
E000
E000
E000
E000
E000
E000
ENDCHAR
STARTCHAR Q
ENCODING 81
SWIDTH 584 0
DWIDTH 22 0
BBX 19 27 2 0
BITMAP
03F000
07F800
1FFE00
1E1E00
3C0F00
780780
700380
700380
700380
E001C0
E001C0
E001C0
E001C0
E001C0
E001C0
E001C0
E001C0
E001C0
F00380
700380
700380
780700
3C0E00
1E1C00
1FFFE0
0FFFE0
03FFE0
ENDCHAR
STARTCHAR R
ENCODING 82
SWIDTH 492 0
DWIDTH 19 0
BBX 14 27 3 0
BITMAP
FFC0
FFF0
FFF8
E078
E03C
E01C
E01C
E01C
E01C
E01C
E038
E078
FFF0
FFE0
FFC0
E3C0
E1C0
E1E0
E0E0
E0F0
E0F0
E070
E078
E038
E03C
E03C
E01C
ENDCHAR
STARTCHAR S
ENCODING 83
SWIDTH 440 0
DWIDTH 17 0
BBX 14 27 1 0
BITMAP
07E0
0FF8
1FFC
3C38
7810
7000
7000
7000
7000
7800
3C00
3E00
1F80
0FE0
03F0
00F8
0078
003C
001C
001C
001C
001C
603C
7878
FFF8
3FF0
0FC0
ENDCHAR
STARTCHAR T
ENCODING 84
SWIDTH 359 0
DWIDTH 14 0
BBX 13 27 0 0
BITMAP
FFF8
FFF8
FFF8
0700
0700
0700
0700
0700
0700
0700
0700
0700
0700
0700
0700
0700
0700
0700
0700
0700
0700
0700
0700
0700
0700
0700
0700
ENDCHAR
STARTCHAR U
ENCODING 85
SWIDTH 557 0
DWIDTH 21 0
BBX 15 27 3 0
BITMAP
E00E
E00E
E00E
E00E
E00E
E00E
E00E
E00E
E00E
E00E
E00E
E00E
E00E
E00E
E00E
E00E
E00E
E00E
E00E
E00E
E00E
F01E
701C
783C
3FF8
1FF0
07C0
ENDCHAR
STARTCHAR V
ENCODING 86
SWIDTH 477 0
DWIDTH 18 0
BBX 18 27 0 0
BITMAP
F003C0
7003C0
780380
780780
780780
380780
380700
3C0700
3C0F00
1C0F00
1C0E00
1E0E00
1E1E00
1E1E00
0E1C00
0E1C00
0F1C00
0F3C00
073800
073800
07B800
07F800
03F000
03F000
03F000
03F000
01E000
ENDCHAR
STARTCHAR W
ENCODING 87
SWIDTH 744 0
DWIDTH 28 0
BBX 27 27 1 0
BITMAP
E01E01E0
E01F01E0
F01F01C0
F01F01C0
F03F01C0
703F03C0
703F03C0
703B8380
783B8380
78338380
38738380
38738780
3871C700
3871C700
3C61C700
1CE1C700
1CE1C700
1CE1EE00
1CE0EE00
1CE0EE00
1FC0EE00
0FC0EE00
0FC0EC00
0FC07C00
0FC07C00
0F807C00
07807C00
ENDCHAR
STARTCHAR X
ENCODING 88
SWIDTH 469 0
DWIDTH 18 0
BBX 18 27 0 0
BITMAP
780780
380700
3C0F00
1C0E00
1C1E00
0E1C00
0E1C00
0F3800
073800
07F000
03F000
03E000
01E000
01E000
03F000
03F000
077800
073800
0F3C00
0E1C00
1E1E00
1C1E00
3C0E00
380F00
780700
700780
F003C0
ENDCHAR
STARTCHAR Y
ENCODING 89
SWIDTH 437 0
DWIDTH 17 0
BBX 17 27 0 0
BITMAP
F00780
780700
780F00
380E00
3C1E00
1C1C00
1C1C00
1E3C00
0E3800
0E3800
077000
077000
077000
03E000
03E000
01C000
01C000
01C000
01C000
01C000
01C000
01C000
01C000
01C000
01C000
01C000
01C000
ENDCHAR
STARTCHAR Z
ENCODING 90
SWIDTH 411 0
DWIDTH 16 0
BBX 13 27 1 0
BITMAP
7FF8
7FF8
7FF8
0078
0078
00F0
00F0
01E0
01E0
01C0
03C0
0380
0780
0700
0F00
0F00
1E00
1E00
3C00
3C00
3800
7800
7000
F000
FFF8
FFF8
FFF8
ENDCHAR
STARTCHAR bracketleft
ENCODING 91
SWIDTH 254 0
DWIDTH 10 0
BBX 6 34 1 -6
BITMAP
FC
FC
E0
E0
E0
E0
E0
E0
E0
E0
E0
E0
E0
E0
E0
E0
E0
E0
E0
E0
E0
E0
E0
E0
E0
E0
E0
E0
E0
E0
E0
E0
FC
FC
ENDCHAR
STARTCHAR backslash
ENCODING 92
SWIDTH 250 0
DWIDTH 10 0
BBX 9 30 0 -1
BITMAP
C000
E000
E000
6000
6000
6000
7000
3000
3000
3000
3800
1800
1800
1800
1C00
1C00
0C00
0C00
0C00
0E00
0600
0600
0600
0700
0300
0300
0300
0380
0380
0180
ENDCHAR
STARTCHAR bracketright
ENCODING 93
SWIDTH 254 0
DWIDTH 9 0
BBX 6 34 2 -6
BITMAP
FC
FC
1C
1C
1C
1C
1C
1C
1C
1C
1C
1C
1C
1C
1C
1C
1C
1C
1C
1C
1C
1C
1C
1C
1C
1C
1C
1C
1C
1C
1C
1C
FC
FC
ENDCHAR
STARTCHAR asciicircum
ENCODING 94
SWIDTH 666 0
DWIDTH 26 0
BBX 20 15 3 12
BITMAP
00F000
00F000
01F800
01F800
03FC00
039C00
070E00
0F0F00
0E0700
1E0780
1C0380
3C03C0
3801C0
7000E0
F000F0
ENDCHAR
STARTCHAR underscore
ENCODING 95
SWIDTH 500 0
DWIDTH 19 0
BBX 19 2 0 -5
BITMAP
FFFFE0
FFFFE0
ENDCHAR
STARTCHAR grave
ENCODING 96
SWIDTH 235 0
DWIDTH 9 0
BBX 7 5 0 22
BITMAP
F0
70
38
1C
0E
ENDCHAR
STARTCHAR a
ENCODING 97
SWIDTH 415 0
DWIDTH 15 0
BBX 12 19 1 0
BITMAP
0F80
3FC0
7FE0
70E0
0070
0070
0070
0FF0
3FF0
7870
7070
E070
E070
E0F0
E0F0
F1F0
7FF0
7F70
1E70
ENDCHAR
STARTCHAR b
ENCODING 98
SWIDTH 480 0
DWIDTH 18 0
BBX 13 28 3 0
BITMAP
E000
E000
E000
E000
E000
E000
E000
E000
E000
E780
EFE0
FFE0
F8F0
F070
F078
E038
E038
E038
E038
E038
E038
E038
F078
F070
F8F0
FFE0
EFE0
E780
ENDCHAR
STARTCHAR c
ENCODING 99
SWIDTH 344 0
DWIDTH 13 0
BBX 11 19 2 0
BITMAP
0F80
3FE0
3FC0
7880
7000
F000
E000
E000
E000
E000
E000
E000
E000
F000
7000
7840
3FC0
3FE0
0F80
ENDCHAR
STARTCHAR d
ENCODING 100
SWIDTH 480 0
DWIDTH 18 0
BBX 13 28 2 0
BITMAP
0038
0038
0038
0038
0038
0038
0038
0038
0038
0F38
3FB8
3FF8
78F8
7078
F078
E038
E038
E038
E038
E038
E038
E038
F078
7078
78F8
3FF8
3FB8
0F38
ENDCHAR
STARTCHAR e
ENCODING 101
SWIDTH 439 0
DWIDTH 17 0
BBX 13 19 2 0
BITMAP
0F80
1FE0
3FF0
78F0
7070
6038
E038
FFF8
FFF8
FFF8
E000
E000
E000
F040
7070
78F0
3FE0
1FE0
0F80
ENDCHAR
STARTCHAR f
ENCODING 102
SWIDTH 250 0
DWIDTH 10 0
BBX 9 30 1 0
BITMAP
0780
0F80
1F80
3C00
3800
3800
3800
3800
3800
3800
3800
FF00
FF00
FF00
3800
3800
3800
3800
3800
3800
3800
3800
3800
3800
3800
3800
3800
3800
3800
3800
ENDCHAR
STARTCHAR g
ENCODING 103
SWIDTH 480 0
DWIDTH 18 0
BBX 13 29 2 -9
BITMAP
0600
1FB8
3FB8
78F8
7078
F078
E038
E038
E038
E038
E038
E038
E038
E038
F078
7078
78F8
3FF8
3FB8
0F38
0038
0038
0038
0038
6070
F0F0
FFE0
3FE0
1F80
ENDCHAR
STARTCHAR h
ENCODING 104
SWIDTH 482 0
DWIDTH 18 0
BBX 12 28 3 0
BITMAP
E000
E000
E000
E000
E000
E000
E000
E000
E000
E780
EFE0
FFE0
F8F0
F070
F070
E070
E070
E070
E070
E070
E070
E070
E070
E070
E070
E070
E070
E070
ENDCHAR
STARTCHAR i
ENCODING 105
SWIDTH 232 0
DWIDTH 9 0
BBX 3 27 2 0
BITMAP
40
E0
E0
E0
40
00
00
00
E0
E0
E0
E0
E0
E0
E0
E0
E0
E0
E0
E0
E0
E0
E0
E0
E0
E0
E0
ENDCHAR
STARTCHAR j
ENCODING 106
SWIDTH 233 0
DWIDTH 9 0
BBX 7 36 -1 -9
BITMAP
04
0E
0E
0E
04
00
00
00
0E
0E
0E
0E
0E
0E
0E
0E
0E
0E
0E
0E
0E
0E
0E
0E
0E
0E
0E
0E
0E
0E
0E
0E
1E
FC
FC
F0
ENDCHAR
STARTCHAR k
ENCODING 107
SWIDTH 421 0
DWIDTH 16 0
BBX 13 29 3 0
BITMAP
E000
E000
E000
E000
E000
E000
E000
E000
E000
E000
E0F0
E0E0
E1E0
E3C0
E380
E700
EF00
EE00
FC00
FC00
EE00
EF00
E700
E380
E3C0
E1C0
E1E0
E0F0
E078
ENDCHAR
STARTCHAR l
ENCODING 108
SWIDTH 232 0
DWIDTH 9 0
BBX 3 29 3 0
BITMAP
E0
E0
E0
E0
E0
E0
E0
E0
E0
E0
E0
E0
E0
E0
E0
E0
E0
E0
E0
E0
E0
E0
E0
E0
E0
E0
E0
E0
E0
ENDCHAR
STARTCHAR m
ENCODING 109
SWIDTH 729 0
DWIDTH 28 0
BBX 22 19 3 0
BITMAP
07C1E0
EFE7F8
EFEFF8
F8FC3C
F0781C
E0781C
E0701C
E0701C
E0701C
E0701C
E0701C
E0701C
E0701C
E0701C
E0701C
E0701C
E0701C
E0701C
E0701C
ENDCHAR
STARTCHAR n
ENCODING 110
SWIDTH 483 0
DWIDTH 18 0
BBX 12 19 3 0
BITMAP
E3C0
EFE0
EFE0
F8F0
F070
F070
E070
E070
E070
E070
E070
E070
E070
E070
E070
E070
E070
E070
E070
ENDCHAR
STARTCHAR o
ENCODING 111
SWIDTH 455 0
DWIDTH 17 0
BBX 13 19 2 0
BITMAP
0F80
1FC0
3FE0
78F0
7070
F078
E038
E038
E038
E038
E038
E038
E038
F078
7070
78F0
3FE0
1FC0
0F80
ENDCHAR
STARTCHAR p
ENCODING 112
SWIDTH 480 0
DWIDTH 18 0
BBX 13 28 3 -9
BITMAP
E780
EFE0
FFE0
F8F0
F070
F078
E038
E038
E038
E038
E038
E038
E038
F078
F070
F8F0
FFE0
EFE0
E780
E000
E000
E000
E000
E000
E000
E000
E000
E000
ENDCHAR
STARTCHAR q
ENCODING 113
SWIDTH 480 0
DWIDTH 18 0
BBX 13 28 2 -9
BITMAP
0F38
3FB8
3FF8
78F8
7078
F078
E038
E038
E038
E038
E038
E038
E038
F078
7078
78F8
3FF8
3FB8
0F38
0038
0038
0038
0038
0038
0038
0038
0038
0038
ENDCHAR
STARTCHAR r
ENCODING 114
SWIDTH 285 0
DWIDTH 11 0
BBX 8 19 3 0
BITMAP
07
EF
EE
F8
F0
F0
E0
E0
E0
E0
E0
E0
E0
E0
E0
E0
E0
E0
E0
ENDCHAR
STARTCHAR s
ENCODING 115
SWIDTH 353 0
DWIDTH 13 0
BBX 11 19 1 0
BITMAP
0F80
3FC0
3FE0
78C0
7080
7000
7000
3800
3E00
0F80
03C0
01E0
00E0
00E0
40E0
E1E0
FFC0
7F80
1F00
ENDCHAR
STARTCHAR t
ENCODING 116
SWIDTH 264 0
DWIDTH 10 0
BBX 8 24 1 0
BITMAP
38
38
38
38
38
FF
FF
FF
38
38
38
38
38
38
38
38
38
38
38
38
3C
3F
1F
0F
ENDCHAR
STARTCHAR u
ENCODING 117
SWIDTH 483 0
DWIDTH 18 0
BBX 12 20 3 0
BITMAP
E070
E070
E070
E070
E070
E070
E070
E070
E070
E070
E070
E070
E070
E070
E0F0
E0F0
F1F0
7FF0
7F70
3E70
ENDCHAR
STARTCHAR v
ENCODING 118
SWIDTH 396 0
DWIDTH 15 0
BBX 14 19 1 0
BITMAP
E03C
E038
F038
F078
7070
7070
7070
38F0
38E0
38E0
38E0
1CC0
1DC0
1DC0
1DC0
0F80
0F80
0F80
0780
ENDCHAR
STARTCHAR w
ENCODING 119
SWIDTH 600 0
DWIDTH 23 0
BBX 21 19 1 0
BITMAP
E07038
E07078
F0F078
70F870
70F870
70D870
70D870
71D8E0
399CE0
399CE0
398CE0
398CE0
3B8CC0
1B0FC0
1F0FC0
1F07C0
1F07C0
1F0780
0E0780
ENDCHAR
STARTCHAR x
ENCODING 120
SWIDTH 392 0
DWIDTH 15 0
BBX 13 19 1 0
BITMAP
F078
7070
78F0
38E0
3DE0
1DC0
1DC0
0F80
0F80
0F80
0F80
1FC0
1DC0
3DE0
38E0
78F0
7070
F078
E038
ENDCHAR
STARTCHAR y
ENCODING 121
SWIDTH 396 0
DWIDTH 15 0
BBX 14 28 1 -9
BITMAP
E03C
E038
F038
7078
7070
7070
7870
38F0
38E0
38E0
1CE0
1CC0
1DC0
1DC0
0FC0
0F80
0F80
0780
0780
0700
0700
0700
0F00
0E00
1E00
FC00
FC00
F000
ENDCHAR
STARTCHAR z
ENCODING 122
SWIDTH 347 0
DWIDTH 13 0
BBX 11 19 1 0
BITMAP
7FE0
7FE0
7FE0
01E0
01C0
0380
0380
0700
0700
0E00
0C00
1C00
3800
3800
7000
7000
FFE0
FFE0
FFE0
ENDCHAR
STARTCHAR braceleft
ENCODING 123
SWIDTH 254 0
DWIDTH 10 0
BBX 9 34 0 -6
BITMAP
0780
0F80
1E00
1C00
1C00
1C00
1C00
1C00
1C00
1C00
1C00
1C00
1C00
1C00
1C00
3800
F000
E000
F800
3800
1C00
1C00
1C00
1C00
1C00
1C00
1C00
1C00
1C00
1C00
1C00
1E00
0F80
0780
ENDCHAR
STARTCHAR bar
ENCODING 124
SWIDTH 222 0
DWIDTH 8 0
BBX 3 38 3 -10
BITMAP
E0
E0
E0
E0
E0
E0
E0
E0
E0
E0
E0
E0
E0
E0
E0
E0
E0
E0
E0
E0
E0
E0
E0
E0
E0
E0
E0
E0
E0
E0
E0
E0
E0
E0
E0
E0
E0
E0
ENDCHAR
STARTCHAR braceright
ENCODING 125
SWIDTH 254 0
DWIDTH 10 0
BBX 9 34 2 -6
BITMAP
F000
F800
3800
1C00
1C00
1C00
1C00
1C00
1C00
1C00
1C00
1C00
1C00
1C00
1C00
0E00
0780
0780
0F80
1E00
1C00
1C00
1C00
1C00
1C00
1C00
1C00
1C00
1C00
1C00
1C00
3C00
F800
F000
ENDCHAR
STARTCHAR asciitilde
ENCODING 126
SWIDTH 666 0
DWIDTH 25 0
BBX 19 6 3 9
BITMAP
000080
1F80C0
7FE1E0
FFFFC0
70FF80
203F00
ENDCHAR
STARTCHAR uni00A0
ENCODING 160
SWIDTH 190 0
DWIDTH 7 0
BBX 1 1 0 0
BITMAP
00
ENDCHAR
STARTCHAR exclamdown
ENCODING 161
SWIDTH 302 0
DWIDTH 11 0
BBX 4 27 4 -7
BITMAP
60
F0
F0
F0
60
00
00
00
00
E0
E0
E0
E0
E0
E0
E0
E0
E0
E0
E0
E0
E0
E0
E0
E0
E0
E0
ENDCHAR
STARTCHAR cent
ENCODING 162
SWIDTH 482 0
DWIDTH 18 0
BBX 12 24 3 -2
BITMAP
0300
0300
0300
0FC0
1FF0
3FF0
7B20
7300
F300
E300
E300
E300
E300
E300
E300
E300
F300
7300
7B20
3FF0
1FF0
0FC0
0300
0300
ENDCHAR
STARTCHAR sterling
ENCODING 163
SWIDTH 482 0
DWIDTH 18 0
BBX 15 27 2 0
BITMAP
01F8
03FC
07FE
0F08
0E00
1C00
1C00
1C00
1C00
1C00
1C00
1C00
FFE0
FFE0
FFE0
1C00
1C00
1C00
1C00
1C00
1C00
1C00
1C00
1C00
FFF8
FFF8
FFF8
ENDCHAR
STARTCHAR currency
ENCODING 164
SWIDTH 482 0
DWIDTH 18 0
BBX 17 21 1 0
BITMAP
400300
E18300
EFF780
7FFE00
3C3C00
381C00
380E00
700E00
700E00
700E00
700E00
700E00
700E00
780E00
381E00
3C3C00
3FFE00
7FFE00
E7E700
E00380
400200
ENDCHAR
STARTCHAR yen
ENCODING 165
SWIDTH 482 0
DWIDTH 18 0
BBX 17 27 1 0
BITMAP
F00780
700700
380F00
380E00
3C0E00
1C1C00
1C1C00
0E3800
0E3800
073000
077000
037000
3FFE00
3FFE00
01C000
01C000
01C000
01C000
3FFE00
3FFE00
01C000
01C000
01C000
01C000
01C000
01C000
01C000
ENDCHAR
STARTCHAR brokenbar
ENCODING 166
SWIDTH 222 0
DWIDTH 8 0
BBX 3 32 3 -7
BITMAP
E0
E0
E0
E0
E0
E0
E0
E0
E0
E0
E0
E0
E0
00
00
00
00
00
00
E0
E0
E0
E0
E0
E0
E0
E0
E0
E0
E0
E0
E0
ENDCHAR
STARTCHAR section
ENCODING 167
SWIDTH 488 0
DWIDTH 18 0
BBX 15 34 1 -6
BITMAP
03F0
0FF8
1FFC
1E1E
3C08
3800
3800
3800
3C00
1E00
0F80
0FE0
1FF0
3878
703C
701E
700E
700E
780E
3C1E
3F3C
1FF8
07F0
00F0
0078
003C
001C
001C
001C
203C
7878
FFF8
3FF0
0FC0
ENDCHAR
STARTCHAR dieresis
ENCODING 168
SWIDTH 235 0
DWIDTH 8 0
BBX 9 3 0 23
BITMAP
E380
E380
E380
ENDCHAR
STARTCHAR copyright
ENCODING 169
SWIDTH 640 0
DWIDTH 25 0
BBX 24 29 0 -1
BITMAP
007E00
03FFC0
0781E0
0E0070
1C0038
38001C
381E1C
707F0E
70FF8E
70E30E
E0E007
E1C007
E1C007
E1C007
E1C007
E1C007
E1C007
E1C007
E0E207
70E30E
70FF8E
707F0E
381E1C
38001C
1C0038
0E0070
0781E0
03FFC0
00FE00
ENDCHAR
STARTCHAR ordfeminine
ENCODING 170
SWIDTH 304 0
DWIDTH 12 0
BBX 8 12 2 15
BITMAP
7C
FE
47
07
3F
7F
E7
E7
E7
EF
FF
77
ENDCHAR
STARTCHAR guillemotleft
ENCODING 171
SWIDTH 362 0
DWIDTH 14 0
BBX 11 17 1 1
BITMAP
0840
1C60
1CE0
38C0
39C0
7180
7380
6380
E300
7380
3180
39C0
39C0
18C0
1CE0
0860
0040
ENDCHAR
STARTCHAR logicalnot
ENCODING 172
SWIDTH 666 0
DWIDTH 25 0
BBX 20 11 3 5
BITMAP
FFFFF0
FFFFF0
FFFFF0
000070
000070
000070
000070
000070
000070
000070
000070
ENDCHAR
STARTCHAR uni00AD
ENCODING 173
SWIDTH 230 0
DWIDTH 8 0
BBX 6 3 1 9
BITMAP
FC
FC
FC
ENDCHAR
STARTCHAR registered
ENCODING 174
SWIDTH 480 0
DWIDTH 18 0
BBX 12 17 3 10
BITMAP
0F00
30C0
2040
5F20
5FA0
9990
9990
9990
9F90
9F10
9B10
9B10
59A0
59A0
2040
30C0
0F00
ENDCHAR
STARTCHAR macron
ENCODING 175
SWIDTH 235 0
DWIDTH 8 0
BBX 10 2 -1 23
BITMAP
FFC0
FFC0
ENDCHAR
STARTCHAR degree
ENCODING 176
SWIDTH 320 0
DWIDTH 14 0
BBX 11 12 1 15
BITMAP
1F00
3F80
71C0
E1E0
E0E0
E0E0
E0E0
E0E0
E1E0
71C0
3F80
1F00
ENDCHAR
STARTCHAR plusminus
ENCODING 177
SWIDTH 666 0
DWIDTH 25 0
BBX 20 20 3 2
BITMAP
00E000
00E000
00E000
00E000
00E000
00E000
FFFFE0
FFFFE0
FFFFE0
00E000
00E000
00E000
00E000
00E000
00E000
000000
000000
FFFFF0
FFFFF0
FFFFF0
ENDCHAR
STARTCHAR twosuperior
ENCODING 178
SWIDTH 320 0
DWIDTH 12 0
BBX 10 16 1 11
BITMAP
1F00
7F80
73C0
E1C0
01C0
01C0
03C0
0780
0780
0F00
1E00
3C00
7800
F000
FFC0
FFC0
ENDCHAR
STARTCHAR threesuperior
ENCODING 179
SWIDTH 320 0
DWIDTH 12 0
BBX 10 17 1 10
BITMAP
1E00
7F80
73C0
21C0
01C0
01C0
0380
0F00
0F00
0380
01C0
01C0
01C0
C1C0
E380
7F80
3E00
ENDCHAR
STARTCHAR acute
ENCODING 180
SWIDTH 235 0
DWIDTH 10 0
BBX 7 5 2 22
BITMAP
1E
1C
38
70
E0
ENDCHAR
STARTCHAR mu
ENCODING 181
SWIDTH 578 0
DWIDTH 21 0
BBX 15 28 3 -9
BITMAP
E00E
E00E
E00E
E00E
E00E
E00E
E00E
E00E
E00E
E00E
E00E
E00E
E00E
E01E
F01E
F87E
FFFE
FFEE
EF8E
E000
E000
E000
E000
E000
E000
E000
E000
E000
ENDCHAR
STARTCHAR paragraph
ENCODING 182
SWIDTH 600 0
DWIDTH 23 0
BBX 18 31 2 -4
BITMAP
07FFC0
1FFFC0
7FE1C0
7FE1C0
FFE1C0
FFE1C0
FFE1C0
FFE1C0
FFE1C0
FFE1C0
7FE1C0
3FE1C0
1FE1C0
07E1C0
00E1C0
00E1C0
00E1C0
00E1C0
00E1C0
00E1C0
00E1C0
00E1C0
00E1C0
00E1C0
00E1C0
00E1C0
00E1C0
00E1C0
00E1C0
00E1C0
00E1C0
ENDCHAR
STARTCHAR periodcentered
ENCODING 183
SWIDTH 228 0
DWIDTH 9 0
BBX 4 5 2 7
BITMAP
60
F0
F0
F0
60
ENDCHAR
STARTCHAR cedilla
ENCODING 184
SWIDTH 235 0
DWIDTH 10 0
BBX 8 10 1 -9
BITMAP
18
10
30
7C
7F
07
07
8F
FE
FC
ENDCHAR
STARTCHAR onesuperior
ENCODING 185
SWIDTH 320 0
DWIDTH 12 0
BBX 7 17 2 10
BITMAP
1E
3E
7E
FE
4E
0E
0E
0E
0E
0E
0E
0E
0E
0E
0E
0E
0E
ENDCHAR
STARTCHAR ordmasculine
ENCODING 186
SWIDTH 304 0
DWIDTH 12 0
BBX 9 12 2 15
BITMAP
3C00
7F00
7700
E380
E380
E380
E380
E380
E380
7700
7F00
3E00
ENDCHAR
STARTCHAR guillemotright
ENCODING 187
SWIDTH 362 0
DWIDTH 14 0
BBX 11 17 1 1
BITMAP
6100
E300
6380
7180
31C0
38C0
18E0
1CE0
1C60
18E0
38C0
31C0
71C0
7180
6380
E300
0100
ENDCHAR
STARTCHAR onequarter
ENCODING 188
SWIDTH 740 0
DWIDTH 29 0
BBX 25 29 2 -1
BITMAP
00010000
1E00C000
3E01C000
7E018000
FE018000
EE038000
8E030000
0E030000
0E060000
0E060000
0E0E0000
0E0C1E00
0E0C3E00
0E1C3E00
0E187E00
0E386E00
0E30EE00
0E30EE00
0071CE00
0061CE00
0061CE00
00C38E00
00C38E00
01C3FF80
0183FF80
01800E00
03800E00
03000E00
01000000
ENDCHAR
STARTCHAR onehalf
ENCODING 189
SWIDTH 740 0
DWIDTH 28 0
BBX 24 29 2 -1
BITMAP
000100
1E00C0
3E01C0
7E0180
FE0180
EE0380
8E0300
0E0300
0E0600
0E0600
0E0E00
0E0C7C
0E0DFE
0E1DCF
0E1B87
0E3807
0E3007
0E300F
00700E
00601E
00603C
00C078
00C070
01C0E0
0181E0
0183C0
0383FF
0303FF
010000
ENDCHAR
STARTCHAR threequarters
ENCODING 190
SWIDTH 740 0
DWIDTH 29 0
BBX 26 29 1 -1
BITMAP
00008000
1E006000
7F80E000
73C0C000
21C0C000
01C1C000
01C18000
03818000
0F030000
0F030000
03870000
01C60F00
01C61F00
01CE1F00
C1CC3F00
E39C3700
7F987700
3E187700
0038E700
0030E700
0030C700
0061C700
0061C700
00E1FFC0
00C1FFC0
00C00700
01C00700
01800700
00800000
ENDCHAR
STARTCHAR questiondown
ENCODING 191
SWIDTH 381 0
DWIDTH 14 0
BBX 13 28 1 -8
BITMAP
0600
0F00
0F00
0F00
0600
0000
0000
0000
0000
0700
0700
0700
0700
0E00
1E00
3C00
7800
7000
F000
E000
E000
E030
E078
F070
70F0
7FE0
3FC0
1F80
ENDCHAR
STARTCHAR Agrave
ENCODING 192
SWIDTH 487 0
DWIDTH 19 0
BBX 18 34 0 0
BITMAP
070000
038000
01C000
01C000
00E000
000000
000000
01F000
01F000
03F000
03F000
03B800
03B800
073800
073800
071C00
071C00
0F1C00
0E1C00
0E1E00
0E0E00
1E0E00
1C0E00
1C0F00
1C0700
3FFF00
3FFF00
3FFF80
380780
780780
780380
7003C0
7003C0
F003C0
ENDCHAR
STARTCHAR Aacute
ENCODING 193
SWIDTH 487 0
DWIDTH 19 0
BBX 18 34 0 0
BITMAP
001C00
003800
007000
00E000
00C000
010000
000000
01F000
01F000
03F000
03F000
03B800
03B800
073800
073800
071C00
071C00
0F1C00
0E1C00
0E1E00
0E0E00
1E0E00
1C0E00
1C0F00
1C0700
3FFF00
3FFF00
3FFF80
380780
780780
780380
7003C0
7003C0
F003C0
ENDCHAR
STARTCHAR Acircumflex
ENCODING 194
SWIDTH 487 0
DWIDTH 19 0
BBX 18 34 0 0
BITMAP
01E000
01B000
033800
071C00
0E0C00
000200
000000
01F000
01F000
03F000
03F000
03B800
03B800
073800
073800
071C00
071C00
0F1C00
0E1C00
0E1E00
0E0E00
1E0E00
1C0E00
1C0F00
1C0700
3FFF00
3FFF00
3FFF80
380780
780780
780380
7003C0
7003C0
F003C0
ENDCHAR
STARTCHAR Atilde
ENCODING 195
SWIDTH 487 0
DWIDTH 19 0
BBX 19 33 0 0
BITMAP
078600
0FFE00
0C3C00
000000
000000
000000
01F000
01F000
03F000
03B000
03B800
03B800
07B800
071800
071C00
071C00
0F1C00
0E1C00
0E0E00
0E0E00
1E0E00
1E0F00
1C0700
1C0700
3FFF00
3FFF80
3FFF80
380780
780780
7803C0
7003C0
7003C0
F001E0
ENDCHAR
STARTCHAR Adieresis
ENCODING 196
SWIDTH 487 0
DWIDTH 17 0
BBX 18 34 0 0
BITMAP
073800
073800
073800
000000
000000
000000
000000
01F000
01F000
03F000
03F000
03F800
033800
073800
073800
073C00
063C00
0E1C00
0E1C00
0E1E00
0C1E00
1C0E00
1C0E00
1C0F00
1C0F00
3FFF00
3FFF00
3FFF80
380780
780780
780380
7003C0
7003C0
F003C0
ENDCHAR
STARTCHAR Aring
ENCODING 197
SWIDTH 487 0
DWIDTH 19 0
BBX 17 37 1 0
BITMAP
01C000
03E000
077000
063000
063000
063000
077000
03E000
01C000
000000
01C000
01C000
03E000
036000
036000
036000
077000
063000
063000
063000
0E3800
0C3800
0C1800
0C1C00
1C1C00
1C1C00
180C00
180E00
3FFE00
3FFE00
3FFE00
380F00
780F00
780700
700700
700780
F00780
ENDCHAR
STARTCHAR AE
ENCODING 198
SWIDTH 649 0
DWIDTH 25 0
BBX 23 27 0 0
BITMAP
007FFE
007FFE
007FFE
00FE00
00EE00
00EE00
01EE00
01CE00
03CE00
038E00
038E00
078E00
070FFC
070FFC
0F0FFC
0E0E00
0E0E00
1E0E00
1FFE00
1FFE00
3FFE00
380E00
780E00
780E00
700FFE
F00FFE
F00FFE
ENDCHAR
STARTCHAR Ccedilla
ENCODING 199
SWIDTH 486 0
DWIDTH 20 0
BBX 17 36 2 -9
BITMAP
03F000
0FFC00
1FFE00
3E1F00
3C0400
780000
700000
700000
700000
E00000
E00000
E00000
E00000
E00000
E00000
E00000
E00000
E00000
F00000
700000
780000
780000
3C0200
3F0700
1FFF80
0FFE00
03F800
006000
00C000
00F800
01FC00
001C00
001C00
043C00
03F800
03F000
ENDCHAR
STARTCHAR Egrave
ENCODING 200
SWIDTH 426 0
DWIDTH 16 0
BBX 11 34 3 0
BITMAP
7800
3800
1C00
0E00
0600
0100
0000
FFE0
FFE0
FFE0
E000
E000
E000
E000
E000
E000
E000
E000
E000
FFC0
FFC0
FFC0
E000
E000
E000
E000
E000
E000
E000
E000
E000
FFE0
FFE0
FFE0
ENDCHAR
STARTCHAR Eacute
ENCODING 201
SWIDTH 426 0
DWIDTH 16 0
BBX 11 34 3 0
BITMAP
01C0
0380
0300
0700
0E00
0000
0000
FFE0
FFE0
FFE0
E000
E000
E000
E000
E000
E000
E000
E000
E000
FFC0
FFC0
FFC0
E000
E000
E000
E000
E000
E000
E000
E000
E000
FFE0
FFE0
FFE0
ENDCHAR
STARTCHAR Ecircumflex
ENCODING 202
SWIDTH 426 0
DWIDTH 16 0
BBX 11 34 3 0
BITMAP
0F00
1B00
3980
71C0
60E0
8000
0000
FFE0
FFE0
FFE0
E000
E000
E000
E000
E000
E000
E000
E000
E000
FFC0
FFC0
FFC0
E000
E000
E000
E000
E000
E000
E000
E000
E000
FFE0
FFE0
FFE0
ENDCHAR
STARTCHAR Edieresis
ENCODING 203
SWIDTH 426 0
DWIDTH 16 0
BBX 11 34 3 0
BITMAP
71C0
71C0
71C0
0000
0000
0000
0000
FFE0
FFE0
FFE0
E000
E000
E000
E000
E000
E000
E000
E000
E000
FFC0
FFC0
FFC0
E000
E000
E000
E000
E000
E000
E000
E000
E000
FFE0
FFE0
FFE0
ENDCHAR
STARTCHAR Igrave
ENCODING 204
SWIDTH 246 0
DWIDTH 9 0
BBX 7 34 -1 0
BITMAP
F0
38
38
1C
0E
00
00
0E
0E
0E
0E
0E
0E
0E
0E
0E
0E
0E
0E
0E
0E
0E
0E
0E
0E
0E
0E
0E
0E
0E
0E
0E
0E
0E
ENDCHAR
STARTCHAR Iacute
ENCODING 205
SWIDTH 246 0
DWIDTH 9 0
BBX 7 34 3 0
BITMAP
1E
38
38
70
E0
00
00
E0
E0
E0
E0
E0
E0
E0
E0
E0
E0
E0
E0
E0
E0
E0
E0
E0
E0
E0
E0
E0
E0
E0
E0
E0
E0
E0
ENDCHAR
STARTCHAR Icircumflex
ENCODING 206
SWIDTH 246 0
DWIDTH 9 0
BBX 11 34 -1 0
BITMAP
0E00
1B00
3B80
71C0
E0E0
0000
0000
0E00
0E00
0E00
0E00
0E00
0E00
0E00
0E00
0E00
0E00
0E00
0E00
0E00
0E00
0E00
0E00
0E00
0E00
0E00
0E00
0E00
0E00
0E00
0E00
0E00
0E00
0E00
ENDCHAR
STARTCHAR Idieresis
ENCODING 207
SWIDTH 246 0
DWIDTH 8 0
BBX 9 34 0 0
BITMAP
E380
E380
E380
0000
0000
0000
0000
3800
3800
3800
3800
3800
3800
3800
3800
3800
3800
3800
3800
3800
3800
3800
3800
3800
3800
3800
3800
3800
3800
3800
3800
3800
3800
3800
ENDCHAR
STARTCHAR Eth
ENCODING 208
SWIDTH 551 0
DWIDTH 21 0
BBX 18 27 1 0
BITMAP
3FE000
3FF800
3FFE00
383E00
380F00
380780
380380
380380
3803C0
3801C0
3801C0
3801C0
FFC1C0
FFC1C0
3801C0
3801C0
3801C0
3801C0
3803C0
380380
380380
380780
380F00
383E00
3FFE00
3FF800
3FE000
ENDCHAR
STARTCHAR Ntilde
ENCODING 209
SWIDTH 573 0
DWIDTH 21 0
BBX 15 33 3 0
BITMAP
0F18
1FF8
18F0
0000
0000
0000
F00E
F00E
F80E
F80E
FC0E
FC0E
FC0E
EE0E
EE0E
EF0E
E70E
E70E
E38E
E38E
E38E
E1CE
E1CE
E0EE
E0EE
E0EE
E07E
E07E
E07E
E03E
E03E
E01E
E01E
ENDCHAR
STARTCHAR Ograve
ENCODING 210
SWIDTH 579 0
DWIDTH 22 0
BBX 18 34 2 0
BITMAP
0F0000
070000
038000
01C000
00C000
002000
000000
03F000
0FFC00
1FFE00
3E1E00
3C0F00
780780
700380
700380
F00380
E001C0
E001C0
E001C0
E001C0
E001C0
E001C0
E001C0
E001C0
E001C0
7003C0
700380
700380
780780
3C0F00
1E1E00
1FFE00
0FFC00
03F000
ENDCHAR
STARTCHAR Oacute
ENCODING 211
SWIDTH 579 0
DWIDTH 22 0
BBX 18 34 2 0
BITMAP
001C00
003800
007000
006000
00E000
000000
000000
03F000
0FFC00
1FFE00
3E1E00
3C0F00
780780
700380
700380
F00380
E001C0
E001C0
E001C0
E001C0
E001C0
E001C0
E001C0
E001C0
E001C0
7003C0
700380
700380
780780
3C0F00
1E1E00
1FFE00
0FFC00
03F000
ENDCHAR
STARTCHAR Ocircumflex
ENCODING 212
SWIDTH 579 0
DWIDTH 22 0
BBX 18 34 2 0
BITMAP
01E000
03F000
073800
0E1C00
1C0E00
000000
000000
03F000
0FFC00
1FFE00
3E1E00
3C0F00
780780
700380
700380
F00380
E001C0
E001C0
E001C0
E001C0
E001C0
E001C0
E001C0
E001C0
E001C0
7003C0
700380
700380
780780
3C0F00
1E1E00
1FFE00
0FFC00
03F000
ENDCHAR
STARTCHAR Otilde
ENCODING 213
SWIDTH 579 0
DWIDTH 22 0
BBX 18 33 2 0
BITMAP
078C00
0FFC00
0C7800
000000
000000
000000
03F000
0FFC00
1FFE00
3E1E00
3C0F00
780780
700380
700380
F00380
E001C0
E001C0
E001C0
E001C0
E001C0
E001C0
E001C0
E001C0
E001C0
7003C0
700380
700380
780780
3C0F00
1E1E00
1FFE00
0FFC00
03F000
ENDCHAR
STARTCHAR Odieresis
ENCODING 214
SWIDTH 579 0
DWIDTH 22 0
BBX 18 34 2 0
BITMAP
073800
073800
073800
000000
000000
000000
000000
03F000
0FFC00
1FFE00
3E1E00
3C0F00
780780
700380
700380
F00380
E001C0
E001C0
E001C0
E001C0
E001C0
E001C0
E001C0
E001C0
E001C0
7003C0
700380
700380
780780
3C0F00
1E1E00
1FFE00
0FFC00
03F000
ENDCHAR
STARTCHAR multiply
ENCODING 215
SWIDTH 666 0
DWIDTH 25 0
BBX 17 17 4 3
BITMAP
200200
700700
F80F80
7C1F00
3E3E00
1F7C00
0FF800
07F000
03E000
07F000
0FF800
1F7C00
3E3E00
7C1F00
F80F80
700700
200200
ENDCHAR
STARTCHAR Oslash
ENCODING 216
SWIDTH 579 0
DWIDTH 22 0
BBX 18 29 2 -1
BITMAP
000100
03F380
0FFB00
1FFF00
3E1E00
3C0F00
780F80
781F80
701B80
F033C0
F031C0
E061C0
E061C0
E0C1C0
E0C1C0
E181C0
E181C0
E301C0
E301C0
F60380
760380
7C0780
7C0780
3C0F00
3E1E00
3FFE00
7FFC00
63F000
200000
ENDCHAR
STARTCHAR Ugrave
ENCODING 217
SWIDTH 557 0
DWIDTH 21 0
BBX 15 34 3 0
BITMAP
1C00
0E00
0600
0700
0380
0000
0000
E00E
E00E
E00E
E00E
E00E
E00E
E00E
E00E
E00E
E00E
E00E
E00E
E00E
E00E
E00E
E00E
E00E
E00E
E00E
E00E
E00E
F01E
701C
783C
3FF8
1FF0
07C0
ENDCHAR
STARTCHAR Uacute
ENCODING 218
SWIDTH 557 0
DWIDTH 21 0
BBX 15 34 3 0
BITMAP
0070
00E0
00C0
01C0
0380
0000
0000
E00E
E00E
E00E
E00E
E00E
E00E
E00E
E00E
E00E
E00E
E00E
E00E
E00E
E00E
E00E
E00E
E00E
E00E
E00E
E00E
E00E
F01E
701C
783C
3FF8
1FF0
07C0
ENDCHAR
STARTCHAR Ucircumflex
ENCODING 219
SWIDTH 557 0
DWIDTH 21 0
BBX 15 34 3 0
BITMAP
0380
06C0
0EE0
1C70
1838
2000
0000
E00E
E00E
E00E
E00E
E00E
E00E
E00E
E00E
E00E
E00E
E00E
E00E
E00E
E00E
E00E
E00E
E00E
E00E
E00E
E00E
E00E
F01E
701C
783C
3FF8
1FF0
07C0
ENDCHAR
STARTCHAR Udieresis
ENCODING 220
SWIDTH 557 0
DWIDTH 21 0
BBX 15 34 3 0
BITMAP
1C70
1C70
1C70
0000
0000
0000
0000
E00E
E00E
E00E
E00E
E00E
E00E
E00E
E00E
E00E
E00E
E00E
E00E
E00E
E00E
E00E
E00E
E00E
E00E
E00E
E00E
E00E
F01E
701C
783C
3FF8
1FF0
07C0
ENDCHAR
STARTCHAR Yacute
ENCODING 221
SWIDTH 437 0
DWIDTH 17 0
BBX 17 34 0 0
BITMAP
003C00
007000
007000
00E000
01C000
000000
000000
F00780
780700
780F00
380E00
3C1E00
1C1C00
1C1C00
1E3C00
0E3800
0E3800
077000
077000
077000
03E000
03E000
01C000
01C000
01C000
01C000
01C000
01C000
01C000
01C000
01C000
01C000
01C000
01C000
ENDCHAR
STARTCHAR Thorn
ENCODING 222
SWIDTH 492 0
DWIDTH 19 0
BBX 14 27 3 0
BITMAP
E000
E000
E000
E000
E000
E000
FF80
FFE0
FFF0
E0F8
E03C
E01C
E01C
E01C
E01C
E01C
E03C
E078
FFF0
FFE0
FF80
E000
E000
E000
E000
E000
E000
ENDCHAR
STARTCHAR germandbls
ENCODING 223
SWIDTH 467 0
DWIDTH 17 0
BBX 13 29 3 0
BITMAP
0F80
3FC0
7FE0
78E0
70F0
E070
E070
E070
E070
E070
E0E0
E1C0
E780
E780
E7E0
E1F0
E070
E078
E038
E038
E038
E038
E038
E078
E070
E0F0
EFF0
EFE0
EF80
ENDCHAR
STARTCHAR agrave
ENCODING 224
SWIDTH 415 0
DWIDTH 15 0
BBX 12 27 1 0
BITMAP
7800
1C00
1C00
0E00
0700
0000
0000
0000
1F80
7FC0
7FE0
20E0
0070
0070
0070
0FF0
3FF0
7870
7070
E070
E070
E0F0
E0F0
F1F0
7FF0
7F70
1E70
ENDCHAR
STARTCHAR aacute
ENCODING 225
SWIDTH 415 0
DWIDTH 15 0
BBX 12 27 1 0
BITMAP
00F0
01C0
0180
0380
0700
0000
0000
0000
1F80
7FC0
7FE0
20E0
0070
0070
0070
0FF0
3FF0
7870
7070
E070
E070
E0F0
E0F0
F1F0
7FF0
7F70
1E70
ENDCHAR
STARTCHAR acircumflex
ENCODING 226
SWIDTH 415 0
DWIDTH 15 0
BBX 12 27 1 0
BITMAP
0F00
0F80
19C0
38E0
7070
0000
0000
0000
1F80
7FC0
7FE0
20E0
0070
0070
0070
0FF0
3FF0
7870
7070
E070
E070
E0F0
E0F0
F1F0
7FF0
7F70
1E70
ENDCHAR
STARTCHAR atilde
ENCODING 227
SWIDTH 415 0
DWIDTH 15 0
BBX 12 26 1 0
BITMAP
3C30
3E30
63E0
61E0
0000
0000
0000
0F80
3FC0
7FE0
70E0
0070
0070
0070
0FF0
3FF0
7870
7070
E070
E070
E0F0
E0F0
F1F0
7FF0
7F70
1E70
ENDCHAR
STARTCHAR adieresis
ENCODING 228
SWIDTH 415 0
DWIDTH 15 0
BBX 12 26 1 0
BITMAP
38E0
38E0
38E0
0000
0000
0000
0000
0F80
3FC0
7FE0
70E0
0070
0070
0070
0FF0
3FF0
7870
7070
E070
E070
E0F0
E0F0
F1F0
7FF0
7FF0
1E70
ENDCHAR
STARTCHAR aring
ENCODING 229
SWIDTH 415 0
DWIDTH 16 0
BBX 13 29 1 0
BITMAP
0780
0FC0
18E0
1060
1060
18E0
0FC0
0780
0000
0000
0FC0
3FE0
7FF0
7070
0038
0038
0038
07F8
3FF8
7838
7038
E038
E038
E078
E078
F0F8
7FB8
7FB8
1F38
ENDCHAR
STARTCHAR ae
ENCODING 230
SWIDTH 665 0
DWIDTH 26 0
BBX 23 19 1 0
BITMAP
0F83E0
3FE7F8
7FEFFC
70FE3C
007C1C
00380E
00380E
07FFFE
3FFFFE
7FFFFE
783800
F03800
E03800
E03C10
E07C1C
F0EE1E
7FEFFC
7FC7F8
1F03E0
ENDCHAR
STARTCHAR ccedilla
ENCODING 231
SWIDTH 344 0
DWIDTH 13 0
BBX 11 28 2 -9
BITMAP
0F80
1FE0
3FC0
78C0
7000
F000
E000
E000
E000
E000
E000
E000
E000
E000
F000
7840
7FC0
3FE0
1FC0
0600
0C00
0F80
1FC0
01C0
01C0
43C0
3F80
3F00
ENDCHAR
STARTCHAR egrave
ENCODING 232
SWIDTH 439 0
DWIDTH 17 0
BBX 13 27 2 0
BITMAP
3C00
0C00
0E00
0700
0380
0000
0000
0000
0F80
1FE0
3FF0
78F0
7070
6038
E038
FFF8
FFF8
FFF8
E000
E000
E000
F040
7070
78F0
3FE0
1FE0
0F80
ENDCHAR
STARTCHAR eacute
ENCODING 233
SWIDTH 439 0
DWIDTH 17 0
BBX 13 27 2 0
BITMAP
00E0
01C0
0180
0380
0700
0000
0000
0000
0F80
1FE0
3FF0
78F0
7070
6038
E038
FFF8
FFF8
FFF8
E000
E000
E000
F040
7070
78F0
3FE0
1FE0
0F80
ENDCHAR
STARTCHAR ecircumflex
ENCODING 234
SWIDTH 439 0
DWIDTH 17 0
BBX 13 27 2 0
BITMAP
0780
0FC0
1CC0
1860
3870
4000
0000
0000
0F80
1FE0
3FF0
78F0
7070
6038
E038
FFF8
FFF8
FFF8
E000
E000
E000
F040
7070
78F0
3FE0
1FE0
0F80
ENDCHAR
STARTCHAR edieresis
ENCODING 235
SWIDTH 439 0
DWIDTH 17 0
BBX 13 26 2 0
BITMAP
38E0
38E0
38E0
0000
0000
0000
0000
0F80
1FE0
3FF0
78F0
7070
6038
E038
FFF8
FFF8
FFF8
E000
E000
E000
F040
7070
7878
3FF0
1FE0
0F80
ENDCHAR
STARTCHAR igrave
ENCODING 236
SWIDTH 232 0
DWIDTH 9 0
BBX 7 27 -1 0
BITMAP
F0
38
38
1C
0E
00
00
00
0E
0E
0E
0E
0E
0E
0E
0E
0E
0E
0E
0E
0E
0E
0E
0E
0E
0E
0E
ENDCHAR
STARTCHAR iacute
ENCODING 237
SWIDTH 232 0
DWIDTH 9 0
BBX 7 27 3 0
BITMAP
1E
38
38
70
E0
00
00
00
E0
E0
E0
E0
E0
E0
E0
E0
E0
E0
E0
E0
E0
E0
E0
E0
E0
E0
E0
ENDCHAR
STARTCHAR icircumflex
ENCODING 238
SWIDTH 232 0
DWIDTH 9 0
BBX 11 27 -1 0
BITMAP
0E00
1B00
3B80
71C0
E0E0
0000
0000
0000
0E00
0E00
0E00
0E00
0E00
0E00
0E00
0E00
0E00
0E00
0E00
0E00
0E00
0E00
0E00
0E00
0E00
0E00
0E00
ENDCHAR
STARTCHAR idieresis
ENCODING 239
SWIDTH 232 0
DWIDTH 8 0
BBX 9 26 0 0
BITMAP
E380
E380
E380
0000
0000
0000
0000
1C00
1C00
1C00
1C00
1C00
1C00
1C00
1C00
1C00
1C00
1C00
1C00
1C00
1C00
1C00
1C00
1C00
1C00
1C00
ENDCHAR
STARTCHAR eth
ENCODING 240
SWIDTH 450 0
DWIDTH 17 0
BBX 13 29 2 0
BITMAP
3800
7CE0
1FC0
0F80
3F00
7380
4180
01C0
00C0
00E0
0FE0
1FF0
38F0
7070
7070
E038
E038
E038
E038
E038
E038
E038
E038
7070
7070
78F0
3FE0
1FC0
0F80
ENDCHAR
STARTCHAR ntilde
ENCODING 241
SWIDTH 483 0
DWIDTH 19 0
BBX 13 26 3 0
BITMAP
3C30
3E30
63E0
61E0
0000
0000
0000
E3C0
E7F0
EFF0
F878
F038
F038
E038
E038
E038
E038
E038
E038
E038
E038
E038
E038
E038
E038
E038
ENDCHAR
STARTCHAR ograve
ENCODING 242
SWIDTH 455 0
DWIDTH 17 0
BBX 13 27 2 0
BITMAP
3800
1C00
0E00
0600
0700
0000
0000
0000
0F80
1FC0
3FE0
78F0
7070
F078
E038
E038
E038
E038
E038
E038
E038
F078
7070
78F0
3FE0
1FC0
0F80
ENDCHAR
STARTCHAR oacute
ENCODING 243
SWIDTH 455 0
DWIDTH 17 0
BBX 13 27 2 0
BITMAP
01E0
01C0
0380
0700
0600
0800
0000
0000
0F80
1FC0
3FE0
78F0
7070
F078
E038
E038
E038
E038
E038
E038
E038
F078
7070
78F0
3FE0
1FC0
0F80
ENDCHAR
STARTCHAR ocircumflex
ENCODING 244
SWIDTH 455 0
DWIDTH 17 0
BBX 13 27 2 0
BITMAP
0700
0D80
1DC0
38E0
3060
4010
0000
0000
0F80
1FC0
3FE0
78F0
7070
F078
E038
E038
E038
E038
E038
E038
E038
F078
7070
78F0
3FE0
1FC0
0F80
ENDCHAR
STARTCHAR otilde
ENCODING 245
SWIDTH 455 0
DWIDTH 17 0
BBX 13 26 2 0
BITMAP
3C30
3E30
63E0
61E0
0000
0000
0000
0F80
1FC0
3FE0
78F0
7070
F078
E038
E038
E038
E038
E038
E038
E038
F078
7070
78F0
3FE0
1FC0
0F80
ENDCHAR
STARTCHAR odieresis
ENCODING 246
SWIDTH 455 0
DWIDTH 17 0
BBX 13 26 2 0
BITMAP
38E0
38E0
38E0
0000
0000
0000
0000
0F80
1FC0
3FE0
78F0
7070
F078
E038
E038
E038
E038
E038
E038
E038
F078
7070
78F0
3FE0
1FC0
0F80
ENDCHAR
STARTCHAR divide
ENCODING 247
SWIDTH 666 0
DWIDTH 25 0
BBX 20 17 3 3
BITMAP
00E000
01F000
01F000
01F000
00E000
000000
000000
FFFFF0
FFFFF0
FFFFF0
000000
000000
00E000
01F000
01F000
01F000
00E000
ENDCHAR
STARTCHAR oslash
ENCODING 248
SWIDTH 455 0
DWIDTH 17 0
BBX 13 21 2 -1
BITMAP
0010
0FB8
1FF0
3FE0
78F0
7070
F0F0
E0B8
E138
E338
E238
E638
E438
E838
E878
7070
78F0
3FE0
7FC0
6F80
4000
ENDCHAR
STARTCHAR ugrave
ENCODING 249
SWIDTH 483 0
DWIDTH 18 0
BBX 12 27 3 0
BITMAP
7800
3800
1C00
0C00
0600
0000
0000
E070
E070
E070
E070
E070
E070
E070
E070
E070
E070
E070
E070
E070
E070
E0F0
E0F0
F1F0
7F70
7F70
3C70
ENDCHAR
STARTCHAR uacute
ENCODING 250
SWIDTH 483 0
DWIDTH 18 0
BBX 12 27 3 0
BITMAP
01C0
0380
0300
0700
0E00
0000
0000
E070
E070
E070
E070
E070
E070
E070
E070
E070
E070
E070
E070
E070
E070
E0F0
E0F0
F1F0
7F70
7F70
3C70
ENDCHAR
STARTCHAR ucircumflex
ENCODING 251
SWIDTH 483 0
DWIDTH 18 0
BBX 12 27 3 0
BITMAP
0F00
0F80
1980
38C0
70E0
0000
0000
E070
E070
E070
E070
E070
E070
E070
E070
E070
E070
E070
E070
E070
E070
E0F0
E0F0
F1F0
7F70
7F70
3C70
ENDCHAR
STARTCHAR udieresis
ENCODING 252
SWIDTH 483 0
DWIDTH 19 0
BBX 13 26 3 0
BITMAP
38E0
38E0
38E0
0000
0000
0000
E038
E038
E038
E038
E038
E038
E038
E038
E038
E038
E038
E038
E038
E038
E078
F078
70F8
7FF8
3FB8
1F38
ENDCHAR
STARTCHAR yacute
ENCODING 253
SWIDTH 396 0
DWIDTH 15 0
BBX 14 36 1 -9
BITMAP
00F0
01C0
01C0
0380
0700
0000
0000
0000
E03C
E038
F038
7078
7070
7070
7870
3870
38E0
38E0
1CE0
1CE0
1DC0
1DC0
0FC0
0F80
0F80
0780
0780
0700
0700
0700
0F00
0E00
1E00
FC00
FC00
F000
ENDCHAR
STARTCHAR thorn
ENCODING 254
SWIDTH 480 0
DWIDTH 18 0
BBX 13 37 3 -9
BITMAP
E000
E000
E000
E000
E000
E000
E000
E000
E000
E780
EFE0
FFE0
F8F0
F070
F078
E038
E038
E038
E038
E038
E038
E038
F078
F070
F8F0
FFE0
EFE0
E780
E000
E000
E000
E000
E000
E000
E000
E000
E000
ENDCHAR
STARTCHAR ydieresis
ENCODING 255
SWIDTH 396 0
DWIDTH 15 0
BBX 14 35 1 -9
BITMAP
38E0
38E0
38E0
0000
0000
0000
0000
E03C
E038
F038
7038
7078
7070
7870
3870
38F0
38E0
18E0
1DE0
1DE0
1DC0
0DC0
0FC0
0FC0
0F80
0780
0780
0700
0700
0F00
0F00
1E00
FE00
FC00
F000
ENDCHAR
STARTCHAR Amacron
ENCODING 256
SWIDTH 487 0
DWIDTH 19 0
BBX 18 33 0 0
BITMAP
0FFC00
0FFC00
000000
000000
000000
000000
01F000
01F000
03F000
03F000
03B800
03B800
073800
073800
071C00
071C00
0F1C00
0E1C00
0E1E00
0E0E00
1E0E00
1C0E00
1C0F00
1C0700
3FFF00
3FFF00
3FFF80
380780
780780
780380
7003C0
7003C0
F003C0
ENDCHAR
STARTCHAR amacron
ENCODING 257
SWIDTH 415 0
DWIDTH 15 0
BBX 12 25 1 0
BITMAP
3FE0
3FE0
0000
0000
0000
0000
0F80
3FC0
7FE0
70E0
0070
0070
0070
0FF0
3FF0
7870
7070
E070
E070
E0F0
E0F0
F1F0
7FF0
7F70
1E70
ENDCHAR
STARTCHAR Abreve
ENCODING 258
SWIDTH 487 0
DWIDTH 19 0
BBX 18 34 0 0
BITMAP
0C0C00
0E0C00
071C00
07F800
01F000
000000
000000
01F000
01F000
03F000
03F000
03B800
03B800
073800
073800
071C00
071C00
0F1C00
0E1C00
0E1E00
0E0E00
1E0E00
1C0E00
1C0F00
1C0700
3FFF00
3FFF00
3FFF80
380780
780780
780380
7003C0
7003C0
F003C0
ENDCHAR
STARTCHAR abreve
ENCODING 259
SWIDTH 415 0
DWIDTH 15 0
BBX 12 27 1 0
BITMAP
3030
3070
38E0
1FE0
0780
0000
0000
0000
1F80
7FC0
7FE0
20E0
0070
0070
0070
0FF0
3FF0
7870
7070
E070
E070
E0F0
E0F0
F1F0
7FF0
7F70
1E70
ENDCHAR
STARTCHAR Aogonek
ENCODING 260
SWIDTH 487 0
DWIDTH 18 0
BBX 18 35 0 -8
BITMAP
03E000
03E000
03F000
03F000
07B000
07B000
073800
073800
0F1800
0F1C00
0F1C00
0E1C00
1E1C00
1E0E00
1E0E00
1C0E00
3C0E00
3C0700
3FFF00
3FFF00
7FFF00
780780
700780
700780
F007C0
F003C0
E003C0
000300
000600
000E00
001C00
001C00
001C40
001FC0
000780
ENDCHAR
STARTCHAR aogonek
ENCODING 261
SWIDTH 415 0
DWIDTH 15 0
BBX 13 27 1 -8
BITMAP
0F80
3FC0
7FE0
70E0
0070
0070
0070
0FF0
3FF0
7870
7070
E070
E070
E0F0
E0F0
F1F0
7FF0
7F70
1E70
0060
00C0
01C0
0380
0380
0388
03F8
00F0
ENDCHAR
STARTCHAR Cacute
ENCODING 262
SWIDTH 486 0
DWIDTH 18 0
BBX 16 34 2 0
BITMAP
003C
0070
0070
00E0
01C0
0000
0000
03F0
0FFC
1FFE
3E1F
3C04
7800
7000
7000
F000
E000
E000
E000
E000
E000
E000
E000
E000
E000
F000
7000
7000
7808
3C04
3E1E
1FFE
0FFC
03F0
ENDCHAR
STARTCHAR cacute
ENCODING 263
SWIDTH 344 0
DWIDTH 13 0
BBX 11 27 2 0
BITMAP
01E0
01C0
0380
0700
0600
0800
0000
0000
0F80
3FE0
3FC0
7800
7000
F000
E000
E000
E000
E000
E000
E000
E000
F000
7000
7840
3FC0
3FE0
0F80
ENDCHAR
STARTCHAR Ccircumflex
ENCODING 264
SWIDTH 486 0
DWIDTH 18 0
BBX 16 34 2 0
BITMAP
00E0
01B0
03B8
071C
0E0E
0000
0000
03F0
0FFC
1FFE
3E1F
3C04
7800
7000
7000
F000
E000
E000
E000
E000
E000
E000
E000
E000
E000
F000
7000
7000
7808
3C04
3E1E
1FFE
0FFC
03F0
ENDCHAR
STARTCHAR ccircumflex
ENCODING 265
SWIDTH 344 0
DWIDTH 13 0
BBX 12 27 2 0
BITMAP
0780
0D80
1CC0
38E0
3070
4000
0000
0000
0F80
3FE0
3FC0
7800
7000
F000
E000
E000
E000
E000
E000
E000
E000
F000
7000
7840
3FC0
3FE0
0F80
ENDCHAR
STARTCHAR Cdotaccent
ENCODING 266
SWIDTH 486 0
DWIDTH 18 0
BBX 16 35 2 0
BITMAP
0080
01C0
01C0
01C0
0080
0000
0000
0000
03F0
0FFC
1FFE
3E1F
3C04
7800
7000
7000
F000
E000
E000
E000
E000
E000
E000
E000
E000
E000
F000
7000
7000
7808
3C04
3E1E
1FFE
0FFC
03F0
ENDCHAR
STARTCHAR cdotaccent
ENCODING 267
SWIDTH 344 0
DWIDTH 12 0
BBX 11 27 2 0
BITMAP
0200
0700
0700
0700
0200
0000
0000
0000
0F80
3FE0
3FC0
7800
7000
F000
E000
E000
E000
E000
E000
E000
E000
F000
7000
7840
3FC0
3FE0
0F80
ENDCHAR
STARTCHAR Ccaron
ENCODING 268
SWIDTH 486 0
DWIDTH 18 0
BBX 16 34 2 0
BITMAP
0E0E
071C
0338
01B0
00E0
0000
0000
03F0
0FFC
1FFE
3E1F
3C04
7800
7000
7000
F000
E000
E000
E000
E000
E000
E000
E000
E000
E000
F000
7000
7000
7808
3C04
3E1E
1FFE
0FFC
03F0
ENDCHAR
STARTCHAR ccaron
ENCODING 269
SWIDTH 344 0
DWIDTH 13 0
BBX 12 27 2 0
BITMAP
7070
38E0
1CC0
0D80
0780
0000
0000
0000
0F80
3FE0
3FC0
7800
7000
F000
E000
E000
E000
E000
E000
E000
E000
F000
7000
7840
3FC0
3FE0
0F80
ENDCHAR
STARTCHAR Dcaron
ENCODING 270
SWIDTH 553 0
DWIDTH 21 0
BBX 16 34 3 0
BITMAP
60E0
30C0
19C0
1F80
0F00
0000
0000
FF80
FFE0
FFF8
E0F8
E03C
E01E
E00E
E00E
E00F
E007
E007
E007
E007
E007
E007
E007
E007
E007
E00F
E00E
E00E
E01E
E03C
E0F8
FFF8
FFE0
FF80
ENDCHAR
STARTCHAR dcaron
ENCODING 271
SWIDTH 480 0
DWIDTH 18 0
BBX 19 29 2 0
BITMAP
003800
003800
0038E0
0038E0
0038C0
0039C0
0039C0
0039C0
003980
0F3800
3FB800
3FF800
78F800
707800
F07800
E03800
E03800
E03800
E03800
E03800
E03800
E03800
E03800
707800
707800
78F800
3FF800
3FB800
0F3800
ENDCHAR
STARTCHAR Dcroat
ENCODING 272
SWIDTH 551 0
DWIDTH 21 0
BBX 18 27 1 0
BITMAP
3FE000
3FF800
3FFE00
383E00
380F00
380780
380380
380380
3803C0
3801C0
3801C0
3801C0
FFC1C0
FFC1C0
3801C0
3801C0
3801C0
3801C0
3803C0
380380
380380
380780
380F00
383E00
3FFE00
3FF800
3FE000
ENDCHAR
STARTCHAR dcroat
ENCODING 273
SWIDTH 480 0
DWIDTH 18 0
BBX 15 29 2 0
BITMAP
0038
0038
0038
0038
0038
07FE
07FE
0038
0038
0038
0F38
3FB8
3FF8
78F8
7078
F078
E038
E038
E038
E038
E038
E038
E038
F078
7078
78F8
3FF8
3FB8
0F38
ENDCHAR
STARTCHAR Emacron
ENCODING 274
SWIDTH 426 0
DWIDTH 16 0
BBX 11 33 3 0
BITMAP
7FE0
7FE0
0000
0000
0000
0000
FFE0
FFE0
FFE0
E000
E000
E000
E000
E000
E000
E000
E000
E000
FFC0
FFC0
FFC0
E000
E000
E000
E000
E000
E000
E000
E000
E000
FFE0
FFE0
FFE0
ENDCHAR
STARTCHAR emacron
ENCODING 275
SWIDTH 439 0
DWIDTH 17 0
BBX 13 25 2 0
BITMAP
3FF0
3FF0
0000
0000
0000
0000
0F80
1FE0
3FF0
78F0
7070
6038
E038
FFF8
FFF8
FFF8
E000
E000
E000
F040
7070
78F0
3FE0
1FE0
0F80
ENDCHAR
STARTCHAR Ebreve
ENCODING 276
SWIDTH 426 0
DWIDTH 16 0
BBX 11 34 3 0
BITMAP
6060
60E0
71C0
3FC0
1F00
0000
0000
FFE0
FFE0
FFE0
E000
E000
E000
E000
E000
E000
E000
E000
E000
FFC0
FFC0
FFC0
E000
E000
E000
E000
E000
E000
E000
E000
E000
FFE0
FFE0
FFE0
ENDCHAR
STARTCHAR ebreve
ENCODING 277
SWIDTH 439 0
DWIDTH 17 0
BBX 13 27 2 0
BITMAP
3030
3030
1860
1FE0
0780
0000
0000
0000
0F80
1FE0
3FF0
78F0
7070
6038
E038
FFF8
FFF8
FFF8
E000
E000
E000
F040
7070
78F0
3FE0
1FE0
0F80
ENDCHAR
STARTCHAR Edotaccent
ENCODING 278
SWIDTH 426 0
DWIDTH 16 0
BBX 11 35 3 0
BITMAP
0400
0E00
0E00
0E00
0400
0000
0000
0000
FFE0
FFE0
FFE0
E000
E000
E000
E000
E000
E000
E000
E000
E000
FFC0
FFC0
FFC0
E000
E000
E000
E000
E000
E000
E000
E000
E000
FFE0
FFE0
FFE0
ENDCHAR
STARTCHAR edotaccent
ENCODING 279
SWIDTH 439 0
DWIDTH 17 0
BBX 13 27 2 0
BITMAP
0200
0700
0700
0700
0200
0000
0000
0000
0F80
1FE0
3FF0
78F0
7070
6038
E038
FFF8
FFF8
FFF8
E000
E000
E000
F040
7070
7878
3FF0
1FE0
0F80
ENDCHAR
STARTCHAR Eogonek
ENCODING 280
SWIDTH 426 0
DWIDTH 16 0
BBX 13 35 3 -8
BITMAP
FFE0
FFE0
FFE0
E000
E000
E000
E000
E000
E000
E000
E000
E000
FFC0
FFC0
FFC0
E000
E000
E000
E000
E000
E000
E000
E000
E000
FFF0
FFF0
FFF0
0060
00C0
01C0
0380
0380
0388
03F8
00F0
ENDCHAR
STARTCHAR eogonek
ENCODING 281
SWIDTH 439 0
DWIDTH 17 0
BBX 13 27 2 -8
BITMAP
0F80
1FE0
3FF0
78F0
7070
6038
E038
FFF8
FFF8
FFF8
E000
E000
E000
F000
7030
7878
7FF0
3FE0
1FC0
0300
0600
0E00
1C00
1C00
1C80
1FC0
0F80
ENDCHAR
STARTCHAR Ecaron
ENCODING 282
SWIDTH 426 0
DWIDTH 16 0
BBX 11 34 3 0
BITMAP
E0E0
71C0
3980
1B00
0F00
0000
0000
FFE0
FFE0
FFE0
E000
E000
E000
E000
E000
E000
E000
E000
E000
FFC0
FFC0
FFC0
E000
E000
E000
E000
E000
E000
E000
E000
E000
FFE0
FFE0
FFE0
ENDCHAR
STARTCHAR ecaron
ENCODING 283
SWIDTH 439 0
DWIDTH 17 0
BBX 13 27 2 0
BITMAP
7870
18E0
1CC0
0FC0
0780
0000
0000
0000
0F80
1FE0
3FF0
78F0
7070
6038
E038
FFF8
FFF8
FFF8
E000
E000
E000
F040
7070
78F0
3FE0
1FE0
0F80
ENDCHAR
STARTCHAR Gcircumflex
ENCODING 284
SWIDTH 541 0
DWIDTH 20 0
BBX 16 34 2 0
BITMAP
00E0
01B0
0338
071C
0E0C
0002
0000
03F0
0FFC
1FFE
3E1F
3C04
7800
7000
7000
F000
E000
E000
E000
E07F
E07F
E07F
E007
E007
E007
7007
7007
7007
7807
3C07
1E0F
1FFF
07FE
01F8
ENDCHAR
STARTCHAR gcircumflex
ENCODING 285
SWIDTH 480 0
DWIDTH 18 0
BBX 13 36 2 -9
BITMAP
0780
0FC0
0CC0
1C60
3870
0000
0000
0600
1FB8
3FB8
78F8
7078
F078
E038
E038
E038
E038
E038
E038
E038
E038
F078
7078
78F8
3FF8
3FB8
0F38
0038
0038
0038
0038
6070
F0F0
FFE0
3FE0
1F80
ENDCHAR
STARTCHAR Gbreve
ENCODING 286
SWIDTH 541 0
DWIDTH 20 0
BBX 16 34 2 0
BITMAP
0C0C
0E0C
071C
07F8
01F0
0000
0000
03F0
0FFC
1FFE
3E1F
3C04
7800
7000
7000
F000
E000
E000
E000
E07F
E07F
E07F
E007
E007
E007
7007
7007
7007
7807
3C07
1E0F
1FFF
07FE
01F8
ENDCHAR
STARTCHAR gbreve
ENCODING 287
SWIDTH 480 0
DWIDTH 18 0
BBX 13 36 2 -9
BITMAP
3030
3030
1860
1FE0
0780
0000
0000
0600
1FB8
3FB8
78F8
7078
F078
E038
E038
E038
E038
E038
E038
E038
E038
F078
7078
78F8
3FF8
3FB8
0F38
0038
0038
0038
0038
6070
F0F0
FFE0
3FE0
1F80
ENDCHAR
STARTCHAR Gdotaccent
ENCODING 288
SWIDTH 541 0
DWIDTH 20 0
BBX 16 35 2 0
BITMAP
0040
00E0
00E0
00E0
0040
0000
0000
0000
03F0
0FFC
1FFE
3E1F
3C04
7800
7000
7000
F000
E000
E000
E000
E07F
E07F
E07F
E007
E007
E007
7007
7007
7007
7807
3C07
1E0F
1FFF
07FE
01F8
ENDCHAR
STARTCHAR gdotaccent
ENCODING 289
SWIDTH 480 0
DWIDTH 18 0
BBX 14 36 1 -9
BITMAP
0080
01C0
01C0
01C0
0080
0000
0000
0300
0FDC
1FDC
3C7C
383C
783C
701C
701C
701C
701C
701C
701C
701C
701C
783C
383C
3C7C
1FFC
1FDC
079C
001C
001C
001C
001C
2038
7878
FFF0
3FF0
0FC0
ENDCHAR
STARTCHAR Gcommaaccent
ENCODING 290
SWIDTH 541 0
DWIDTH 20 0
BBX 16 36 2 -9
BITMAP
03F0
0FFC
1FFE
3E1F
3C04
7800
7000
7000
F000
E000
E000
E000
E07F
E07F
E07F
E007
E007
E007
7007
7007
7007
7807
3C07
1E0F
1FFF
07FE
01F8
0000
0000
00E0
00C0
01C0
01C0
01C0
0180
0380
ENDCHAR
STARTCHAR gcommaaccent
ENCODING 291
SWIDTH 480 0
DWIDTH 18 0
BBX 13 38 2 -9
BITMAP
01C0
01C0
0180
0380
0380
0380
0300
0400
0000
0600
1FB8
3FB8
78F8
7078
F078
E038
E038
E038
E038
E038
E038
E038
E038
F078
7078
78F8
3FF8
3FB8
0F38
0038
0038
0038
0038
6070
F0F0
FFE0
3FE0
1F80
ENDCHAR
STARTCHAR Hcircumflex
ENCODING 292
SWIDTH 583 0
DWIDTH 22 0
BBX 16 34 3 0
BITMAP
03C0
07E0
0E70
0C38
1C38
2004
0000
E007
E007
E007
E007
E007
E007
E007
E007
E007
E007
E007
E007
FFFF
FFFF
FFFF
E007
E007
E007
E007
E007
E007
E007
E007
E007
E007
E007
E007
ENDCHAR
STARTCHAR hcircumflex
ENCODING 293
SWIDTH 482 0
DWIDTH 18 0
BBX 12 35 3 0
BITMAP
0F00
1F80
1980
30C0
70E0
0000
0000
E000
E000
E000
E000
E000
E000
E000
E000
E000
E780
EFE0
FFE0
F8F0
F070
F070
E070
E070
E070
E070
E070
E070
E070
E070
E070
E070
E070
E070
E070
ENDCHAR
STARTCHAR Hbar
ENCODING 294
SWIDTH 583 0
DWIDTH 22 0
BBX 16 27 3 0
BITMAP
E007
E007
E007
E007
E007
E007
FFFF
FFFF
E007
E007
E007
E007
FFFF
FFFF
FFFF
E007
E007
E007
E007
E007
E007
E007
E007
E007
E007
E007
E007
ENDCHAR
STARTCHAR hbar
ENCODING 295
SWIDTH 482 0
DWIDTH 18 0
BBX 14 29 1 0
BITMAP
3800
3800
3800
3800
3800
FFC0
FFC0
3800
3800
3800
39E0
3BF8
3FF8
3E3C
3C1C
3C1C
381C
381C
381C
381C
381C
381C
381C
381C
381C
381C
381C
381C
381C
ENDCHAR
STARTCHAR Itilde
ENCODING 296
SWIDTH 246 0
DWIDTH 9 0
BBX 11 33 -1 0
BITMAP
7860
FFE0
C3C0
0000
0000
0000
0E00
0E00
0E00
0E00
0E00
0E00
0E00
0E00
0E00
0E00
0E00
0E00
0E00
0E00
0E00
0E00
0E00
0E00
0E00
0E00
0E00
0E00
0E00
0E00
0E00
0E00
0E00
ENDCHAR
STARTCHAR itilde
ENCODING 297
SWIDTH 232 0
DWIDTH 9 0
BBX 11 26 -1 0
BITMAP
7860
7C60
C7C0
C3C0
0000
0000
0000
0E00
0E00
0E00
0E00
0E00
0E00
0E00
0E00
0E00
0E00
0E00
0E00
0E00
0E00
0E00
0E00
0E00
0E00
0E00
ENDCHAR
STARTCHAR Imacron
ENCODING 298
SWIDTH 246 0
DWIDTH 9 0
BBX 10 33 0 0
BITMAP
FFC0
FFC0
0000
0000
0000
0000
1C00
1C00
1C00
1C00
1C00
1C00
1C00
1C00
1C00
1C00
1C00
1C00
1C00
1C00
1C00
1C00
1C00
1C00
1C00
1C00
1C00
1C00
1C00
1C00
1C00
1C00
1C00
ENDCHAR
STARTCHAR imacron
ENCODING 299
SWIDTH 232 0
DWIDTH 9 0
BBX 9 25 0 0
BITMAP
FF80
FF80
0000
0000
0000
0000
1C00
1C00
1C00
1C00
1C00
1C00
1C00
1C00
1C00
1C00
1C00
1C00
1C00
1C00
1C00
1C00
1C00
1C00
1C00
ENDCHAR
STARTCHAR Iogonek
ENCODING 302
SWIDTH 246 0
DWIDTH 9 0
BBX 7 35 1 -8
BITMAP
1C
1C
1C
1C
1C
1C
1C
1C
1C
1C
1C
1C
1C
1C
1C
1C
1C
1C
1C
1C
1C
1C
1C
1C
1C
1C
1C
08
30
70
E0
E0
E2
FE
3C
ENDCHAR
STARTCHAR iogonek
ENCODING 303
SWIDTH 232 0
DWIDTH 9 0
BBX 7 35 0 -8
BITMAP
10
38
38
38
10
00
00
00
1C
1C
1C
1C
1C
1C
1C
1C
1C
1C
1C
1C
1C
1C
1C
1C
1C
1C
1C
18
30
70
E0
E0
E2
FE
3C
ENDCHAR
STARTCHAR Idotaccent
ENCODING 304
SWIDTH 246 0
DWIDTH 9 0
BBX 3 35 3 0
BITMAP
40
E0
E0
E0
40
00
00
00
E0
E0
E0
E0
E0
E0
E0
E0
E0
E0
E0
E0
E0
E0
E0
E0
E0
E0
E0
E0
E0
E0
E0
E0
E0
E0
E0
ENDCHAR
STARTCHAR dotlessi
ENCODING 305
SWIDTH 232 0
DWIDTH 9 0
BBX 3 19 3 0
BITMAP
E0
E0
E0
E0
E0
E0
E0
E0
E0
E0
E0
E0
E0
E0
E0
E0
E0
E0
E0
ENDCHAR
STARTCHAR IJ
ENCODING 306
SWIDTH 634 0
DWIDTH 24 0
BBX 18 27 3 0
BITMAP
E001C0
E001C0
E001C0
E001C0
E001C0
E001C0
E001C0
E001C0
E001C0
E001C0
E001C0
E001C0
E001C0
E001C0
E001C0
E001C0
E001C0
E001C0
E001C0
E001C0
E001C0
E081C0
E383C0
E3C380
E1FF80
E0FF00
E07E00
ENDCHAR
STARTCHAR ij
ENCODING 307
SWIDTH 457 0
DWIDTH 16 0
BBX 12 36 2 -9
BITMAP
4020
E070
E070
E070
4020
0000
0000
0000
E070
E070
E070
E070
E070
E070
E070
E070
E070
E070
E070
E070
E070
E070
E070
E070
E070
E070
E070
0070
0070
0070
0070
0070
00F0
07E0
07E0
0780
ENDCHAR
STARTCHAR Jcircumflex
ENCODING 308
SWIDTH 395 0
DWIDTH 15 0
BBX 16 34 0 0
BITMAP
0070
00D8
01DC
038E
0707
0000
0000
0070
0070
0070
0070
0070
0070
0070
0070
0070
0070
0070
0070
0070
0070
0070
0070
0070
0070
0070
0070
0070
2070
E0F0
F0E0
7FE0
3FC0
1F80
ENDCHAR
STARTCHAR jcircumflex
ENCODING 309
SWIDTH 233 0
DWIDTH 9 0
BBX 11 36 -1 -9
BITMAP
0E00
1B00
3B80
71C0
E0E0
0000
0000
0000
0E00
0E00
0E00
0E00
0E00
0E00
0E00
0E00
0E00
0E00
0E00
0E00
0E00
0E00
0E00
0E00
0E00
0E00
0E00
0E00
0E00
0E00
0E00
0E00
1E00
FC00
FC00
F000
ENDCHAR
STARTCHAR Kcommaaccent
ENCODING 310
SWIDTH 499 0
DWIDTH 19 0
BBX 15 36 3 -9
BITMAP
E03E
E03C
E078
E070
E0F0
E1E0
E1C0
E3C0
E780
E700
EF00
FE00
FC00
FE00
EE00
EF00
E780
E380
E3C0
E1E0
E1E0
E0F0
E078
E078
E03C
E03C
E01E
0000
0000
0380
0700
0700
0700
0600
0E00
0E00
ENDCHAR
STARTCHAR kcommaaccent
ENCODING 311
SWIDTH 421 0
DWIDTH 16 0
BBX 13 38 3 -9
BITMAP
E000
E000
E000
E000
E000
E000
E000
E000
E000
E000
E0F0
E0E0
E1E0
E3C0
E380
E700
EF00
EE00
FC00
FC00
EE00
EF00
E700
E380
E3C0
E1C0
E1E0
E0F0
E070
0008
0000
0600
0E00
0E00
0C00
0C00
1C00
1C00
ENDCHAR
STARTCHAR Lacute
ENCODING 313
SWIDTH 373 0
DWIDTH 14 0
BBX 11 34 3 0
BITMAP
0E00
1C00
3800
7000
6000
8000
0000
E000
E000
E000
E000
E000
E000
E000
E000
E000
E000
E000
E000
E000
E000
E000
E000
E000
E000
E000
E000
E000
E000
E000
E000
FFE0
FFE0
FFE0
ENDCHAR
STARTCHAR lacute
ENCODING 314
SWIDTH 232 0
DWIDTH 9 0
BBX 6 36 3 0
BITMAP
1C
38
70
70
E0
00
00
E0
E0
E0
E0
E0
E0
E0
E0
E0
E0
E0
E0
E0
E0
E0
E0
E0
E0
E0
E0
E0
E0
E0
E0
E0
E0
E0
E0
E0
ENDCHAR
STARTCHAR Lcommaaccent
ENCODING 315
SWIDTH 373 0
DWIDTH 14 0
BBX 11 36 3 -9
BITMAP
E000
E000
E000
E000
E000
E000
E000
E000
E000
E000
E000
E000
E000
E000
E000
E000
E000
E000
E000
E000
E000
E000
E000
E000
FFE0
FFE0
FFE0
0000
0000
0E00
0E00
0C00
1C00
1C00
1C00
1800
ENDCHAR
STARTCHAR lcommaaccent
ENCODING 316
SWIDTH 232 0
DWIDTH 9 0
BBX 5 38 1 -9
BITMAP
38
38
38
38
38
38
38
38
38
38
38
38
38
38
38
38
38
38
38
38
38
38
38
38
38
38
38
38
38
00
00
38
30
70
70
70
60
E0
ENDCHAR
STARTCHAR Lcaron
ENCODING 317
SWIDTH 373 0
DWIDTH 14 0
BBX 11 27 3 0
BITMAP
E1C0
E1C0
E180
E380
E380
E380
E300
E000
E000
E000
E000
E000
E000
E000
E000
E000
E000
E000
E000
E000
E000
E000
E000
E000
FFE0
FFE0
FFE0
ENDCHAR
STARTCHAR lcaron
ENCODING 318
SWIDTH 232 0
DWIDTH 9 0
BBX 9 29 3 0
BITMAP
E000
E000
E380
E380
E300
E700
E700
E700
E600
E000
E000
E000
E000
E000
E000
E000
E000
E000
E000
E000
E000
E000
E000
E000
E000
E000
E000
E000
E000
ENDCHAR
STARTCHAR Ldot
ENCODING 319
SWIDTH 373 0
DWIDTH 14 0
BBX 11 27 3 0
BITMAP
E000
E000
E000
E000
E000
E000
E000
E000
E000
E000
E000
E000
E080
E1C0
E1C0
E1C0
E080
E000
E000
E000
E000
E000
E000
E000
FFE0
FFE0
FFE0
ENDCHAR
STARTCHAR ldot
ENCODING 320
SWIDTH 320 0
DWIDTH 10 0
BBX 8 29 3 0
BITMAP
E0
E0
E0
E0
E0
E0
E0
E0
E0
E0
E0
E0
E0
E0
E2
E7
E7
E7
E2
E0
E0
E0
E0
E0
E0
E0
E0
E0
E0
ENDCHAR
STARTCHAR Lslash
ENCODING 321
SWIDTH 369 0
DWIDTH 14 0
BBX 13 27 1 0
BITMAP
3800
3800
3800
3800
3800
3800
3800
3800
3840
38C0
39C0
3B80
3F00
3E00
3C00
3800
7800
F800
F800
B800
3800
3800
3800
3800
3FF8
3FF8
3FF8
ENDCHAR
STARTCHAR lslash
ENCODING 322
SWIDTH 236 0
DWIDTH 9 0
BBX 7 29 1 0
BITMAP
38
38
38
38
38
38
38
38
38
38
3A
3E
3E
3C
78
F8
F8
B8
B8
38
38
38
38
38
38
38
38
38
38
ENDCHAR
STARTCHAR Nacute
ENCODING 323
SWIDTH 573 0
DWIDTH 22 0
BBX 16 34 3 0
BITMAP
0078
0070
00E0
01C0
0380
0000
0000
F007
F807
F807
FC07
FC07
FC07
FE07
EE07
EF07
EF07
E787
E787
E387
E3C7
E1C7
E1E7
E1E7
E0E7
E0F7
E077
E07F
E03F
E03F
E03F
E01F
E01F
E00F
ENDCHAR
STARTCHAR nacute
ENCODING 324
SWIDTH 483 0
DWIDTH 18 0
BBX 12 27 3 0
BITMAP
01C0
0380
0300
0700
0E00
0000
0000
0000
E7C0
EFE0
FFE0
F8F0
F070
F070
E070
E070
E070
E070
E070
E070
E070
E070
E070
E070
E070
E070
E070
ENDCHAR
STARTCHAR Ncommaaccent
ENCODING 325
SWIDTH 573 0
DWIDTH 22 0
BBX 16 36 3 -9
BITMAP
F007
F807
F807
FC07
FC07
FC07
FE07
EE07
EF07
EF07
E787
E787
E387
E3C7
E1C7
E1E7
E1E7
E0E7
E0F7
E077
E07F
E03F
E03F
E03F
E01F
E01F
E00F
0000
0000
0380
0380
0380
0300
0300
0700
0700
ENDCHAR
STARTCHAR ncommaaccent
ENCODING 326
SWIDTH 483 0
DWIDTH 18 0
BBX 12 28 3 -9
BITMAP
E3C0
EFE0
EFE0
F8F0
F070
F070
E070
E070
E070
E070
E070
E070
E070
E070
E070
E070
E070
E070
E070
0000
0000
0E00
0E00
0E00
0C00
0C00
1C00
1800
ENDCHAR
STARTCHAR Ncaron
ENCODING 327
SWIDTH 573 0
DWIDTH 22 0
BBX 16 34 3 0
BITMAP
3C3C
0C30
0E70
07E0
03C0
0000
0000
F007
F807
F807
FC07
FC07
FC07
FE07
EE07
EF07
EF07
E787
E787
E387
E3C7
E1C7
E1E7
E1E7
E0E7
E0F7
E077
E07F
E03F
E03F
E03F
E01F
E01F
E00F
ENDCHAR
STARTCHAR ncaron
ENCODING 328
SWIDTH 483 0
DWIDTH 18 0
BBX 12 27 3 0
BITMAP
70E0
30C0
1980
1F80
0F00
0000
0000
0000
E7C0
EFE0
FFE0
F8F0
F070
F070
E070
E070
E070
E070
E070
E070
E070
E070
E070
E070
E070
E070
E070
ENDCHAR
STARTCHAR napostrophe
ENCODING 329
SWIDTH 513 0
DWIDTH 20 0
BBX 17 27 0 0
BITMAP
380000
700000
700000
700000
600000
E00000
E00000
003C00
0E7F00
0EFF00
0E8780
0F0780
0F0380
0E0380
0E0380
0E0380
0E0380
0E0380
0E0380
0E0380
0E0380
0E0380
0E0380
0E0380
0E0380
0E0380
0E0380
ENDCHAR
STARTCHAR Omacron
ENCODING 332
SWIDTH 579 0
DWIDTH 22 0
BBX 18 33 2 0
BITMAP
0FFC00
0FFC00
000000
000000
000000
000000
03F000
0FFC00
1FFE00
3E1E00
3C0F00
780780
700380
700380
F00380
E001C0
E001C0
E001C0
E001C0
E001C0
E001C0
E001C0
E001C0
E001C0
7003C0
700380
700380
780780
3C0F00
1E1E00
1FFE00
0FFC00
03F000
ENDCHAR
STARTCHAR omacron
ENCODING 333
SWIDTH 455 0
DWIDTH 17 0
BBX 13 25 2 0
BITMAP
3FE0
3FE0
0000
0000
0000
0000
0F80
1FC0
3FE0
78F0
7070
F078
E038
E038
E038
E038
E038
E038
E038
F078
7070
78F0
3FE0
1FC0
0F80
ENDCHAR
STARTCHAR Obreve
ENCODING 334
SWIDTH 579 0
DWIDTH 22 0
BBX 18 34 2 0
BITMAP
0C0C00
0C0C00
0E1800
07F800
01E000
000000
000000
03F000
0FFC00
1FFE00
3E1E00
3C0F00
780780
700380
700380
F00380
E001C0
E001C0
E001C0
E001C0
E001C0
E001C0
E001C0
E001C0
E001C0
7003C0
700380
700380
780780
3C0F00
1E1E00
1FFE00
0FFC00
03F000
ENDCHAR
STARTCHAR obreve
ENCODING 335
SWIDTH 455 0
DWIDTH 17 0
BBX 13 27 2 0
BITMAP
3070
3060
38E0
1FC0
0F80
0000
0000
0000
0F80
1FC0
3FE0
78F0
7070
F078
E038
E038
E038
E038
E038
E038
E038
F078
7070
78F0
3FE0
1FC0
0F80
ENDCHAR
STARTCHAR Ohungarumlaut
ENCODING 336
SWIDTH 579 0
DWIDTH 22 0
BBX 18 34 2 0
BITMAP
00F780
01C700
01CE00
039C00
071800
002000
000000
03F000
0FFC00
1FFE00
3E1E00
3C0F00
780780
700380
700380
F00380
E001C0
E001C0
E001C0
E001C0
E001C0
E001C0
E001C0
E001C0
E001C0
7003C0
700380
700380
780780
3C0F00
1E1E00
1FFE00
0FFC00
03F000
ENDCHAR
STARTCHAR ohungarumlaut
ENCODING 337
SWIDTH 455 0
DWIDTH 17 0
BBX 14 27 2 0
BITMAP
079C
0738
0E70
0C60
18C0
0000
0000
0000
0F80
1FC0
3FE0
78F0
7070
F078
E038
E038
E038
E038
E038
E038
E038
F078
7070
78F0
3FE0
1FC0
0F80
ENDCHAR
STARTCHAR OE
ENCODING 338
SWIDTH 684 0
DWIDTH 26 0
BBX 22 27 2 0
BITMAP
03FFFC
0FFFFC
1FFFFC
3E1C00
3C1C00
781C00
701C00
701C00
F01C00
E01C00
E01C00
E01C00
E01FF8
E01FF8
E01FF8
E01C00
E01C00
E01C00
F01C00
701C00
701C00
781C00
3C1C00
1E1C00
1FFFFC
0FFFFC
03FFFC
ENDCHAR
STARTCHAR oe
ENCODING 339
SWIDTH 711 0
DWIDTH 27 0
BBX 23 19 2 0
BITMAP
0F83E0
1FC7F8
3FEFFC
78FE3C
707C1C
F0780E
E0380E
E03FFE
E03FFE
E03FFE
E03800
E03800
E03800
F07C10
707C1C
78FE1E
3FEFFC
1FC7F8
0F83E0
ENDCHAR
STARTCHAR Racute
ENCODING 340
SWIDTH 492 0
DWIDTH 19 0
BBX 14 34 3 0
BITMAP
01E0
01C0
0380
0700
0E00
0000
0000
FFC0
FFF0
FFF8
E078
E03C
E01C
E01C
E01C
E01C
E01C
E038
E078
FFF0
FFE0
FFC0
E3C0
E1C0
E1E0
E0E0
E0F0
E0F0
E070
E078
E038
E03C
E03C
E01C
ENDCHAR
STARTCHAR racute
ENCODING 341
SWIDTH 285 0
DWIDTH 11 0
BBX 8 27 3 0
BITMAP
0E
1C
38
30
70
00
00
00
07
EF
EE
F8
F0
F0
E0
E0
E0
E0
E0
E0
E0
E0
E0
E0
E0
E0
E0
ENDCHAR
STARTCHAR Rcommaaccent
ENCODING 342
SWIDTH 492 0
DWIDTH 19 0
BBX 14 36 3 -9
BITMAP
FFC0
FFF0
FFF8
E078
E03C
E01C
E01C
E01C
E01C
E01C
E038
E078
FFF0
FFE0
FFC0
E3C0
E1C0
E1E0
E0E0
E0F0
E0F0
E070
E078
E038
E03C
E03C
E01C
0000
0000
0700
0700
0700
0600
0E00
0E00
0C00
ENDCHAR
STARTCHAR rcommaaccent
ENCODING 343
SWIDTH 285 0
DWIDTH 11 0
BBX 10 28 1 -9
BITMAP
01C0
3BC0
3B80
3E00
3C00
3C00
3800
3800
3800
3800
3800
3800
3800
3800
3800
3800
3800
3800
3800
0000
0000
3800
3000
7000
7000
7000
6000
E000
ENDCHAR
STARTCHAR Rcaron
ENCODING 344
SWIDTH 492 0
DWIDTH 19 0
BBX 14 34 3 0
BITMAP
60F0
30E0
19C0
0F80
0F00
0000
0000
FFC0
FFF0
FFF8
E078
E03C
E01C
E01C
E01C
E01C
E01C
E038
E078
FFF0
FFE0
FFC0
E3C0
E1C0
E1E0
E0E0
E0F0
E0F0
E070
E078
E038
E03C
E03C
E01C
ENDCHAR
STARTCHAR rcaron
ENCODING 345
SWIDTH 285 0
DWIDTH 11 0
BBX 11 27 1 0
BITMAP
E0E0
71C0
3B80
1B00
0F00
0000
0000
0000
01C0
3BC0
3B80
3E00
3C00
3C00
3800
3800
3800
3800
3800
3800
3800
3800
3800
3800
3800
3800
3800
ENDCHAR
STARTCHAR Sacute
ENCODING 346
SWIDTH 440 0
DWIDTH 17 0
BBX 14 34 1 0
BITMAP
0078
00E0
00E0
01C0
0380
0000
0000
07E0
0FF8
1FFC
3C38
7810
7000
7000
7000
7000
7800
3C00
3E00
1F80
0FE0
03F0
00F8
0078
003C
001C
001C
001C
001C
603C
7878
FFF8
3FF0
0FC0
ENDCHAR
STARTCHAR sacute
ENCODING 347
SWIDTH 353 0
DWIDTH 13 0
BBX 11 27 1 0
BITMAP
01E0
0180
0380
0700
0600
0800
0000
0000
0F80
3FC0
3FE0
78C0
7080
7000
7000
3800
3E00
0F80
03C0
01E0
00E0
00E0
40E0
E1E0
FFC0
7F80
1F00
ENDCHAR
STARTCHAR Scircumflex
ENCODING 348
SWIDTH 440 0
DWIDTH 17 0
BBX 14 34 1 0
BITMAP
03C0
07C0
0E60
1C30
1C18
2000
0000
07E0
0FF8
1FFC
3C38
7810
7000
7000
7000
7000
7800
3C00
3E00
1F80
0FE0
03F0
00F8
0078
003C
001C
001C
001C
001C
603C
7878
FFF8
3FF0
0FC0
ENDCHAR
STARTCHAR scircumflex
ENCODING 349
SWIDTH 353 0
DWIDTH 13 0
BBX 12 27 1 0
BITMAP
0700
0D80
1DC0
38E0
7070
0000
0000
0000
0F80
3FC0
3FE0
78C0
7080
7000
7000
3800
3E00
0F80
03C0
01E0
00E0
00E0
40E0
E1E0
FFC0
7F80
1F00
ENDCHAR
STARTCHAR Scedilla
ENCODING 350
SWIDTH 440 0
DWIDTH 17 0
BBX 14 36 1 -9
BITMAP
07E0
1FF8
3FFC
3C38
7810
7000
7000
7000
7000
7800
3C00
3E00
1F80
0FE0
03F0
00F8
0078
003C
001C
001C
001C
001C
603C
F878
FFF0
3FE0
0FC0
0300
0600
07C0
0FE0
00E0
00E0
21E0
1FC0
1F80
ENDCHAR
STARTCHAR scedilla
ENCODING 351
SWIDTH 353 0
DWIDTH 13 0
BBX 12 28 1 -9
BITMAP
0F80
3FE0
3FF0
78E0
7040
7000
7000
3800
3E00
0F80
03C0
01E0
00E0
00E0
40E0
71E0
FFC0
7FC0
1F00
0600
0C00
0F80
1FC0
01C0
01C0
43C0
3F80
3F00
ENDCHAR
STARTCHAR Scaron
ENCODING 352
SWIDTH 440 0
DWIDTH 17 0
BBX 14 34 1 0
BITMAP
3838
1C70
0E60
06C0
03C0
0000
0000
07E0
0FF8
1FFC
3C38
7810
7000
7000
7000
7000
7800
3C00
3E00
1F80
0FE0
03F0
00F8
0078
003C
001C
001C
001C
001C
603C
7878
FFF8
3FF0
0FC0
ENDCHAR
STARTCHAR scaron
ENCODING 353
SWIDTH 353 0
DWIDTH 13 0
BBX 12 27 1 0
BITMAP
7070
38E0
1CC0
0D80
0780
0000
0000
0000
0F80
3FC0
3FE0
78C0
7080
7000
7000
3800
3E00
0F80
03C0
01E0
00E0
00E0
40E0
E1E0
FFC0
7F80
1F00
ENDCHAR
STARTCHAR Tcommaaccent
ENCODING 354
SWIDTH 359 0
DWIDTH 14 0
BBX 13 36 0 -9
BITMAP
FFF8
FFF8
FFF8
0700
0700
0700
0700
0700
0700
0700
0700
0700
0700
0700
0700
0700
0700
0700
0700
0700
0700
0700
0700
0700
0700
0700
0700
0000
0000
0700
0600
0E00
0E00
0E00
0C00
1C00
ENDCHAR
STARTCHAR tcommaaccent
ENCODING 355
SWIDTH 264 0
DWIDTH 10 0
BBX 8 33 1 -9
BITMAP
38
38
38
38
38
FF
FF
FF
38
38
38
38
38
38
38
38
38
38
38
38
3C
3F
1F
0F
00
00
0E
0C
1C
1C
1C
18
38
ENDCHAR
STARTCHAR Tcaron
ENCODING 356
SWIDTH 359 0
DWIDTH 14 0
BBX 13 34 0 0
BITMAP
7070
38E0
1DC0
0D80
0700
0000
0000
FFF8
FFF8
FFF8
0700
0700
0700
0700
0700
0700
0700
0700
0700
0700
0700
0700
0700
0700
0700
0700
0700
0700
0700
0700
0700
0700
0700
0700
ENDCHAR
STARTCHAR tcaron
ENCODING 357
SWIDTH 264 0
DWIDTH 10 0
BBX 11 28 1 0
BITMAP
00E0
00E0
00C0
01C0
39C0
3980
3980
3A00
3800
FF00
FF00
FF00
3800
3800
3800
3800
3800
3800
3800
3800
3800
3800
3800
3800
3C00
3F00
1F00
0F00
ENDCHAR
STARTCHAR Tbar
ENCODING 358
SWIDTH 355 0
DWIDTH 13 0
BBX 13 27 0 0
BITMAP
FFF8
FFF8
FFF8
0700
0700
0700
0700
3FE0
3FE0
0700
0700
0700
0700
0700
0700
0700
0700
0700
0700
0700
0700
0700
0700
0700
0700
0700
0700
ENDCHAR
STARTCHAR tbar
ENCODING 359
SWIDTH 264 0
DWIDTH 10 0
BBX 8 24 1 0
BITMAP
38
38
38
38
38
FF
FF
FF
38
38
38
38
FF
FF
38
38
38
38
38
38
3C
3F
1F
0F
ENDCHAR
STARTCHAR Utilde
ENCODING 360
SWIDTH 557 0
DWIDTH 21 0
BBX 15 33 3 0
BITMAP
1E18
3FF8
30F0
0000
0000
0000
E00E
E00E
E00E
E00E
E00E
E00E
E00E
E00E
E00E
E00E
E00E
E00E
E00E
E00E
E00E
E00E
E00E
E00E
E00E
E00E
E00E
F01E
701C
783C
3FF8
1FF0
07C0
ENDCHAR
STARTCHAR utilde
ENCODING 361
SWIDTH 483 0
DWIDTH 18 0
BBX 12 26 3 0
BITMAP
3860
3E60
67C0
61C0
0000
0000
E070
E070
E070
E070
E070
E070
E070
E070
E070
E070
E070
E070
E070
E070
E0F0
E0F0
F1F0
7FF0
7F70
3E70
ENDCHAR
STARTCHAR Umacron
ENCODING 362
SWIDTH 557 0
DWIDTH 21 0
BBX 15 33 3 0
BITMAP
1FF8
1FF8
0000
0000
0000
0000
E00E
E00E
E00E
E00E
E00E
E00E
E00E
E00E
E00E
E00E
E00E
E00E
E00E
E00E
E00E
E00E
E00E
E00E
E00E
E00E
E00E
F01E
701C
783C
3FF8
1FF0
07C0
ENDCHAR
STARTCHAR umacron
ENCODING 363
SWIDTH 483 0
DWIDTH 18 0
BBX 12 25 3 0
BITMAP
7FE0
7FE0
0000
0000
0000
E070
E070
E070
E070
E070
E070
E070
E070
E070
E070
E070
E070
E070
E070
E0F0
E0F0
F1F0
7FF0
7F70
3E70
ENDCHAR
STARTCHAR Ubreve
ENCODING 364
SWIDTH 557 0
DWIDTH 21 0
BBX 15 34 3 0
BITMAP
3838
1830
1C70
0FE0
07C0
0000
0000
E00E
E00E
E00E
E00E
E00E
E00E
E00E
E00E
E00E
E00E
E00E
E00E
E00E
E00E
E00E
E00E
E00E
E00E
E00E
E00E
E00E
F01E
701C
783C
3FF8
1FF0
07C0
ENDCHAR
STARTCHAR ubreve
ENCODING 365
SWIDTH 483 0
DWIDTH 18 0
BBX 12 27 3 0
BITMAP
6060
6060
30C0
3FC0
0F00
0000
0000
E070
E070
E070
E070
E070
E070
E070
E070
E070
E070
E070
E070
E070
E070
E0F0
E0F0
F1F0
7F70
7F70
3C70
ENDCHAR
STARTCHAR Uring
ENCODING 366
SWIDTH 557 0
DWIDTH 21 0
BBX 15 37 3 0
BITMAP
0380
07C0
0EE0
0C60
0C60
0C60
0EE0
07C0
0380
0000
E00E
E00E
E00E
E00E
E00E
E00E
E00E
E00E
E00E
E00E
E00E
E00E
E00E
E00E
E00E
E00E
E00E
E00E
E00E
E00E
E00E
F01E
701C
783C
3FF8
1FF0
07C0
ENDCHAR
STARTCHAR uring
ENCODING 367
SWIDTH 483 0
DWIDTH 19 0
BBX 13 29 3 0
BITMAP
0700
0F80
19C0
18C0
18C0
19C0
0F80
0700
0000
E038
E038
E038
E038
E038
E038
E038
E038
E038
E038
E038
E038
E038
E038
E078
F078
70F8
7FF8
3FB8
1F38
ENDCHAR
STARTCHAR Uhungarumlaut
ENCODING 368
SWIDTH 557 0
DWIDTH 21 0
BBX 15 34 3 0
BITMAP
01CE
039C
0738
0630
0C60
0000
0000
E00E
E00E
E00E
E00E
E00E
E00E
E00E
E00E
E00E
E00E
E00E
E00E
E00E
E00E
E00E
E00E
E00E
E00E
E00E
E00E
E00E
F01E
701C
783C
3FF8
1FF0
07C0
ENDCHAR
STARTCHAR uhungarumlaut
ENCODING 369
SWIDTH 483 0
DWIDTH 18 0
BBX 14 27 3 0
BITMAP
073C
0E70
0C70
1CE0
19C0
2000
0000
E070
E070
E070
E070
E070
E070
E070
E070
E070
E070
E070
E070
E070
E070
E0F0
E0F0
F1F0
7F70
7F70
3C70
ENDCHAR
STARTCHAR Uogonek
ENCODING 370
SWIDTH 557 0
DWIDTH 21 0
BBX 15 35 3 -8
BITMAP
E00E
E00E
E00E
E00E
E00E
E00E
E00E
E00E
E00E
E00E
E00E
E00E
E00E
E00E
E00E
E00E
E00E
E00E
E00E
E00E
E00E
F01E
701C
783C
3FF8
1FF0
0FE0
0380
0700
0600
0E00
0E00
0E40
0FE0
03C0
ENDCHAR
STARTCHAR uogonek
ENCODING 371
SWIDTH 483 0
DWIDTH 18 0
BBX 13 28 3 -8
BITMAP
E070
E070
E070
E070
E070
E070
E070
E070
E070
E070
E070
E070
E070
E070
E0F0
E0F0
F1F0
7FF0
7F70
3E70
0060
00C0
01C0
0380
0380
0390
03F0
01E8
ENDCHAR
STARTCHAR Wcircumflex
ENCODING 372
SWIDTH 744 0
DWIDTH 28 0
BBX 27 34 1 0
BITMAP
001E0000
001F0000
00338000
0071C000
00E0C000
00002000
00000000
E01E01E0
E01F01E0
F01F01C0
F01F01C0
F03F01C0
703F03C0
703F03C0
703B8380
783B8380
78338380
38738380
38738780
3871C700
3871C700
3C61C700
1CE1C700
1CE1C700
1CE1EE00
1CE0EE00
1CE0EE00
1FC0EE00
0FC0EE00
0FC0EC00
0FC07C00
0FC07C00
0F807C00
07807C00
ENDCHAR
STARTCHAR wcircumflex
ENCODING 373
SWIDTH 600 0
DWIDTH 23 0
BBX 21 27 1 0
BITMAP
007000
00D800
01DC00
038E00
070700
000000
000000
000000
E07038
E07078
F0F078
F0F870
70F870
70F870
70D870
71D8E0
39DCE0
399CE0
398CE0
398CE0
3B8CC0
1B0FC0
1F0FC0
1F07C0
1F07C0
1F0780
0E0780
ENDCHAR
STARTCHAR Ycircumflex
ENCODING 374
SWIDTH 437 0
DWIDTH 17 0
BBX 17 34 0 0
BITMAP
01C000
036000
077000
0E3800
1C1C00
000000
000000
F00780
780700
780F00
380E00
3C1E00
1C1C00
1C1C00
1E3C00
0E3800
0E3800
077000
077000
077000
03E000
03E000
01C000
01C000
01C000
01C000
01C000
01C000
01C000
01C000
01C000
01C000
01C000
01C000
ENDCHAR
STARTCHAR ycircumflex
ENCODING 375
SWIDTH 396 0
DWIDTH 15 0
BBX 14 36 1 -9
BITMAP
0780
0F80
1CC0
38E0
3070
4000
0000
0000
E03C
E038
F038
7078
7070
7070
7870
3870
38E0
38E0
1CE0
1CE0
1DC0
1DC0
0FC0
0F80
0F80
0780
0780
0700
0700
0700
0F00
0E00
1E00
FC00
FC00
F000
ENDCHAR
STARTCHAR Ydieresis
ENCODING 376
SWIDTH 437 0
DWIDTH 17 0
BBX 17 33 -1 0
BITMAP
071C00
071C00
071C00
000000
000000
000000
F00780
780700
780F00
380E00
3C1E00
1C1C00
1C1C00
1E3C00
0E3800
0E3800
077000
077000
077000
03E000
03E000
01C000
01C000
01C000
01C000
01C000
01C000
01C000
01C000
01C000
01C000
01C000
01C000
ENDCHAR
STARTCHAR Zacute
ENCODING 377
SWIDTH 411 0
DWIDTH 16 0
BBX 13 34 1 0
BITMAP
00E0
01C0
0380
0380
0700
0000
0000
7FF8
7FF8
7FF8
0078
0078
00F0
00F0
01E0
01E0
01C0
03C0
0380
0780
0700
0F00
0F00
1E00
1E00
3C00
3C00
3800
7800
7000
F000
FFF8
FFF8
FFF8
ENDCHAR
STARTCHAR zacute
ENCODING 378
SWIDTH 347 0
DWIDTH 13 0
BBX 11 27 1 0
BITMAP
01C0
0380
0700
0600
0E00
0000
0000
0000
7FE0
7FE0
7FE0
01E0
01C0
0380
0380
0700
0700
0E00
0C00
1C00
3800
3800
7000
7000
FFE0
FFE0
FFE0
ENDCHAR
STARTCHAR Zdotaccent
ENCODING 379
SWIDTH 411 0
DWIDTH 16 0
BBX 13 35 1 0
BITMAP
0200
0700
0700
0700
0200
0000
0000
0000
7FF8
7FF8
7FF8
0078
0078
00F0
00F0
01E0
01E0
01C0
03C0
0380
0780
0700
0F00
0F00
1E00
1E00
3C00
3C00
3800
7800
7000
F000
FFF8
FFF8
FFF8
ENDCHAR
STARTCHAR zdotaccent
ENCODING 380
SWIDTH 347 0
DWIDTH 13 0
BBX 11 27 1 0
BITMAP
0400
0E00
0E00
0E00
0400
0000
0000
0000
7FE0
7FE0
7FE0
01E0
01C0
0380
0380
0700
0700
0E00
0C00
1C00
3800
3800
7000
7000
FFE0
FFE0
FFE0
ENDCHAR
STARTCHAR Zcaron
ENCODING 381
SWIDTH 411 0
DWIDTH 16 0
BBX 13 34 1 0
BITMAP
3870
1860
1CE0
0FC0
0780
0000
0000
7FF8
7FF8
7FF8
0078
0078
00F0
00F0
01E0
01E0
01C0
03C0
0380
0780
0700
0F00
0F00
1E00
1E00
3C00
3C00
3800
7800
7000
F000
FFF8
FFF8
FFF8
ENDCHAR
STARTCHAR zcaron
ENCODING 382
SWIDTH 347 0
DWIDTH 13 0
BBX 12 27 1 0
BITMAP
70F0
30C0
19C0
1F80
0F00
0000
0000
0000
7FE0
7FE0
7FE0
01E0
01C0
0380
0380
0700
0700
0E00
0C00
1C00
3800
3800
7000
7000
FFE0
FFE0
FFE0
ENDCHAR
STARTCHAR florin
ENCODING 402
SWIDTH 482 0
DWIDTH 18 0
BBX 17 32 0 -5
BITMAP
001F00
003F80
007F80
007900
00F000
00F000
00E000
00E000
00E000
01E000
01E000
1FFE00
1FFE00
01C000
01C000
03C000
03C000
038000
038000
038000
038000
078000
078000
070000
070000
070000
070000
0F0000
0E0000
7E0000
7C0000
F80000
ENDCHAR
STARTCHAR Scommaaccent
ENCODING 536
SWIDTH 440 0
DWIDTH 17 0
BBX 14 36 1 -9
BITMAP
07E0
0FF8
1FFC
3C38
7810
7000
7000
7000
7000
7800
3C00
3E00
1F80
0FE0
03F0
00F8
0078
003C
001C
001C
001C
001C
603C
7878
FFF8
3FF0
0FC0
0000
0000
0700
0700
0700
0600
0E00
0E00
0E00
ENDCHAR
STARTCHAR scommaaccent
ENCODING 537
SWIDTH 353 0
DWIDTH 13 0
BBX 11 28 1 -9
BITMAP
0F80
3FC0
3FE0
78C0
7080
7000
7000
3800
3E00
0F80
03C0
01E0
00E0
00E0
40E0
E1E0
FFC0
7F80
1F00
0000
0000
0E00
0E00
0C00
1C00
1C00
1800
3800
ENDCHAR
STARTCHAR uni021A
ENCODING 538
SWIDTH 359 0
DWIDTH 14 0
BBX 13 36 0 -9
BITMAP
FFF8
FFF8
FFF8
0700
0700
0700
0700
0700
0700
0700
0700
0700
0700
0700
0700
0700
0700
0700
0700
0700
0700
0700
0700
0700
0700
0700
0700
0000
0000
0700
0600
0E00
0E00
0E00
0C00
1C00
ENDCHAR
STARTCHAR uni021B
ENCODING 539
SWIDTH 264 0
DWIDTH 10 0
BBX 8 33 1 -9
BITMAP
38
38
38
38
38
FF
FF
FF
38
38
38
38
38
38
38
38
38
38
38
38
3C
3F
1F
0F
00
00
0C
1C
1C
18
18
38
38
ENDCHAR
STARTCHAR circumflex
ENCODING 710
SWIDTH 235 0
DWIDTH 9 0
BBX 11 5 -1 22
BITMAP
0E00
1B00
3B80
71C0
E0E0
ENDCHAR
STARTCHAR caron
ENCODING 711
SWIDTH 235 0
DWIDTH 9 0
BBX 11 5 -1 22
BITMAP
E0E0
71C0
3B80
1B00
0E00
ENDCHAR
STARTCHAR uni02C9
ENCODING 713
SWIDTH 235 0
DWIDTH 8 0
BBX 10 2 -1 31
BITMAP
FFC0
FFC0
ENDCHAR
STARTCHAR breve
ENCODING 728
SWIDTH 235 0
DWIDTH 9 0
BBX 10 5 -1 22
BITMAP
C0C0
C1C0
6180
7F80
1E00
ENDCHAR
STARTCHAR dotaccent
ENCODING 729
SWIDTH 235 0
DWIDTH 9 0
BBX 3 5 3 22
BITMAP
40
E0
E0
E0
40
ENDCHAR
STARTCHAR ring
ENCODING 730
SWIDTH 235 0
DWIDTH 10 0
BBX 8 8 1 21
BITMAP
3C
7E
E7
C3
C3
E7
7E
3C
ENDCHAR
STARTCHAR ogonek
ENCODING 731
SWIDTH 235 0
DWIDTH 9 0
BBX 7 8 1 -8
BITMAP
1C
30
70
E0
E0
E2
FE
3C
ENDCHAR
STARTCHAR tilde
ENCODING 732
SWIDTH 235 0
DWIDTH 9 0
BBX 11 4 -1 22
BITMAP
7860
7C60
C7C0
C3C0
ENDCHAR
STARTCHAR hungarumlaut
ENCODING 733
SWIDTH 235 0
DWIDTH 9 0
BBX 12 5 -1 22
BITMAP
1EF0
38E0
39C0
7380
E700
ENDCHAR
STARTCHAR uni034F
ENCODING 847
SWIDTH 0 0
DWIDTH 0 0
BBX 1 1 0 0
BITMAP
00
ENDCHAR
STARTCHAR uni0394
ENCODING 916
SWIDTH 678 0
DWIDTH 26 0
BBX 25 27 0 0
BITMAP
001E0000
003E0000
003F0000
003F0000
00770000
00778000
00F38000
00E3C000
00E3C000
01E1C000
01C1E000
03C0E000
0380F000
0380F000
07807000
07007800
0F003800
0F003C00
0E003C00
1E001C00
1C001E00
1C000E00
3C000F00
38000F00
7FFFFF00
7FFFFF80
FFFFFF80
ENDCHAR
STARTCHAR uni03A9
ENCODING 937
SWIDTH 752 0
DWIDTH 28 0
BBX 24 27 2 0
BITMAP
00FF00
03FFC0
0FFFF0
1F81F8
3E007C
3C003C
78001E
70000E
F0000F
E00007
E00007
E00007
E00007
E00007
E00007
70000E
70000E
38001C
3C003C
1F00F8
0FC3F0
03C3C0
01C380
01C380
FFC3FF
FFC3FF
FFC3FF
ENDCHAR
STARTCHAR uni03BC
ENCODING 956
SWIDTH 578 0
DWIDTH 21 0
BBX 15 28 3 -9
BITMAP
E00E
E00E
E00E
E00E
E00E
E00E
E00E
E00E
E00E
E00E
E00E
E00E
E00E
E01E
F01E
F87E
FFFE
FFEE
EF8E
E000
E000
E000
E000
E000
E000
E000
E000
E000
ENDCHAR
STARTCHAR pi
ENCODING 960
SWIDTH 578 0
DWIDTH 21 0
BBX 19 18 1 0
BITMAP
FFFFE0
FFFFE0
FFFFE0
1C0700
1C0700
1C0700
1C0700
1C0700
1C0700
1C0700
1C0700
1C0700
1C0700
1C0700
1C0700
1C07E0
1C07E0
1C03C0
ENDCHAR
STARTCHAR uni200B
ENCODING 8203
SWIDTH 0 0
DWIDTH 0 0
BBX 1 1 0 0
BITMAP
00
ENDCHAR
STARTCHAR uni200C
ENCODING 8204
SWIDTH 0 0
DWIDTH 0 0
BBX 1 1 0 0
BITMAP
00
ENDCHAR
STARTCHAR uni200D
ENCODING 8205
SWIDTH 0 0
DWIDTH 0 0
BBX 1 1 0 0
BITMAP
00
ENDCHAR
STARTCHAR endash
ENCODING 8211
SWIDTH 360 0
DWIDTH 14 0
BBX 12 3 1 9
BITMAP
FFF0
FFF0
FFF0
ENDCHAR
STARTCHAR emdash
ENCODING 8212
SWIDTH 460 0
DWIDTH 17 0
BBX 16 3 1 9
BITMAP
FFFF
FFFF
FFFF
ENDCHAR
STARTCHAR quoteleft
ENCODING 8216
SWIDTH 198 0
DWIDTH 8 0
BBX 4 9 2 18
BITMAP
30
30
70
60
60
60
60
E0
E0
ENDCHAR
STARTCHAR quoteright
ENCODING 8217
SWIDTH 198 0
DWIDTH 8 0
BBX 4 9 2 18
BITMAP
70
70
70
60
60
60
E0
E0
C0
ENDCHAR
STARTCHAR quotesinglbase
ENCODING 8218
SWIDTH 198 0
DWIDTH 8 0
BBX 4 9 2 -5
BITMAP
70
70
70
60
60
60
E0
E0
C0
ENDCHAR
STARTCHAR quotedblleft
ENCODING 8220
SWIDTH 335 0
DWIDTH 13 0
BBX 10 9 1 18
BITMAP
31C0
31C0
71C0
7180
7180
6380
6380
E380
E300
ENDCHAR
STARTCHAR quotedblright
ENCODING 8221
SWIDTH 333 0
DWIDTH 13 0
BBX 10 9 1 18
BITMAP
31C0
71C0
7180
7180
6380
6380
E380
E300
E300
ENDCHAR
STARTCHAR quotedblbase
ENCODING 8222
SWIDTH 333 0
DWIDTH 13 0
BBX 10 9 1 -5
BITMAP
31C0
71C0
7180
7180
6380
6380
E380
E300
E300
ENDCHAR
STARTCHAR dagger
ENCODING 8224
SWIDTH 379 0
DWIDTH 14 0
BBX 13 32 1 -5
BITMAP
0700
0700
0700
0700
0700
0700
0700
0700
FFF8
FFF8
FFF8
0700
0700
0700
0700
0700
0700
0700
0700
0700
0700
0700
0700
0700
0700
0700
0700
0700
0700
0700
0700
0700
ENDCHAR
STARTCHAR daggerdbl
ENCODING 8225
SWIDTH 379 0
DWIDTH 14 0
BBX 13 32 1 -5
BITMAP
0700
0700
0700
0700
0700
0700
0700
0700
FFF8
FFF8
FFF8
0700
0700
0700
0700
0700
0700
0700
0700
0700
0700
0700
FFF8
FFF8
FFF8
0700
0700
0700
0700
0700
0700
0700
ENDCHAR
STARTCHAR bullet
ENCODING 8226
SWIDTH 500 0
DWIDTH 19 0
BBX 13 13 3 7
BITMAP
0F80
3FE0
7FF0
7FF0
FFF8
FFF8
FFF8
FFF8
FFF8
7FF0
7FF0
3FE0
0F80
ENDCHAR
STARTCHAR ellipsis
ENCODING 8230
SWIDTH 900 0
DWIDTH 34 0
BBX 26 5 4 0
BITMAP
600C0180
F01E03C0
F01E03C0
F01E03C0
600C0180
ENDCHAR
STARTCHAR perthousand
ENCODING 8240
SWIDTH 900 0
DWIDTH 34 0
BBX 32 29 1 -1
BITMAP
00010000
1E018000
3F038000
73830000
E1C30000
E1C60000
E1C60000
E1CE0000
E1CC0000
E1CC0000
E1D80000
73980000
3F380000
1E300000
00300000
0073C078
0067E0FC
00EE71CE
00DC3B87
00DC3B87
01DC3B87
019C3B87
039C3B87
031C3B87
031C3B87
070E71CE
0607E0FC
0603C078
0C000000
ENDCHAR
STARTCHAR guilsinglleft
ENCODING 8249
SWIDTH 224 0
DWIDTH 8 0
BBX 6 16 1 2
BITMAP
08
1C
18
38
30
70
60
E0
E0
60
70
30
38
18
1C
08
ENDCHAR
STARTCHAR guilsinglright
ENCODING 8250
SWIDTH 224 0
DWIDTH 8 0
BBX 6 16 1 2
BITMAP
40
E0
60
70
30
38
18
1C
1C
18
38
30
70
60
E0
40
ENDCHAR
STARTCHAR fraction
ENCODING 8260
SWIDTH 100 0
DWIDTH 4 0
BBX 13 29 -5 -1
BITMAP
0020
0038
0030
0030
0070
0060
00E0
00C0
00C0
01C0
0180
0180
0300
0300
0700
0600
0600
0E00
0C00
1C00
1800
1800
3800
3000
7000
6000
6000
E000
4000
ENDCHAR
STARTCHAR Euro
ENCODING 8364
SWIDTH 482 0
DWIDTH 18 0
BBX 16 27 1 0
BITMAP
007E
01FF
07FE
0F82
0F00
1E00
1C00
1C00
3C00
FFFC
FFF8
3800
3800
3800
3800
3800
FFF0
FFF0
3800
3C00
1C00
1E00
1F00
0F82
07FE
03FF
00FC
ENDCHAR
STARTCHAR afii61289
ENCODING 8467
SWIDTH 500 0
DWIDTH 19 0
BBX 13 27 3 0
BITMAP
03E0
07F0
0E78
0C38
1C38
1C38
1C38
1C38
1C70
1C70
1CE0
1CE0
1DC0
1F80
1F00
1E00
3C00
7C00
FC00
DC00
9C00
1C00
1C00
1C00
1E18
0FF8
07E0
ENDCHAR
STARTCHAR trademark
ENCODING 8482
SWIDTH 760 0
DWIDTH 29 0
BBX 25 16 1 11
BITMAP
FF9E0780
FF9E0780
1C1E0780
1C1F0F80
1C1F0F80
1C1D0F80
1C1D0F80
1C1D9B80
1C1D9B80
1C1C9B80
1C1CFB80
1C1CF380
1C1C7380
1C1C7380
1C1C7380
001C6380
ENDCHAR
STARTCHAR Omega
ENCODING 8486
SWIDTH 752 0
DWIDTH 28 0
BBX 24 27 2 0
BITMAP
00FF00
03FFC0
0FFFF0
1F81F8
3E007C
3C003C
78001E
70000E
F0000F
E00007
E00007
E00007
E00007
E00007
E00007
70000E
70000E
38001C
3C003C
1F00F8
0FC3F0
03C3C0
01C380
01C380
FFC3FF
FFC3FF
FFC3FF
ENDCHAR
STARTCHAR estimated
ENCODING 8494
SWIDTH 800 0
DWIDTH 31 0
BBX 27 27 2 0
BITMAP
003F8000
01FFF000
07C07C00
0F001E00
1C000700
3C000700
3C000780
7C0007C0
7C0007C0
7C0007C0
FC0007E0
FC0007E0
FFFFFFE0
FFFFFFE0
FC000000
FC000000
FC000000
7C000000
7C000000
7C000100
3C000380
3C000700
1C000E00
0F001C00
07C07800
01FFF000
007F8000
ENDCHAR
STARTCHAR partialdiff
ENCODING 8706
SWIDTH 523 0
DWIDTH 20 0
BBX 17 27 1 0
BITMAP
07C000
1FF000
7FFC00
383C00
201E00
000F00
000700
000700
000380
000380
07C380
1FF380
3FFB80
7C1F80
780F80
F00780
E00380
E00380
E00380
E00300
E00700
E00700
700E00
780E00
3C3C00
1FF800
07E000
ENDCHAR
STARTCHAR Delta
ENCODING 8710
SWIDTH 678 0
DWIDTH 26 0
BBX 25 27 0 0
BITMAP
001E0000
003E0000
003F0000
003F0000
00770000
00778000
00F38000
00E3C000
00E3C000
01E1C000
01C1E000
03C0E000
0380F000
0380F000
07807000
07007800
0F003800
0F003C00
0E003C00
1E001C00
1C001E00
1C000E00
3C000F00
38000F00
7FFFFF00
7FFFFF80
FFFFFF80
ENDCHAR
STARTCHAR product
ENCODING 8719
SWIDTH 726 0
DWIDTH 28 0
BBX 22 38 3 -8
BITMAP
FFFFFC
FFFFFC
FFFFFC
E0001C
E0001C
E0001C
E0001C
E0001C
E0001C
E0001C
E0001C
E0001C
E0001C
E0001C
E0001C
E0001C
E0001C
E0001C
E0001C
E0001C
E0001C
E0001C
E0001C
E0001C
E0001C
E0001C
E0001C
E0001C
E0001C
E0001C
E0001C
E0001C
E0001C
E0001C
E0001C
E0001C
E0001C
E0001C
ENDCHAR
STARTCHAR summation
ENCODING 8721
SWIDTH 626 0
DWIDTH 24 0
BBX 22 38 1 -8
BITMAP
FFFFF8
FFFFF8
FFFFF8
780000
3C0000
3E0000
1E0000
0F0000
0F8000
078000
03C000
01E000
01F000
00F000
007800
007C00
003C00
001E00
000F00
000F00
001E00
003C00
007800
007800
00F000
01E000
03E000
03C000
078000
0F0000
1F0000
1E0000
3C0000
780000
780000
FFFFFC
FFFFFC
FFFFFC
ENDCHAR
STARTCHAR minus
ENCODING 8722
SWIDTH 666 0
DWIDTH 25 0
BBX 20 3 3 10
BITMAP
FFFFF0
FFFFF0
FFFFF0
ENDCHAR
STARTCHAR uni2215
ENCODING 8725
SWIDTH 100 0
DWIDTH 4 0
BBX 13 29 -5 -1
BITMAP
0020
0038
0030
0030
0070
0060
00E0
00C0
00C0
01C0
0180
0180
0300
0300
0700
0600
0600
0E00
0C00
1C00
1800
1800
3800
3000
7000
6000
6000
E000
4000
ENDCHAR
STARTCHAR uni2219
ENCODING 8729
SWIDTH 228 0
DWIDTH 9 0
BBX 4 5 2 7
BITMAP
60
F0
F0
F0
60
ENDCHAR
STARTCHAR radical
ENCODING 8730
SWIDTH 515 0
DWIDTH 20 0
BBX 20 38 0 -8
BITMAP
0000F0
0000F0
0000E0
0000E0
0000E0
0001E0
0001E0
0001C0
0001C0
0001C0
0003C0
0003C0
000380
000380
000380
000780
000780
000700
000700
000700
000F00
000E00
380E00
F80E00
FC0E00
FC1E00
1E1C00
0E1C00
0F1C00
071C00
07BC00
03B800
03F800
01F800
01F800
00F800
00F000
00F000
ENDCHAR
STARTCHAR infinity
ENCODING 8734
SWIDTH 778 0
DWIDTH 30 0
BBX 27 12 2 4
BITMAP
0F803E00
3FE0FF80
7FF1FFC0
F0FBE1E0
E03F80E0
E01F00E0
E01F00E0
E03F80E0
F0FBE1C0
7FF1FFC0
3FE0FF80
0F803E00
ENDCHAR
STARTCHAR integral
ENCODING 8747
SWIDTH 574 0
DWIDTH 22 0
BBX 13 38 4 -8
BITMAP
01F0
03F8
0338
0738
0700
0700
0700
0700
0700
0700
0700
0700
0700
0700
0700
0700
0700
0700
0700
0700
0700
0700
0700
0700
0700
0700
0700
0700
0700
0700
0700
0700
0700
0700
6700
F600
FE00
7800
ENDCHAR
STARTCHAR approxequal
ENCODING 8776
SWIDTH 666 0
DWIDTH 27 0
BBX 21 14 3 3
BITMAP
1F0038
3FC038
7FF870
70FFF0
F03FE0
E007C0
000000
000000
1F0038
3FC038
7FF870
70FFF0
F03FE0
E007C0
ENDCHAR
STARTCHAR notequal
ENCODING 8800
SWIDTH 666 0
DWIDTH 25 0
BBX 19 22 2 -1
BITMAP
000400
000700
000F00
000E00
001E00
001C00
FFFFE0
FFFFE0
FFFFE0
007000
00F000
00E000
01E000
01C000
FFFFE0
FFFFE0
FFFFE0
070000
0F0000
0E0000
1E0000
0C0000
ENDCHAR
STARTCHAR lessequal
ENCODING 8804
SWIDTH 666 0
DWIDTH 25 0
BBX 19 22 3 0
BITMAP
000020
0001E0
000FE0
003FE0
01FF00
0FF800
7FC000
FE0000
F00000
FE0000
7F8000
1FF000
03FE00
007FC0
000FE0
0001E0
000060
000000
000000
FFFFE0
FFFFE0
FFFFE0
ENDCHAR
STARTCHAR greaterequal
ENCODING 8805
SWIDTH 666 0
DWIDTH 25 0
BBX 19 22 3 0
BITMAP
800000
F00000
FE0000
FF8000
1FF000
03FE00
007FC0
000FE0
0003E0
000FE0
007FC0
03FF00
0FF800
7FC000
FE0000
F00000
C00000
000000
000000
FFFFE0
FFFFE0
FFFFE0
ENDCHAR
STARTCHAR lozenge
ENCODING 9674
SWIDTH 593 0
DWIDTH 22 0
BBX 16 30 3 -1
BITMAP
03C0
03C0
07E0
07E0
07E0
0E70
0E70
1C38
1C38
381C
381C
781C
700E
700E
E007
E007
700E
700E
381C
381C
381C
1C38
1C38
0E70
0E70
06E0
07E0
07E0
03C0
03C0
ENDCHAR
STARTCHAR dotlessj
ENCODING 63166
SWIDTH 233 0
DWIDTH 9 0
BBX 7 28 -1 -9
BITMAP
0E
0E
0E
0E
0E
0E
0E
0E
0E
0E
0E
0E
0E
0E
0E
0E
0E
0E
0E
0E
0E
0E
0E
0E
1E
FC
FC
F0
ENDCHAR
STARTCHAR commaaccent
ENCODING 63171
SWIDTH 235 0
DWIDTH 9 0
BBX 4 7 2 -9
BITMAP
70
70
60
60
60
E0
C0
ENDCHAR
STARTCHAR uniF8FF
ENCODING 63743
SWIDTH 876 0
DWIDTH 33 0
BBX 25 28 4 -1
BITMAP
0000C000
0001C000
0003C000
00078000
00078000
00060000
07C07C00
1FFFFE00
3FFFFF00
3FFFFF80
7FFFFE00
7FFFFC00
FFFFF800
FFFFF800
FFFFF800
FFFFF800
FFFFF800
FFFFF800
FFFFFC00
7FFFFE00
7FFFFF00
7FFFFF80
3FFFFF80
1FFFFF00
1FFFFE00
0FFFFE00
07FFFC00
03F1F800
ENDCHAR
STARTCHAR fi
ENCODING 64257
SWIDTH 482 0
DWIDTH 18 0
BBX 15 30 1 0
BITMAP
0780
0F80
1F80
1C04
380E
380E
380E
3804
3800
3800
3800
FF0E
FF0E
FF0E
380E
380E
380E
380E
380E
380E
380E
380E
380E
380E
380E
380E
380E
380E
380E
380E
ENDCHAR
STARTCHAR fl
ENCODING 64258
SWIDTH 482 0
DWIDTH 18 0
BBX 14 30 1 0
BITMAP
0780
0F9C
1F9C
3C1C
381C
381C
381C
381C
381C
381C
381C
FF1C
FF1C
FF1C
381C
381C
381C
381C
381C
381C
381C
381C
381C
381C
381C
381C
381C
381C
381C
381C
ENDCHAR
STARTCHAR .notdef
ENCODING -1
SWIDTH 512 0
DWIDTH 20 0
BBX 19 27 0 0
BITMAP
FFFFE0
FFFFE0
C00020
C00020
C0F020
C3FC20
C30C20
C60620
C60620
C00620
C00620
C00C20
C01820
C03020
C06020
C06020
C06020
C06020
C00020
C00020
C0E020
C0E020
C0E020
C00020
C00020
FFFFE0
FFFFE0
ENDCHAR
STARTCHAR thorn.sc
ENCODING -1
SWIDTH 395 0
DWIDTH 15 0
BBX 11 21 3 0
BITMAP
E000
E000
E000
E000
FF00
FF80
FFC0
E1E0
E0E0
E0E0
E0E0
E0E0
E1E0
FFC0
FF80
FF00
E000
E000
E000
E000
E000
ENDCHAR
STARTCHAR cent.sc
ENCODING -1
SWIDTH 436 0
DWIDTH 17 0
BBX 12 24 3 -2
BITMAP
0300
0300
0300
0FC0
1FF0
3FF0
7B20
7300
F300
E300
E300
E300
E300
E300
E300
E300
F300
7300
7B20
3FF0
1FF0
0FC0
0300
0300
ENDCHAR
STARTCHAR ordfeminine.sc
ENCODING -1
SWIDTH 304 0
DWIDTH 12 0
BBX 10 13 1 14
BITMAP
1E00
1E00
1E00
3F00
3300
3300
3300
7380
7F80
7F80
6180
E1C0
C1C0
ENDCHAR
STARTCHAR florin.sc
ENCODING -1
SWIDTH 436 0
DWIDTH 17 0
BBX 13 26 2 -4
BITMAP
00F0
01F8
03F8
0390
0380
0380
0780
0700
0700
3FE0
3FE0
0700
0E00
0E00
0E00
0E00
0E00
0E00
1E00
1C00
1C00
1C00
1C00
FC00
F800
F000
ENDCHAR
STARTCHAR questiondown.sc
ENCODING -1
SWIDTH 335 0
DWIDTH 13 0
BBX 11 22 1 0
BITMAP
0C00
1E00
1E00
1E00
0C00
0000
0E00
0E00
0E00
0E00
1C00
3C00
7800
7000
E000
E000
E0E0
E1C0
F1C0
7FC0
7F80
1E00
ENDCHAR
STARTCHAR ampersand.sc
ENCODING -1
SWIDTH 441 0
DWIDTH 17 0
BBX 16 22 1 0
BITMAP
0780
1FE0
1FE0
3CF0
3870
3870
3870
38E0
1DE0
1FC0
1F8F
3F8E
779E
E3DC
E1FC
E1F8
E0F8
E0F8
F1FC
7FFC
3FCE
1F0F
ENDCHAR
STARTCHAR percent.sc
ENCODING -1
SWIDTH 584 0
DWIDTH 22 0
BBX 20 23 1 -1
BITMAP
000600
3E0600
7F0E00
770C00
E39C00
E39C00
E39800
E3B800
E3B000
777000
7F7000
3E67C0
00EFE0
00CEE0
00DC70
01DC70
019C70
039C70
031C70
030EE0
070FE0
0607C0
020000
ENDCHAR
STARTCHAR dollar.sc
ENCODING -1
SWIDTH 436 0
DWIDTH 17 0
BBX 12 25 2 -2
BITMAP
0700
0700
0FC0
3FE0
3FF0
7760
7740
7700
7700
7F00
7F00
3F80
1FC0
07E0
07F0
0770
0770
0770
4770
6770
FFE0
7FE0
1F80
0700
0700
ENDCHAR
STARTCHAR exclam.sc
ENCODING -1
SWIDTH 258 0
DWIDTH 10 0
BBX 4 21 3 0
BITMAP
E0
E0
E0
E0
E0
E0
E0
E0
E0
E0
E0
E0
E0
E0
E0
00
60
F0
F0
F0
60
ENDCHAR
STARTCHAR zero.sc
ENCODING -1
SWIDTH 436 0
DWIDTH 16 0
BBX 12 22 2 0
BITMAP
0F00
3F80
3FC0
79E0
70E0
70E0
E070
E070
E070
E070
E070
E070
E070
E070
E070
E070
70E0
70E0
79E0
3FC0
3F80
0F00
ENDCHAR
STARTCHAR one.sc
ENCODING -1
SWIDTH 436 0
DWIDTH 17 0
BBX 8 21 3 0
BITMAP
0F
1F
3F
FF
F7
67
07
07
07
07
07
07
07
07
07
07
07
07
07
07
07
ENDCHAR
STARTCHAR two.sc
ENCODING -1
SWIDTH 436 0
DWIDTH 16 0
BBX 11 22 3 0
BITMAP
1F00
3F80
7FC0
F1E0
E0E0
E0E0
00E0
00E0
01E0
01C0
03C0
0380
0700
0F00
1E00
3C00
3800
7800
F000
FFE0
FFE0
FFE0
ENDCHAR
STARTCHAR three.sc
ENCODING -1
SWIDTH 436 0
DWIDTH 17 0
BBX 12 22 2 0
BITMAP
0F80
1FC0
3FE0
78F0
3070
0070
0070
0070
00E0
01C0
0F80
0FE0
0FE0
00F0
0070
0070
2070
E070
F0E0
7FE0
3FC0
1F80
ENDCHAR
STARTCHAR four.sc
ENCODING -1
SWIDTH 436 0
DWIDTH 16 0
BBX 14 21 1 0
BITMAP
01E0
03E0
03E0
07E0
06E0
0EE0
0CE0
1CE0
1CE0
38E0
38E0
70E0
70E0
FFFC
FFFC
FFFC
00E0
00E0
00E0
00E0
00E0
ENDCHAR
STARTCHAR five.sc
ENCODING -1
SWIDTH 436 0
DWIDTH 17 0
BBX 12 21 2 0
BITMAP
3FE0
3FE0
3FE0
3800
3800
3800
3800
3F80
7FC0
7FE0
61E0
00F0
0070
0070
0070
2070
E0F0
F0E0
7FE0
3FC0
1F80
ENDCHAR
STARTCHAR six.sc
ENCODING -1
SWIDTH 436 0
DWIDTH 16 0
BBX 12 22 2 0
BITMAP
0780
0700
0700
0E00
0E00
1C00
1C00
3800
3F80
7FC0
7FE0
F8E0
F0F0
E070
E070
E070
E070
F0F0
70E0
7FE0
3FC0
0F00
ENDCHAR
STARTCHAR seven.sc
ENCODING -1
SWIDTH 436 0
DWIDTH 16 0
BBX 12 21 2 0
BITMAP
FFF0
FFF0
FFF0
00F0
00E0
00E0
01E0
01C0
01C0
0380
0380
0780
0700
0700
0F00
0E00
1E00
1E00
1C00
3C00
3800
ENDCHAR
STARTCHAR eight.sc
ENCODING -1
SWIDTH 436 0
DWIDTH 17 0
BBX 12 22 2 0
BITMAP
1F80
3FC0
7FE0
F0F0
E070
E070
E070
E070
70E0
7FE0
1F80
7FE0
70E0
E0F0
E070
E070
E070
E0F0
F0F0
7FE0
3FC0
1F80
ENDCHAR
STARTCHAR nine.sc
ENCODING -1
SWIDTH 436 0
DWIDTH 16 0
BBX 12 22 2 0
BITMAP
0F80
3FC0
7FE0
70E0
F0F0
E070
E070
E070
E070
E0F0
71F0
7FE0
3FE0
1FC0
01C0
0380
0380
0700
0700
0F00
0E00
1E00
ENDCHAR
STARTCHAR zero.onum
ENCODING -1
SWIDTH 500 0
DWIDTH 19 0
BBX 15 22 2 0
BITMAP
07C0
1FF0
3FF8
3C78
783C
701C
F01C
E00E
E00E
E00E
E00E
E00E
E00E
E00E
E00E
701C
701C
783C
3C78
3FF8
1FF0
07C0
ENDCHAR
STARTCHAR one.onum
ENCODING -1
SWIDTH 370 0
DWIDTH 14 0
BBX 8 21 2 0
BITMAP
0F
1F
3F
FF
F7
67
07
07
07
07
07
07
07
07
07
07
07
07
07
07
07
ENDCHAR
STARTCHAR two.onum
ENCODING -1
SWIDTH 450 0
DWIDTH 17 0
BBX 13 22 2 0
BITMAP
0FC0
3FE0
7FF0
78F0
F078
6038
0038
0038
0038
0070
0070
00E0
01E0
03C0
0780
0F00
1E00
3C00
7000
FFF8
FFF8
FFF8
ENDCHAR
STARTCHAR three.onum
ENCODING -1
SWIDTH 430 0
DWIDTH 17 0
BBX 13 27 2 -6
BITMAP
FFF0
FFF0
FFF0
0070
00E0
01C0
0380
0700
0E00
3800
7F00
7FC0
7FE0
41F0
0070
0078
0038
0038
0038
0038
0038
0070
00F0
01E0
7FE0
7F80
7E00
ENDCHAR
STARTCHAR four.onum
ENCODING -1
SWIDTH 480 0
DWIDTH 18 0
BBX 16 28 1 -7
BITMAP
0070
00E0
00E0
01E0
01C0
03C0
0380
0780
0700
0F38
0E38
1E38
1C38
3C38
3838
7838
7038
F038
FFFF
FFFF
FFFF
0038
0038
0038
0038
0038
0038
0038
ENDCHAR
STARTCHAR five.onum
ENCODING -1
SWIDTH 430 0
DWIDTH 16 0
BBX 12 27 2 -6
BITMAP
7FF0
7FF0
7FF0
7000
7000
7000
7000
7000
7000
6000
7F00
FFC0
FFE0
83E0
00F0
00F0
0070
0070
0070
0070
0070
00E0
00E0
03E0
FFC0
FF80
FE00
ENDCHAR
STARTCHAR six.onum
ENCODING -1
SWIDTH 490 0
DWIDTH 18 0
BBX 14 27 2 0
BITMAP
0040
00F0
01F0
03E0
03C0
0780
0F00
1E00
1C00
3C00
3BC0
7FF0
7FF0
7878
F038
F03C
E01C
E01C
E01C
E01C
E01C
F03C
7038
7878
3FF0
1FE0
0FC0
ENDCHAR
STARTCHAR seven.onum
ENCODING -1
SWIDTH 430 0
DWIDTH 16 0
BBX 14 27 1 -6
BITMAP
FFFC
FFFC
FFFC
003C
0038
0038
0078
0070
00F0
00E0
00E0
01E0
01C0
01C0
03C0
0380
0780
0780
0700
0F00
0E00
0E00
1E00
1C00
1C00
3C00
3800
ENDCHAR
STARTCHAR eight.onum
ENCODING -1
SWIDTH 482 0
DWIDTH 18 0
BBX 14 27 2 0
BITMAP
07C0
1FF0
3FF8
3C78
783C
701C
701C
701C
701C
7838
3C78
1FF0
0FC0
3FF0
7878
7038
E01C
E01C
E01C
E01C
E01C
E01C
7038
7878
3FF0
1FE0
0FC0
ENDCHAR
STARTCHAR nine.onum
ENCODING -1
SWIDTH 490 0
DWIDTH 18 0
BBX 14 28 2 -6
BITMAP
0F80
1FE0
3FF0
7878
7038
F03C
E01C
E01C
E01C
E01C
E01C
E01C
F03C
7038
7878
3FF8
3FF0
0F70
00F0
00E0
01C0
03C0
0780
0F00
1F00
3E00
7C00
1800
ENDCHAR
STARTCHAR Euro.sc
ENCODING -1
SWIDTH 436 0
DWIDTH 17 0
BBX 14 22 1 0
BITMAP
01F8
03FC
07F8
0F08
1E00
1C00
1C00
3C00
7FF0
FFF0
3800
3800
3800
7FE0
FFE0
3800
3C00
1C00
1F08
0FF8
07F8
01F0
ENDCHAR
STARTCHAR sterling.sc
ENCODING -1
SWIDTH 436 0
DWIDTH 17 0
BBX 13 22 2 0
BITMAP
03E0
07F8
0FF0
0E20
1E00
1C00
1C00
1C00
1C00
1C00
FFC0
FFC0
FFC0
1C00
1C00
1C00
1C00
1C00
1C00
FFF0
FFF0
FFF0
ENDCHAR
STARTCHAR yen.sc
ENCODING -1
SWIDTH 436 0
DWIDTH 17 0
BBX 13 21 2 0
BITMAP
E038
F078
7070
7870
38E0
38E0
1DC0
1DC0
0F80
7FF0
7FF0
0700
0700
0700
7FF0
7FF0
0700
0700
0700
0700
0700
ENDCHAR
STARTCHAR perthousand.sc
ENCODING -1
SWIDTH 832 0
DWIDTH 32 0
BBX 30 23 1 -1
BITMAP
00060000
3E0E0000
7F0E0000
770C0000
E39C0000
E3980000
E3B80000
E3B80000
E3B00000
77700000
7F600000
3E67C1F0
00EFE3F8
00CEE3B8
01DC771C
019C771C
019C771C
039C771C
031C771C
070EE3B8
060FE3F8
0607C1F0
0A000000
ENDCHAR
STARTCHAR question.sc
ENCODING -1
SWIDTH 335 0
DWIDTH 13 0
BBX 11 22 1 0
BITMAP
0F00
3FC0
7FC0
71E0
70E0
E0E0
00E0
00E0
01C0
03C0
0780
0700
0E00
0E00
0E00
0E00
0000
0600
0F00
0F00
0F00
0600
ENDCHAR
STARTCHAR exclamdown.sc
ENCODING -1
SWIDTH 258 0
DWIDTH 10 0
BBX 4 22 3 0
BITMAP
60
F0
F0
F0
60
00
00
E0
E0
E0
E0
E0
E0
E0
E0
E0
E0
E0
E0
E0
E0
E0
ENDCHAR
STARTCHAR a.sc
ENCODING -1
SWIDTH 399 0
DWIDTH 15 0
BBX 15 21 0 0
BITMAP
07C0
07C0
07C0
06E0
0EE0
0EE0
0EE0
0E70
1C70
1C70
1C70
1C70
3838
3838
3FF8
3FF8
7FFC
781C
701C
701C
F01E
ENDCHAR
STARTCHAR b.sc
ENCODING -1
SWIDTH 435 0
DWIDTH 17 0
BBX 12 21 3 0
BITMAP
FF00
FF80
FFC0
E1E0
E0E0
E0E0
E0E0
E0E0
E1C0
FF80
FF80
FFC0
E1E0
E070
E070
E070
E070
E0F0
FFE0
FFC0
FF80
ENDCHAR
STARTCHAR c.sc
ENCODING -1
SWIDTH 414 0
DWIDTH 16 0
BBX 13 22 2 0
BITMAP
07C0
1FF0
3FF8
3C70
7810
7000
F000
E000
E000
E000
E000
E000
E000
E000
E000
F000
7000
7830
3C78
3FF0
1FF0
07C0
ENDCHAR
STARTCHAR d.sc
ENCODING -1
SWIDTH 473 0
DWIDTH 18 0
BBX 13 21 3 0
BITMAP
FF00
FFC0
FFE0
E1E0
E0F0
E070
E078
E038
E038
E038
E038
E038
E038
E038
E078
E070
E0F0
E1E0
FFE0
FFC0
FF00
ENDCHAR
STARTCHAR e.sc
ENCODING -1
SWIDTH 376 0
DWIDTH 14 0
BBX 10 21 3 0
BITMAP
FF80
FF80
FF80
E000
E000
E000
E000
E000
E000
FF80
FF80
FF80
E000
E000
E000
E000
E000
E000
FFC0
FFC0
FFC0
ENDCHAR
STARTCHAR f.sc
ENCODING -1
SWIDTH 365 0
DWIDTH 14 0
BBX 9 21 3 0
BITMAP
FF80
FF80
FF80
E000
E000
E000
E000
E000
E000
FF80
FF80
FF80
E000
E000
E000
E000
E000
E000
E000
E000
E000
ENDCHAR
STARTCHAR g.sc
ENCODING -1
SWIDTH 464 0
DWIDTH 17 0
BBX 13 22 2 0
BITMAP
07C0
1FF0
3FF8
3C70
7820
7000
7000
E000
E000
E000
E1F8
E1F8
E1F8
E038
E038
7038
7038
7838
3C38
3FF8
1FF8
07E0
ENDCHAR
STARTCHAR h.sc
ENCODING -1
SWIDTH 502 0
DWIDTH 19 0
BBX 13 21 3 0
BITMAP
E038
E038
E038
E038
E038
E038
E038
E038
E038
FFF8
FFF8
FFF8
E038
E038
E038
E038
E038
E038
E038
E038
E038
ENDCHAR
STARTCHAR i.sc
ENCODING -1
SWIDTH 237 0
DWIDTH 9 0
BBX 3 21 3 0
BITMAP
E0
E0
E0
E0
E0
E0
E0
E0
E0
E0
E0
E0
E0
E0
E0
E0
E0
E0
E0
E0
E0
ENDCHAR
STARTCHAR j.sc
ENCODING -1
SWIDTH 330 0
DWIDTH 13 0
BBX 10 22 0 0
BITMAP
01C0
01C0
01C0
01C0
01C0
01C0
01C0
01C0
01C0
01C0
01C0
01C0
01C0
01C0
01C0
01C0
01C0
61C0
F3C0
FF80
7F80
3E00
ENDCHAR
STARTCHAR k.sc
ENCODING -1
SWIDTH 415 0
DWIDTH 16 0
BBX 13 21 3 0
BITMAP
E0F0
E0E0
E1E0
E3C0
E380
E780
E700
EE00
FE00
FC00
FC00
EE00
EF00
E700
E780
E380
E3C0
E1E0
E1E0
E0F0
E078
ENDCHAR
STARTCHAR l.sc
ENCODING -1
SWIDTH 327 0
DWIDTH 12 0
BBX 9 21 3 0
BITMAP
E000
E000
E000
E000
E000
E000
E000
E000
E000
E000
E000
E000
E000
E000
E000
E000
E000
E000
FF80
FF80
FF80
ENDCHAR
STARTCHAR m.sc
ENCODING -1
SWIDTH 624 0
DWIDTH 24 0
BBX 18 21 3 0
BITMAP
F807C0
F807C0
F80FC0
FC0FC0
FC0FC0
FC0FC0
EC1FC0
EE1DC0
EE1DC0
EE1DC0
E739C0
E739C0
E739C0
E739C0
E3F1C0
E3F1C0
E3F1C0
E1E1C0
E1E1C0
E1E1C0
E1E1C0
ENDCHAR
STARTCHAR n.sc
ENCODING -1
SWIDTH 497 0
DWIDTH 19 0
BBX 13 21 3 0
BITMAP
F038
F838
F838
F838
FC38
FC38
EC38
EE38
EE38
E738
E738
E738
E3B8
E3B8
E1B8
E1F8
E1F8
E0F8
E0F8
E078
E078
ENDCHAR
STARTCHAR o.sc
ENCODING -1
SWIDTH 488 0
DWIDTH 18 0
BBX 14 22 2 0
BITMAP
0780
1FE0
3FF0
3870
7038
7038
F03C
E01C
E01C
E01C
E01C
E01C
E01C
E01C
E01C
F03C
7038
7038
3870
3FF0
1FE0
0780
ENDCHAR
STARTCHAR p.sc
ENCODING -1
SWIDTH 407 0
DWIDTH 15 0
BBX 11 21 3 0
BITMAP
FF00
FF80
FFC0
E1E0
E0E0
E0E0
E0E0
E0E0
E1E0
FFC0
FF80
FF00
E000
E000
E000
E000
E000
E000
E000
E000
E000
ENDCHAR
STARTCHAR q.sc
ENCODING -1
SWIDTH 488 0
DWIDTH 18 0
BBX 15 22 2 0
BITMAP
0780
1FE0
3FF0
3C70
7878
7038
F03C
E01C
E01C
E01C
E01C
E01C
E01C
E01C
E01C
F038
7038
7038
3870
3FFE
1FFE
07FE
ENDCHAR
STARTCHAR r.sc
ENCODING -1
SWIDTH 426 0
DWIDTH 16 0
BBX 12 21 3 0
BITMAP
FF00
FF80
FFC0
E1E0
E0E0
E0E0
E0E0
E0E0
E1E0
FFC0
FF80
FF00
E700
E780
E380
E3C0
E3C0
E1C0
E1E0
E1E0
E0F0
ENDCHAR
STARTCHAR s.sc
ENCODING -1
SWIDTH 367 0
DWIDTH 13 0
BBX 12 22 0 0
BITMAP
07C0
0FE0
1FF0
3C60
3840
3800
3800
3800
3C00
1E00
0F80
07C0
01E0
00F0
0070
0070
0070
2070
70F0
FFE0
3FC0
0F80
ENDCHAR
STARTCHAR t.sc
ENCODING -1
SWIDTH 299 0
DWIDTH 11 0
BBX 11 21 0 0
BITMAP
FFE0
FFE0
FFE0
0E00
0E00
0E00
0E00
0E00
0E00
0E00
0E00
0E00
0E00
0E00
0E00
0E00
0E00
0E00
0E00
0E00
0E00
ENDCHAR
STARTCHAR u.sc
ENCODING -1
SWIDTH 487 0
DWIDTH 19 0
BBX 13 22 3 0
BITMAP
E038
E038
E038
E038
E038
E038
E038
E038
E038
E038
E038
E038
E038
E038
E038
E038
E038
F078
78F0
7FF0
3FE0
0F80
ENDCHAR
STARTCHAR v.sc
ENCODING -1
SWIDTH 391 0
DWIDTH 15 0
BBX 15 21 0 0
BITMAP
F01E
701C
701C
703C
783C
3838
3838
3838
3C78
1C70
1C70
1C70
1C70
0EE0
0EE0
0EE0
0EE0
07C0
07C0
07C0
07C0
ENDCHAR
STARTCHAR w.sc
ENCODING -1
SWIDTH 634 0
DWIDTH 24 0
BBX 23 21 1 0
BITMAP
E0781E
E0781C
E0781C
F0781C
F07C3C
70FC38
70FC38
70CC38
70CC38
78CE38
39CE70
39CE70
398E70
398670
3D8770
1F87E0
1F87E0
1F07E0
1F03E0
1F03E0
0F03C0
ENDCHAR
STARTCHAR x.sc
ENCODING -1
SWIDTH 395 0
DWIDTH 15 0
BBX 15 21 0 0
BITMAP
781C
3838
3838
3C78
1C70
1EF0
0EE0
0FE0
07C0
07C0
07C0
07C0
0FE0
0EE0
1EF0
1C70
3C78
3838
783C
701C
F01E
ENDCHAR
STARTCHAR y.sc
ENCODING -1
SWIDTH 373 0
DWIDTH 14 0
BBX 13 21 1 0
BITMAP
E038
F078
7070
7070
38E0
38E0
3DE0
1DC0
1DC0
0F80
0F80
0700
0700
0700
0700
0700
0700
0700
0700
0700
0700
ENDCHAR
STARTCHAR z.sc
ENCODING -1
SWIDTH 360 0
DWIDTH 14 0
BBX 11 21 2 0
BITMAP
FFE0
FFE0
FFE0
01E0
01C0
03C0
0380
0780
0700
0F00
0E00
1E00
1C00
3C00
3800
7800
7000
F000
FFE0
FFE0
FFE0
ENDCHAR
STARTCHAR aacute.sc
ENCODING -1
SWIDTH 399 0
DWIDTH 15 0
BBX 15 29 0 0
BITMAP
0078
00E0
00E0
01C0
0380
0000
0000
0000
07C0
07C0
07C0
06E0
0EE0
0EE0
0EE0
0E70
1C70
1C70
1C70
1C70
3838
3838
3FF8
3FF8
7FFC
781C
701C
701C
F01E
ENDCHAR
STARTCHAR acircumflex.sc
ENCODING -1
SWIDTH 399 0
DWIDTH 15 0
BBX 15 29 0 0
BITMAP
03C0
06C0
0EE0
1C70
3838
0000
0000
0000
07C0
07C0
07C0
06E0
0EE0
0EE0
0EE0
0E70
1C70
1C70
1C70
1C70
3838
3838
3FF8
3FF8
7FFC
781C
701C
701C
F01E
ENDCHAR
STARTCHAR adieresis.sc
ENCODING -1
SWIDTH 399 0
DWIDTH 15 0
BBX 15 28 0 0
BITMAP
1C70
1C70
1C70
0000
0000
0000
0000
07C0
07C0
07C0
06E0
0EE0
0EE0
0EE0
0C70
1C70
1C70
1C70
1C70
3838
3838
3FF8
3FF8
7FFC
781C
701C
701C
F01E
ENDCHAR
STARTCHAR aring.sc
ENCODING -1
SWIDTH 399 0
DWIDTH 15 0
BBX 14 31 1 0
BITMAP
0780
0FC0
1CE0
1860
1860
1CE0
0FC0
0780
0000
0000
0780
0780
0FC0
0FC0
0FC0
0CC0
1CE0
1CE0
1CE0
1CE0
3870
3870
3870
3870
7FF8
7FF8
7FF8
7038
F038
E03C
E01C
ENDCHAR
STARTCHAR amacron.sc
ENCODING -1
SWIDTH 399 0
DWIDTH 15 0
BBX 15 27 0 0
BITMAP
1FF0
1FF0
0000
0000
0000
0000
07C0
07C0
07C0
06E0
0EE0
0EE0
0EE0
0E70
1C70
1C70
1C70
1C70
3838
3838
3FF8
3FF8
7FFC
781C
701C
701C
F01E
ENDCHAR
STARTCHAR ae.sc
ENCODING -1
SWIDTH 529 0
DWIDTH 20 0
BBX 19 21 -1 0
BITMAP
00FFE0
01FFE0
01FFE0
01F800
03B800
03B800
03B800
073800
073800
073FE0
0E3FE0
0E3FE0
1C3800
1FF800
1FF800
3FF800
383800
383800
703FE0
703FE0
F03FE0
ENDCHAR
STARTCHAR agrave.sc
ENCODING -1
SWIDTH 399 0
DWIDTH 15 0
BBX 15 29 0 0
BITMAP
1C00
0E00
0700
0300
0380
0000
0000
0000
07C0
07C0
07C0
06E0
0EE0
0EE0
0EE0
0E70
1C70
1C70
1C70
1C70
3838
3838
3FF8
3FF8
7FFC
781C
701C
701C
F01E
ENDCHAR
STARTCHAR atilde.sc
ENCODING -1
SWIDTH 399 0
DWIDTH 15 0
BBX 15 28 0 0
BITMAP
1E18
1F18
31F0
30F0
0000
0000
0000
07C0
07C0
07C0
06E0
0EE0
0EE0
0EE0
0C70
1C70
1C70
1C70
1C70
3838
3838
3FF8
3FF8
7FFC
781C
701C
701C
F01E
ENDCHAR
STARTCHAR aogonek.sc
ENCODING -1
SWIDTH 399 0
DWIDTH 15 0
BBX 14 29 1 -8
BITMAP
0780
07C0
07C0
0DC0
0DC0
0DE0
0DE0
1CE0
18E0
18E0
18F0
38F0
3070
3070
3FF8
7FF8
7FF8
7038
703C
F01C
E01C
0030
0060
00E0
01C0
01C0
01C4
01FC
0078
ENDCHAR
STARTCHAR abreve.sc
ENCODING -1
SWIDTH 399 0
DWIDTH 15 0
BBX 15 29 0 0
BITMAP
3838
1830
1C70
0FE0
07C0
0000
0000
0000
07C0
07C0
07C0
06E0
0EE0
0EE0
0EE0
0E70
1C70
1C70
1C70
1C70
3838
3838
3FF8
3FF8
7FFC
781C
701C
701C
F01E
ENDCHAR
STARTCHAR cacute.sc
ENCODING -1
SWIDTH 414 0
DWIDTH 16 0
BBX 13 29 2 0
BITMAP
0078
00E0
00C0
01C0
0380
0000
0000
07C0
1FF0
3FF8
3C70
7810
7000
F000
E000
E000
E000
E000
E000
E000
E000
E000
F000
7000
7830
3C78
3FF0
1FF0
07C0
ENDCHAR
STARTCHAR ccaron.sc
ENCODING -1
SWIDTH 414 0
DWIDTH 16 0
BBX 13 29 2 0
BITMAP
3838
1C70
0EE0
06C0
03C0
0000
0000
07C0
1FF0
3FF8
3C70
7810
7000
F000
E000
E000
E000
E000
E000
E000
E000
E000
F000
7000
7830
3C78
3FF0
1FF0
07C0
ENDCHAR
STARTCHAR cdotaccent.sc
ENCODING -1
SWIDTH 414 0
DWIDTH 16 0
BBX 13 29 2 0
BITMAP
0100
0380
0380
0380
0100
0000
0000
07C0
1FF0
3FF8
3C70
7810
7000
F000
E000
E000
E000
E000
E000
E000
E000
E000
F000
7000
7830
3C78
3FF0
1FF0
07C0
ENDCHAR
STARTCHAR ccedilla.sc
ENCODING -1
SWIDTH 414 0
DWIDTH 17 0
BBX 14 31 2 -9
BITMAP
03E0
0FF8
1FFC
3C3C
7818
7000
7000
E000
E000
E000
E000
E000
E000
E000
E000
F000
7000
7808
3C18
3FFC
1FF8
0FE0
0180
0100
03E0
07F0
0070
0070
10F0
1FE0
0FC0
ENDCHAR
STARTCHAR ccircumflex.sc
ENCODING -1
SWIDTH 414 0
DWIDTH 16 0
BBX 13 29 2 0
BITMAP
03C0
06C0
0E60
1C70
1838
2000
0000
07C0
1FF0
3FF8
3C70
7810
7000
F000
E000
E000
E000
E000
E000
E000
E000
E000
F000
7000
7830
3C78
3FF0
1FF0
07C0
ENDCHAR
STARTCHAR dcaron.sc
ENCODING -1
SWIDTH 473 0
DWIDTH 18 0
BBX 13 29 3 0
BITMAP
E0E0
71C0
3380
1B00
0E00
0000
0000
0000
FF00
FFC0
FFE0
E1E0
E0F0
E070
E078
E038
E038
E038
E038
E038
E038
E038
E078
E070
E0F0
E1E0
FFE0
FFC0
FF00
ENDCHAR
STARTCHAR dcroat.sc
ENCODING -1
SWIDTH 473 0
DWIDTH 18 0
BBX 15 21 1 0
BITMAP
3FC0
3FF0
3FF8
3878
383C
381C
381E
380E
380E
FF8E
FF8E
380E
380E
380E
381E
381C
383C
3878
3FF8
3FF0
3FC0
ENDCHAR
STARTCHAR egrave.sc
ENCODING -1
SWIDTH 376 0
DWIDTH 14 0
BBX 10 29 3 0
BITMAP
E000
7000
3000
3800
1C00
0000
0000
0000
FF80
FF80
FF80
E000
E000
E000
E000
E000
E000
FF80
FF80
FF80
E000
E000
E000
E000
E000
E000
FFC0
FFC0
FFC0
ENDCHAR
STARTCHAR ecircumflex.sc
ENCODING -1
SWIDTH 376 0
DWIDTH 14 0
BBX 11 29 2 0
BITMAP
0F00
1F80
3980
31C0
60E0
8000
0000
0000
7FC0
7FC0
7FC0
7000
7000
7000
7000
7000
7000
7FC0
7FC0
7FC0
7000
7000
7000
7000
7000
7000
7FE0
7FE0
7FE0
ENDCHAR
STARTCHAR ecaron.sc
ENCODING -1
SWIDTH 376 0
DWIDTH 14 0
BBX 11 29 2 0
BITMAP
E0E0
71C0
3980
1B00
0F00
0000
0000
0000
7FC0
7FC0
7FC0
7000
7000
7000
7000
7000
7000
7FC0
7FC0
7FC0
7000
7000
7000
7000
7000
7000
7FE0
7FE0
7FE0
ENDCHAR
STARTCHAR edieresis.sc
ENCODING -1
SWIDTH 376 0
DWIDTH 14 0
BBX 10 28 3 0
BITMAP
E380
E380
E380
0000
0000
0000
0000
FF80
FF80
FF80
E000
E000
E000
E000
E000
E000
FF80
FF80
FF80
E000
E000
E000
E000
E000
E000
FFC0
FFC0
FFC0
ENDCHAR
STARTCHAR ebreve.sc
ENCODING -1
SWIDTH 376 0
DWIDTH 14 0
BBX 11 29 2 0
BITMAP
E0E0
60C0
71C0
3F80
1F00
0000
0000
0000
7FC0
7FC0
7FC0
7000
7000
7000
7000
7000
7000
7FC0
7FC0
7FC0
7000
7000
7000
7000
7000
7000
7FE0
7FE0
7FE0
ENDCHAR
STARTCHAR eogonek.sc
ENCODING -1
SWIDTH 376 0
DWIDTH 14 0
BBX 10 29 3 -8
BITMAP
FF80
FF80
FF80
E000
E000
E000
E000
E000
E000
FF80
FF80
FF80
E000
E000
E000
E000
E000
E000
FFC0
FFC0
FFC0
0300
0600
0E00
1C00
1C00
1C40
1FC0
0780
ENDCHAR
STARTCHAR emacron.sc
ENCODING -1
SWIDTH 376 0
DWIDTH 14 0
BBX 10 27 3 0
BITMAP
FFC0
FFC0
0000
0000
0000
0000
FF80
FF80
FF80
E000
E000
E000
E000
E000
E000
FF80
FF80
FF80
E000
E000
E000
E000
E000
E000
FFC0
FFC0
FFC0
ENDCHAR
STARTCHAR eacute.sc
ENCODING -1
SWIDTH 376 0
DWIDTH 14 0
BBX 10 29 3 0
BITMAP
03C0
0380
0700
0E00
1C00
0000
0000
0000
FF80
FF80
FF80
E000
E000
E000
E000
E000
E000
FF80
FF80
FF80
E000
E000
E000
E000
E000
E000
FFC0
FFC0
FFC0
ENDCHAR
STARTCHAR edotaccent.sc
ENCODING -1
SWIDTH 376 0
DWIDTH 14 0
BBX 10 29 3 0
BITMAP
0800
1C00
1C00
1C00
0800
0000
0000
0000
FF80
FF80
FF80
E000
E000
E000
E000
E000
E000
FF80
FF80
FF80
E000
E000
E000
E000
E000
E000
FFC0
FFC0
FFC0
ENDCHAR
STARTCHAR gdotaccent.sc
ENCODING -1
SWIDTH 464 0
DWIDTH 17 0
BBX 13 29 2 0
BITMAP
0100
0380
0380
0380
0100
0000
0000
07C0
1FF0
3FF8
3C70
7820
7000
F000
E000
E000
E000
E1F8
E1F8
E1F8
E038
E038
7038
7038
7838
3C38
3FF8
1FF8
07E0
ENDCHAR
STARTCHAR gbreve.sc
ENCODING -1
SWIDTH 464 0
DWIDTH 17 0
BBX 13 29 2 0
BITMAP
3838
1830
1C70
0FE0
07C0
0000
0000
07C0
1FF0
3FF8
3C70
7820
7000
7000
E000
E000
E000
E1F8
E1F8
E1F8
E038
E038
7038
7038
7838
3C38
3FF8
1FF8
07E0
ENDCHAR
STARTCHAR gcommaaccent.sc
ENCODING -1
SWIDTH 464 0
DWIDTH 17 0
BBX 13 31 2 -9
BITMAP
07C0
1FF0
3FF8
3C70
7820
7000
7000
E000
E000
E000
E1F8
E1F8
E1F8
E038
E038
7038
7038
7838
3C38
3FF8
1FF8
07E0
0000
0000
0380
0380
0300
0700
0700
0600
0600
ENDCHAR
STARTCHAR gcircumflex.sc
ENCODING -1
SWIDTH 464 0
DWIDTH 17 0
BBX 13 29 2 0
BITMAP
0380
06C0
0CE0
1C70
3838
0000
0000
07C0
1FF0
3FF8
3C70
7820
7000
7000
E000
E000
E000
E1F8
E1F8
E1F8
E038
E038
7038
7038
7838
3C38
3FF8
1FF8
07E0
ENDCHAR
STARTCHAR hbar.sc
ENCODING -1
SWIDTH 502 0
DWIDTH 19 0
BBX 13 21 3 0
BITMAP
E038
E038
E038
E038
FFF8
FFF8
E038
E038
E038
FFF8
FFF8
FFF8
E038
E038
E038
E038
E038
E038
E038
E038
E038
ENDCHAR
STARTCHAR hcircumflex.sc
ENCODING -1
SWIDTH 502 0
DWIDTH 19 0
BBX 13 29 3 0
BITMAP
0780
0D80
1CC0
38E0
3070
4000
0000
0000
E038
E038
E038
E038
E038
E038
E038
E038
E038
FFF8
FFF8
FFF8
E038
E038
E038
E038
E038
E038
E038
E038
E038
ENDCHAR
STARTCHAR iogonek.sc
ENCODING -1
SWIDTH 237 0
DWIDTH 9 0
BBX 7 29 1 -8
BITMAP
38
38
38
38
38
38
38
38
38
38
38
38
38
38
38
38
38
38
38
38
38
18
30
60
E0
E0
E2
FE
3C
ENDCHAR
STARTCHAR iacute.sc
ENCODING -1
SWIDTH 237 0
DWIDTH 9 0
BBX 6 29 3 0
BITMAP
1C
38
30
70
E0
00
00
00
E0
E0
E0
E0
E0
E0
E0
E0
E0
E0
E0
E0
E0
E0
E0
E0
E0
E0
E0
E0
E0
ENDCHAR
STARTCHAR itilde.sc
ENCODING -1
SWIDTH 237 0
DWIDTH 9 0
BBX 11 28 -1 0
BITMAP
7860
7C60
C7C0
C3C0
0000
0000
0000
0E00
0E00
0E00
0E00
0E00
0E00
0E00
0E00
0E00
0E00
0E00
0E00
0E00
0E00
0E00
0E00
0E00
0E00
0E00
0E00
0E00
ENDCHAR
STARTCHAR idotaccent.sc
ENCODING -1
SWIDTH 237 0
DWIDTH 9 0
BBX 3 29 3 0
BITMAP
40
E0
E0
E0
40
00
00
00
E0
E0
E0
E0
E0
E0
E0
E0
E0
E0
E0
E0
E0
E0
E0
E0
E0
E0
E0
E0
E0
ENDCHAR
STARTCHAR icircumflex.sc
ENCODING -1
SWIDTH 237 0
DWIDTH 9 0
BBX 11 29 -1 0
BITMAP
0E00
1B00
3B80
71C0
E0E0
0000
0000
0000
0E00
0E00
0E00
0E00
0E00
0E00
0E00
0E00
0E00
0E00
0E00
0E00
0E00
0E00
0E00
0E00
0E00
0E00
0E00
0E00
0E00
ENDCHAR
STARTCHAR idieresis.sc
ENCODING -1
SWIDTH 237 0
DWIDTH 8 0
BBX 9 28 0 0
BITMAP
E380
E380
E380
0000
0000
0000
0000
1C00
1C00
1C00
1C00
1C00
1C00
1C00
1C00
1C00
1C00
1C00
1C00
1C00
1C00
1C00
1C00
1C00
1C00
1C00
1C00
1C00
ENDCHAR
STARTCHAR imacron.sc
ENCODING -1
SWIDTH 237 0
DWIDTH 9 0
BBX 9 27 0 0
BITMAP
FF80
FF80
0000
0000
0000
0000
1C00
1C00
1C00
1C00
1C00
1C00
1C00
1C00
1C00
1C00
1C00
1C00
1C00
1C00
1C00
1C00
1C00
1C00
1C00
1C00
1C00
ENDCHAR
STARTCHAR igrave.sc
ENCODING -1
SWIDTH 237 0
DWIDTH 9 0
BBX 7 29 -1 0
BITMAP
F0
38
38
1C
0E
00
00
00
0E
0E
0E
0E
0E
0E
0E
0E
0E
0E
0E
0E
0E
0E
0E
0E
0E
0E
0E
0E
0E
ENDCHAR
STARTCHAR jcircumflex.sc
ENCODING -1
SWIDTH 330 0
DWIDTH 13 0
BBX 14 29 0 0
BITMAP
01C0
0360
0770
0E38
1C1C
0000
0000
01C0
01C0
01C0
01C0
01C0
01C0
01C0
01C0
01C0
01C0
01C0
01C0
01C0
01C0
01C0
01C0
01C0
61C0
F3C0
FF80
7F80
3E00
ENDCHAR
STARTCHAR kcommaaccent.sc
ENCODING -1
SWIDTH 415 0
DWIDTH 16 0
BBX 13 30 3 -9
BITMAP
E0F0
E0E0
E1E0
E3C0
E380
E780
E700
EE00
FE00
FC00
FC00
EE00
EF00
E700
E780
E380
E3C0
E1E0
E1E0
E0F0
E070
0008
0000
0600
0E00
0E00
0C00
0C00
1C00
1C00
ENDCHAR
STARTCHAR lslash.sc
ENCODING -1
SWIDTH 327 0
DWIDTH 12 0
BBX 10 21 2 0
BITMAP
7000
7000
7000
7100
7100
7300
7700
7E00
7C00
7800
F000
F000
F000
F000
7000
7000
7000
7000
7FC0
7FC0
7FC0
ENDCHAR
STARTCHAR lacute.sc
ENCODING -1
SWIDTH 327 0
DWIDTH 12 0
BBX 9 29 3 0
BITMAP
1E00
1C00
3800
7000
6000
8000
0000
0000
E000
E000
E000
E000
E000
E000
E000
E000
E000
E000
E000
E000
E000
E000
E000
E000
E000
E000
FF80
FF80
FF80
ENDCHAR
STARTCHAR lcaron.sc
ENCODING -1
SWIDTH 337 0
DWIDTH 13 0
BBX 10 21 3 0
BITMAP
E1C0
E180
E380
E380
E300
E300
E700
E000
E000
E000
E000
E000
E000
E000
E000
E000
E000
E000
FF80
FF80
FF80
ENDCHAR
STARTCHAR lcommaaccent.sc
ENCODING -1
SWIDTH 327 0
DWIDTH 12 0
BBX 9 30 3 -9
BITMAP
E000
E000
E000
E000
E000
E000
E000
E000
E000
E000
E000
E000
E000
E000
E000
E000
E000
E000
FF80
FF80
FF80
0000
0000
1C00
1C00
1C00
1800
3800
3800
3000
ENDCHAR
STARTCHAR ldot.sc
ENCODING -1
SWIDTH 327 0
DWIDTH 11 0
BBX 9 21 3 0
BITMAP
E000
E000
E000
E000
E000
E000
E000
E000
E000
E100
E380
E380
E380
E100
E000
E000
E000
E000
FF80
FF80
FF80
ENDCHAR
STARTCHAR nacute.sc
ENCODING -1
SWIDTH 497 0
DWIDTH 19 0
BBX 13 29 3 0
BITMAP
00F0
01C0
01C0
0380
0700
0000
0000
0000
F038
F838
F838
F838
FC38
FC38
EC38
EE38
EE38
E738
E738
E738
E3B8
E3B8
E1B8
E1F8
E1F8
E0F8
E0F8
E078
E078
ENDCHAR
STARTCHAR ncommaaccent.sc
ENCODING -1
SWIDTH 497 0
DWIDTH 19 0
BBX 13 30 3 -9
BITMAP
F038
F838
F838
F838
FC38
FC38
EC38
EE38
EE38
E738
E738
E738
E3B8
E3B8
E1B8
E1F8
E1F8
E0F8
E0F8
E078
E078
0000
0000
0700
0700
0700
0600
0E00
0E00
0C00
ENDCHAR
STARTCHAR ncaron.sc
ENCODING -1
SWIDTH 497 0
DWIDTH 19 0
BBX 13 29 3 0
BITMAP
7070
38E0
19C0
0D80
0700
0000
0000
0000
F038
F838
F838
F838
FC38
FC38
EC38
EE38
EE38
E738
E738
E738
E3B8
E3B8
E1B8
E1F8
E1F8
E0F8
E0F8
E078
E078
ENDCHAR
STARTCHAR ntilde.sc
ENCODING -1
SWIDTH 497 0
DWIDTH 19 0
BBX 13 28 3 0
BITMAP
3C30
3E30
63E0
61E0
0000
0000
0000
F038
F838
F838
F838
FC38
FC38
EC38
EE38
EE38
E738
E738
E338
E3B8
E3B8
E1B8
E1F8
E1F8
E0F8
E0F8
E078
E078
ENDCHAR
STARTCHAR ograve.sc
ENCODING -1
SWIDTH 488 0
DWIDTH 18 0
BBX 14 29 2 0
BITMAP
3C00
0C00
0E00
0700
0300
0080
0000
0780
1FE0
3FF0
3870
7038
7038
F03C
E01C
E01C
E01C
E01C
E01C
E01C
E01C
E01C
F03C
7038
7038
3870
3FF0
1FE0
0780
ENDCHAR
STARTCHAR oacute.sc
ENCODING -1
SWIDTH 488 0
DWIDTH 18 0
BBX 14 29 2 0
BITMAP
00F0
00E0
01C0
0180
0300
0000
0000
0780
1FE0
3FF0
3870
7038
7038
F03C
E01C
E01C
E01C
E01C
E01C
E01C
E01C
E01C
F03C
7038
7038
3870
3FF0
1FE0
0780
ENDCHAR
STARTCHAR ocircumflex.sc
ENCODING -1
SWIDTH 488 0
DWIDTH 18 0
BBX 14 29 2 0
BITMAP
0780
0FC0
0CC0
1860
3870
0000
0000
0780
1FE0
3FF0
3870
7038
7038
F03C
E01C
E01C
E01C
E01C
E01C
E01C
E01C
E01C
F03C
7038
7038
3870
3FF0
1FE0
0780
ENDCHAR
STARTCHAR omacron.sc
ENCODING -1
SWIDTH 488 0
DWIDTH 18 0
BBX 14 27 2 0
BITMAP
3FF0
3FF0
0000
0000
0000
0780
1FE0
3FF0
3870
7038
7038
F03C
E01C
E01C
E01C
E01C
E01C
E01C
E01C
E01C
F03C
7038
7038
3870
3FF0
1FE0
0780
ENDCHAR
STARTCHAR obreve.sc
ENCODING -1
SWIDTH 488 0
DWIDTH 18 0
BBX 14 29 2 0
BITMAP
3030
3830
1C70
1FE0
07C0
0000
0000
0780
1FE0
3FF0
3870
7038
7038
F03C
E01C
E01C
E01C
E01C
E01C
E01C
E01C
E01C
F03C
7038
7038
3870
3FF0
1FE0
0780
ENDCHAR
STARTCHAR oslash.sc
ENCODING -1
SWIDTH 488 0
DWIDTH 18 0
BBX 14 24 2 -1
BITMAP
0010
07D8
1FF8
3FF0
3C78
7838
7078
F07C
E09C
E09C
E11C
E11C
E21C
E21C
E41C
E41C
E83C
7838
7078
38F0
3FF0
7FE0
6780
4000
ENDCHAR
STARTCHAR odieresis.sc
ENCODING -1
SWIDTH 488 0
DWIDTH 19 0
BBX 15 28 2 0
BITMAP
3870
3870
3870
0000
0000
0000
07C0
1FF0
3FF8
3C78
783C
701C
F01C
E00E
E00E
E00E
E00E
E00E
E00E
E00E
E00E
701C
701C
783C
3C78
3FF8
1FF0
07C0
ENDCHAR
STARTCHAR otilde.sc
ENCODING -1
SWIDTH 488 0
DWIDTH 19 0
BBX 15 28 2 0
BITMAP
1E18
1F18
31F0
30F0
0000
0000
07C0
1FF0
3FF8
3C78
783C
701C
F01C
E00E
E00E
E00E
E00E
E00E
E00E
E00E
E00E
701C
701C
783C
3C78
3FF8
1FF0
07C0
ENDCHAR
STARTCHAR ohungarumlaut.sc
ENCODING -1
SWIDTH 488 0
DWIDTH 18 0
BBX 14 29 2 0
BITMAP
039C
0738
0630
0E60
1CE0
0000
0000
0780
1FE0
3FF0
3870
7038
7038
F03C
E01C
E01C
E01C
E01C
E01C
E01C
E01C
E01C
F03C
7038
7038
3870
3FF0
1FE0
0780
ENDCHAR
STARTCHAR racute.sc
ENCODING -1
SWIDTH 426 0
DWIDTH 16 0
BBX 12 29 3 0
BITMAP
03C0
0300
0700
0E00
0C00
1000
0000
0000
FF00
FF80
FFC0
E1E0
E0E0
E0E0
E0E0
E0E0
E1E0
FFC0
FF80
FF00
E700
E780
E380
E3C0
E3C0
E1C0
E1E0
E1E0
E0F0
ENDCHAR
STARTCHAR rcommaaccent.sc
ENCODING -1
SWIDTH 426 0
DWIDTH 16 0
BBX 12 30 3 -9
BITMAP
FF00
FF80
FFC0
E1E0
E0E0
E0E0
E0E0
E0E0
E1E0
FFC0
FF80
FF00
E700
E780
E380
E3C0
E3C0
E1C0
E1E0
E1E0
E0E0
0010
0000
0E00
0C00
1C00
1C00
1C00
1800
3800
ENDCHAR
STARTCHAR rcaron.sc
ENCODING -1
SWIDTH 426 0
DWIDTH 16 0
BBX 12 29 3 0
BITMAP
E1C0
7180
3300
1F00
1E00
0000
0000
0000
FF00
FF80
FFC0
E1E0
E0E0
E0E0
E0E0
E0E0
E1E0
FFC0
FF80
FF00
E700
E780
E380
E3C0
E3C0
E1C0
E1E0
E1E0
E0F0
ENDCHAR
STARTCHAR sacute.sc
ENCODING -1
SWIDTH 367 0
DWIDTH 13 0
BBX 12 29 0 0
BITMAP
0070
00E0
01C0
0180
0380
0000
0000
07C0
0FE0
1FF0
3C60
3840
3800
3800
3800
3C00
1E00
0F80
07C0
01E0
00F0
0070
0070
0070
2070
70F0
FFE0
3FC0
0F80
ENDCHAR
STARTCHAR scaron.sc
ENCODING -1
SWIDTH 367 0
DWIDTH 13 0
BBX 13 29 0 0
BITMAP
3838
1C70
0CE0
06C0
0380
0000
0000
07C0
0FE0
1FF0
3C60
3840
3800
3800
3800
3C00
1E00
0F80
07C0
01E0
00F0
0070
0070
0070
2070
70F0
FFE0
3FC0
0F80
ENDCHAR
STARTCHAR scommaaccent.sc
ENCODING -1
SWIDTH 367 0
DWIDTH 13 0
BBX 12 31 0 -9
BITMAP
07C0
0FE0
1FF0
3C60
3840
3800
3800
3800
3C00
1E00
0F80
07C0
01E0
00F0
0070
0070
0070
2070
70F0
FFE0
3FC0
0F80
0000
0000
0700
0600
0E00
0E00
0E00
0C00
1C00
ENDCHAR
STARTCHAR scedilla.sc
ENCODING -1
SWIDTH 367 0
DWIDTH 14 0
BBX 12 31 1 -9
BITMAP
0F80
1FE0
3FF0
7860
7040
7000
7000
7000
7800
3E00
1F80
07C0
01E0
00F0
0070
0070
0070
2070
70F0
FFE0
7FC0
1F80
0600
0C00
0F80
1FC0
01C0
01C0
43C0
3F80
3F00
ENDCHAR
STARTCHAR scircumflex.sc
ENCODING -1
SWIDTH 367 0
DWIDTH 13 0
BBX 13 29 0 0
BITMAP
0380
06C0
0EE0
1C70
1838
2000
0000
07C0
0FE0
1FF0
3C60
3840
3800
3800
3800
3C00
1E00
0F80
07C0
01E0
00F0
0070
0070
0070
2070
70F0
FFE0
3FC0
0F80
ENDCHAR
STARTCHAR germandbls.sc
ENCODING -1
SWIDTH 727 0
DWIDTH 27 0
BBX 26 22 0 0
BITMAP
07C03E00
0FF07F80
1FF8FFC0
3C31E180
3821C100
3801C000
3801C000
3801C000
3C01E000
1E00F800
0F807E00
07C03F00
01E00F80
00F003C0
007001C0
007001C0
007001C0
207081C0
70F1C3C0
FFE3FF80
3FC0FF00
0F803E00
ENDCHAR
STARTCHAR tcommaaccent.sc
ENCODING -1
SWIDTH 299 0
DWIDTH 11 0
BBX 11 30 0 -9
BITMAP
FFE0
FFE0
FFE0
0E00
0E00
0E00
0E00
0E00
0E00
0E00
0E00
0E00
0E00
0E00
0E00
0E00
0E00
0E00
0E00
0E00
0E00
0000
0000
0E00
0C00
1C00
1C00
1C00
1800
3800
ENDCHAR
STARTCHAR tcaron.sc
ENCODING -1
SWIDTH 299 0
DWIDTH 11 0
BBX 11 29 0 0
BITMAP
E0E0
71C0
3B80
1B00
0E00
0000
0000
0000
FFE0
FFE0
FFE0
0E00
0E00
0E00
0E00
0E00
0E00
0E00
0E00
0E00
0E00
0E00
0E00
0E00
0E00
0E00
0E00
0E00
0E00
ENDCHAR
STARTCHAR tbar.sc
ENCODING -1
SWIDTH 299 0
DWIDTH 11 0
BBX 11 21 0 0
BITMAP
FFE0
FFE0
FFE0
0E00
0E00
0E00
7FC0
7FC0
0E00
0E00
0E00
0E00
0E00
0E00
0E00
0E00
0E00
0E00
0E00
0E00
0E00
ENDCHAR
STARTCHAR uogonek.sc
ENCODING -1
SWIDTH 487 0
DWIDTH 19 0
BBX 13 30 3 -8
BITMAP
E038
E038
E038
E038
E038
E038
E038
E038
E038
E038
E038
E038
E038
E038
E038
E038
E038
F078
78F0
7FF0
3FE0
0FC0
0700
0E00
0C00
1C00
1C00
1C80
1FC0
0F80
ENDCHAR
STARTCHAR uacute.sc
ENCODING -1
SWIDTH 487 0
DWIDTH 19 0
BBX 13 29 3 0
BITMAP
00F0
01C0
01C0
0380
0700
0000
0000
E038
E038
E038
E038
E038
E038
E038
E038
E038
E038
E038
E038
E038
E038
E038
E038
E038
F078
78F0
7FF0
3FE0
0F80
ENDCHAR
STARTCHAR ugrave.sc
ENCODING -1
SWIDTH 487 0
DWIDTH 19 0
BBX 13 29 3 0
BITMAP
7800
1C00
1C00
0E00
0700
0000
0000
E038
E038
E038
E038
E038
E038
E038
E038
E038
E038
E038
E038
E038
E038
E038
E038
E038
F078
78F0
7FF0
3FE0
0F80
ENDCHAR
STARTCHAR ucircumflex.sc
ENCODING -1
SWIDTH 487 0
DWIDTH 19 0
BBX 13 29 3 0
BITMAP
0780
0D80
1CC0
38E0
7070
0000
0000
E038
E038
E038
E038
E038
E038
E038
E038
E038
E038
E038
E038
E038
E038
E038
E038
E038
F078
78F0
7FF0
3FE0
0F80
ENDCHAR
STARTCHAR udieresis.sc
ENCODING -1
SWIDTH 487 0
DWIDTH 19 0
BBX 13 28 3 0
BITMAP
38E0
38E0
38E0
0000
0000
0000
E038
E038
E038
E038
E038
E038
E038
E038
E038
E038
E038
E038
E038
E038
E038
E038
E038
F078
78F0
7FF0
3FE0
0F80
ENDCHAR
STARTCHAR ubreve.sc
ENCODING -1
SWIDTH 487 0
DWIDTH 19 0
BBX 13 29 3 0
BITMAP
3030
3030
3870
1FE0
0780
0000
0000
E038
E038
E038
E038
E038
E038
E038
E038
E038
E038
E038
E038
E038
E038
E038
E038
E038
F078
78F0
7FF0
3FE0
0F80
ENDCHAR
STARTCHAR uhungarumlaut.sc
ENCODING -1
SWIDTH 487 0
DWIDTH 19 0
BBX 14 29 3 0
BITMAP
039C
0738
0E30
0C70
18E0
2000
0000
E038
E038
E038
E038
E038
E038
E038
E038
E038
E038
E038
E038
E038
E038
E038
E038
E038
F078
78F0
7FF0
3FE0
0F80
ENDCHAR
STARTCHAR umacron.sc
ENCODING -1
SWIDTH 487 0
DWIDTH 19 0
BBX 13 27 3 0
BITMAP
7FE0
7FE0
0000
0000
0000
E038
E038
E038
E038
E038
E038
E038
E038
E038
E038
E038
E038
E038
E038
E038
E038
E038
F078
78F0
7FF0
3FE0
0F80
ENDCHAR
STARTCHAR utilde.sc
ENCODING -1
SWIDTH 487 0
DWIDTH 19 0
BBX 13 28 3 0
BITMAP
3830
7E30
E3E0
E1E0
0000
0000
E038
E038
E038
E038
E038
E038
E038
E038
E038
E038
E038
E038
E038
E038
E038
E038
E038
F078
78F0
7FF0
3FE0
0F80
ENDCHAR
STARTCHAR uring.sc
ENCODING -1
SWIDTH 487 0
DWIDTH 19 0
BBX 13 31 3 0
BITMAP
0700
0F80
19C0
18C0
18C0
19C0
0F80
0700
0000
E038
E038
E038
E038
E038
E038
E038
E038
E038
E038
E038
E038
E038
E038
E038
E038
E038
F078
78F0
7FF0
3FE0
0F80
ENDCHAR
STARTCHAR wcircumflex.sc
ENCODING -1
SWIDTH 634 0
DWIDTH 24 0
BBX 23 29 1 0
BITMAP
007800
00FC00
00CE00
018600
038700
000080
000000
000000
E0781E
E0781C
E0781C
F0781C
F07C3C
70FC38
70FC38
70CC38
70CC38
78CE38
39CE70
39CE70
398E70
398670
3D8770
1F87E0
1F87E0
1F07E0
1F03E0
1F03E0
0F03C0
ENDCHAR
STARTCHAR ycircumflex.sc
ENCODING -1
SWIDTH 373 0
DWIDTH 14 0
BBX 13 29 1 0
BITMAP
0780
0D80
1CC0
38E0
3070
4000
0000
0000
E038
F078
7070
7070
38E0
38E0
3DE0
1DC0
1DC0
0F80
0F80
0700
0700
0700
0700
0700
0700
0700
0700
0700
0700
ENDCHAR
STARTCHAR yacute.sc
ENCODING -1
SWIDTH 373 0
DWIDTH 14 0
BBX 13 29 1 0
BITMAP
00F0
00E0
01C0
0380
0300
0400
0000
0000
E038
F078
7070
7070
38E0
38E0
3DE0
1DC0
1DC0
0F80
0F80
0700
0700
0700
0700
0700
0700
0700
0700
0700
0700
ENDCHAR
STARTCHAR ydieresis.sc
ENCODING -1
SWIDTH 373 0
DWIDTH 14 0
BBX 13 28 1 0
BITMAP
38E0
38E0
38E0
0000
0000
0000
0000
E038
F078
7070
7070
38E0
38E0
3DE0
1DC0
1DC0
0F80
0F80
0700
0700
0700
0700
0700
0700
0700
0700
0700
0700
ENDCHAR
STARTCHAR zacute.sc
ENCODING -1
SWIDTH 360 0
DWIDTH 14 0
BBX 11 29 2 0
BITMAP
01E0
0380
0700
0700
0E00
0000
0000
0000
FFE0
FFE0
FFE0
01E0
01C0
03C0
0380
0780
0700
0F00
0E00
1E00
1C00
3C00
3800
7800
7000
F000
FFE0
FFE0
FFE0
ENDCHAR
STARTCHAR zdotaccent.sc
ENCODING -1
SWIDTH 360 0
DWIDTH 14 0
BBX 11 29 2 0
BITMAP
0800
1C00
1C00
1C00
0800
0000
0000
0000
FFE0
FFE0
FFE0
01E0
01C0
03C0
0380
0780
0700
0F00
0E00
1E00
1C00
3C00
3800
7800
7000
F000
FFE0
FFE0
FFE0
ENDCHAR
STARTCHAR zcaron.sc
ENCODING -1
SWIDTH 360 0
DWIDTH 14 0
BBX 11 29 2 0
BITMAP
E0E0
71C0
3980
1B00
0F00
0000
0000
0000
FFE0
FFE0
FFE0
01E0
01C0
03C0
0380
0780
0700
0F00
0E00
1E00
1C00
3C00
3800
7800
7000
F000
FFE0
FFE0
FFE0
ENDCHAR
STARTCHAR ij.sc
ENCODING -1
SWIDTH 575 0
DWIDTH 22 0
BBX 16 22 3 0
BITMAP
0007
E007
E007
E007
E007
E007
E007
E007
E007
E007
E007
E007
E007
E007
E007
E007
E007
E187
E3CF
E3FE
E1FE
E078
ENDCHAR
STARTCHAR oe.sc
ENCODING -1
SWIDTH 556 0
DWIDTH 21 0
BBX 18 21 1 0
BITMAP
07FFC0
1FFFC0
3FFFC0
3C7000
787000
707000
F07000
E07000
E07000
E07FC0
E07FC0
E07FC0
E07000
E07000
F07000
707000
787000
3C7000
3FFFC0
1FFFC0
07FFC0
ENDCHAR
STARTCHAR eth.sc
ENCODING -1
SWIDTH 473 0
DWIDTH 18 0
BBX 15 21 1 0
BITMAP
3FC0
3FF0
3FF8
3878
383C
381C
381E
380E
380E
FF8E
FF8E
380E
380E
380E
381E
381C
383C
3878
3FF8
3FF0
3FC0
ENDCHAR
ENDFONT
